<svg width="26" height="24" viewBox="0 0 26 24" fill="none" xmlns="http://www.w3.org/2000/svg">
<path d="M18 20H4C2.89543 20 2 19.1046 2 18V8C2 6.89543 2.89543 6 4 6H20C21.1046 6 22 6.89543 22 8V9" stroke="#222222" stroke-width="2" stroke-linecap="round"/>
<path d="M19 15C18.4477 15 18 15.4477 18 16C18 16.5523 18.4477 17 19 17V15ZM25 17C25.5523 17 26 16.5523 26 16C26 15.4477 25.5523 15 25 15V17ZM23 13C23 12.4477 22.5523 12 22 12C21.4477 12 21 12.4477 21 13L23 13ZM21 19C21 19.5523 21.4477 20 22 20C22.5523 20 23 19.5523 23 19L21 19ZM19 17H25V15H19V17ZM21 13L21 19L23 19L23 13L21 13Z" fill="#222222"/>
</svg>
