<svg width="26" height="26" viewBox="0 0 26 26" fill="none" xmlns="http://www.w3.org/2000/svg">
<path d="M18.669 4.74329C19.0795 4.37384 19.1128 3.74155 18.7433 3.33104C18.3738 2.92053 17.7415 2.88725 17.331 3.25671L18.669 4.74329ZM8 13L7.33104 12.2567C7.12032 12.4463 7 12.7165 7 13C7 13.2835 7.12032 13.5537 7.33104 13.7433L8 13ZM17.331 22.7433C17.7415 23.1128 18.3738 23.0795 18.7433 22.669C19.1128 22.2585 19.0795 21.6262 18.669 21.2567L17.331 22.7433ZM17.331 3.25671L7.33104 12.2567L8.66896 13.7433L18.669 4.74329L17.331 3.25671ZM7.33104 13.7433L17.331 22.7433L18.669 21.2567L8.66896 12.2567L7.33104 13.7433Z" fill="#222222"/>
</svg>
