<svg width="26" height="26" viewBox="0 0 26 26" fill="none" xmlns="http://www.w3.org/2000/svg">
<path d="M24.917 9.75008L24.917 7.41675C24.917 6.31218 24.0216 5.41675 22.917 5.41675L18.1849 5.41675C17.844 5.41675 17.5266 5.24309 17.3427 4.95601L16.5454 3.71082C16.3615 3.42374 16.0441 3.25008 15.7032 3.25008L10.2894 3.25008C9.95292 3.25008 9.63897 3.41934 9.45402 3.70047L8.62119 4.96636C8.43624 5.24749 8.12229 5.41675 7.78577 5.41675L3.08366 5.41675C1.97909 5.41675 1.08366 6.31218 1.08366 7.41675L1.08366 19.6667C1.08366 20.7713 1.97909 21.6667 3.08366 21.6667L22.917 21.6667C24.0216 21.6667 24.917 20.7713 24.917 19.6667L24.917 14.6251" stroke="#222222" stroke-width="2" stroke-linecap="round"/>
<circle cx="13.5417" cy="13.5417" r="3.79167" stroke="#222222" stroke-width="2" stroke-linecap="round"/>
</svg>
