<svg width="26" height="26" viewBox="0 0 26 26" fill="none" xmlns="http://www.w3.org/2000/svg">
<path d="M13 24.9169L12.2786 25.6094C12.4672 25.8059 12.7277 25.9169 13 25.9169C13.2723 25.9169 13.5328 25.8059 13.7214 25.6094L13 24.9169ZM15.7083 22.0957L16.4297 22.7883L15.7083 22.0957ZM23.0489 6.94863L22.2169 7.50333L23.0489 6.94863ZM2.83499 7.12276L2.00294 6.56806L2.83499 7.12276ZM13.7214 24.2244L4.26081 14.3696L2.81804 15.7547L12.2786 25.6094L13.7214 24.2244ZM3.66704 7.67746L3.78313 7.50333L2.11902 6.39393L2.00294 6.56806L3.66704 7.67746ZM22.2169 7.50333L22.333 7.67746L23.9971 6.56806L23.881 6.39393L22.2169 7.50333ZM21.7392 14.3696L14.9869 21.4032L16.4297 22.7883L23.182 15.7547L21.7392 14.3696ZM14.9869 21.4032L12.2786 24.2244L13.7214 25.6094L16.4297 22.7883L14.9869 21.4032ZM22.333 7.67746C23.7289 9.7714 23.482 12.5542 21.7392 14.3696L23.182 15.7547C25.5744 13.2625 25.9134 9.4425 23.9971 6.56806L22.333 7.67746ZM13.8664 7.07367C16.0909 4.383 20.2804 4.59856 22.2169 7.50333L23.881 6.39393C21.2011 2.37408 15.4033 2.07577 12.325 5.79934L13.8664 7.07367ZM12.1336 7.07367C12.5832 7.61753 13.4168 7.61754 13.8664 7.07367L12.325 5.79934C12.6753 5.37564 13.3247 5.37565 13.675 5.79934L12.1336 7.07367ZM3.78313 7.50333C5.71964 4.59856 9.90913 4.383 12.1336 7.07367L13.675 5.79934C10.5967 2.07577 4.79892 2.37408 2.11902 6.39393L3.78313 7.50333ZM4.26081 14.3696C2.51799 12.5542 2.27108 9.7714 3.66704 7.67746L2.00294 6.56806C0.0866479 9.4425 0.425585 13.2625 2.81804 15.7547L4.26081 14.3696Z" fill="black"/>
</svg>
