<svg width="26" height="26" viewBox="0 0 26 26" fill="none" xmlns="http://www.w3.org/2000/svg">
<path d="M3.25 5.5C2.69772 5.5 2.25 5.94772 2.25 6.5C2.25 7.05228 2.69772 7.5 3.25 7.5V5.5ZM22.75 7.5C23.3023 7.5 23.75 7.05228 23.75 6.5C23.75 5.94772 23.3023 5.5 22.75 5.5V7.5ZM3.25 7.5H22.75V5.5H3.25V7.5Z" fill="#222222"/>
<path d="M6.5 12C5.94772 12 5.5 12.4477 5.5 13C5.5 13.5523 5.94772 14 6.5 14V12ZM19.5 14C20.0523 14 20.5 13.5523 20.5 13C20.5 12.4477 20.0523 12 19.5 12V14ZM6.5 14H19.5V12H6.5V14Z" fill="#222222"/>
<path d="M15.1668 20.5C15.7191 20.5 16.1668 20.0523 16.1668 19.5C16.1668 18.9477 15.7191 18.5 15.1668 18.5L15.1668 20.5ZM10.8335 18.5C10.2812 18.5 9.8335 18.9477 9.8335 19.5C9.8335 20.0523 10.2812 20.5 10.8335 20.5L10.8335 18.5ZM10.8335 20.5L15.1668 20.5L15.1668 18.5L10.8335 18.5L10.8335 20.5Z" fill="#222222"/>
</svg>
