<svg width="24" height="24" viewBox="0 0 24 24" fill="none" xmlns="http://www.w3.org/2000/svg">
<path d="M3 5C2.44772 5 2 5.44772 2 6C2 6.55228 2.44772 7 3 7V5ZM4 7C4.55228 7 5 6.55228 5 6C5 5.44772 4.55228 5 4 5V7ZM12 5C11.4477 5 11 5.44772 11 6C11 6.55228 11.4477 7 12 7V5ZM21 7C21.5523 7 22 6.55228 22 6C22 5.44772 21.5523 5 21 5V7ZM3 7H4V5H3V7ZM12 7H21V5H12V7Z" fill="#222222"/>
<ellipse cx="8" cy="6" rx="1" ry="1" fill="#222222" stroke="#222222" stroke-width="2" stroke-linecap="round"/>
<path d="M20 11C19.4477 11 19 11.4477 19 12C19 12.5523 19.4477 13 20 13V11ZM21 13C21.5523 13 22 12.5523 22 12C22 11.4477 21.5523 11 21 11V13ZM3 11C2.44772 11 2 11.4477 2 12C2 12.5523 2.44772 13 3 13V11ZM12 13C12.5523 13 13 12.5523 13 12C13 11.4477 12.5523 11 12 11V13ZM20 13H21V11H20V13ZM3 13H12V11H3V13Z" fill="#222222"/>
<ellipse cx="16" cy="12" rx="1" ry="1" fill="#222222" stroke="#222222" stroke-width="2" stroke-linecap="round"/>
<path d="M3 17C2.44772 17 2 17.4477 2 18C2 18.5523 2.44772 19 3 19V17ZM6 19C6.55228 19 7 18.5523 7 18C7 17.4477 6.55228 17 6 17V19ZM14 17C13.4477 17 13 17.4477 13 18C13 18.5523 13.4477 19 14 19V17ZM21 19C21.5523 19 22 18.5523 22 18C22 17.4477 21.5523 17 21 17V19ZM3 19H6V17H3V19ZM14 19H21V17H14V19Z" fill="#222222"/>
<ellipse cx="10" cy="18" rx="1" ry="1" fill="#222222" stroke="#222222" stroke-width="2" stroke-linecap="round"/>
</svg>
