<svg width="26" height="26" viewBox="0 0 26 26" fill="none" xmlns="http://www.w3.org/2000/svg">
<rect x="1" y="5" width="24" height="15.2727" rx="1" stroke="#222222" stroke-width="2" stroke-linecap="round"/>
<path d="M2.716 5.31044C2.28474 4.96543 1.65545 5.03535 1.31044 5.46661C0.96543 5.89788 1.03535 6.52717 1.46661 6.87218L2.716 5.31044ZM13.0004 14.8186L12.3757 15.5995C12.7409 15.8916 13.2599 15.8916 13.6251 15.5995L13.0004 14.8186ZM24.5342 6.87218C24.9655 6.52717 25.0354 5.89788 24.6904 5.46661C24.3454 5.03535 23.7161 4.96543 23.2848 5.31044L24.5342 6.87218ZM1.46661 6.87218L12.3757 15.5995L13.6251 14.0377L2.716 5.31044L1.46661 6.87218ZM13.6251 15.5995L24.5342 6.87218L23.2848 5.31044L12.3757 14.0377L13.6251 15.5995Z" fill="#222222"/>
</svg>
