<svg width="26" height="26" viewBox="0 0 26 26" fill="none" xmlns="http://www.w3.org/2000/svg">
<path d="M12.9998 23.3333C12.0794 23.3333 11.3332 22.5871 11.3332 21.6667C11.3332 20.7462 12.0794 20 12.9998 20C13.9203 20 14.6665 20.7462 14.6665 21.6667C14.6665 22.5871 13.9203 23.3333 12.9998 23.3333Z" fill="#222222" stroke="#222222"/>
<path d="M12.9998 14.6668C12.0794 14.6668 11.3332 13.9206 11.3332 13.0002C11.3332 12.0797 12.0794 11.3335 12.9998 11.3335C13.9203 11.3335 14.6665 12.0797 14.6665 13.0002C14.6665 13.9206 13.9203 14.6668 12.9998 14.6668Z" fill="#222222" stroke="#222222"/>
<path d="M12.9998 6.00008C12.0794 6.00008 11.3332 5.25389 11.3332 4.33341C11.3332 3.41294 12.0794 2.66675 12.9998 2.66675C13.9203 2.66675 14.6665 3.41294 14.6665 4.33341C14.6665 5.25389 13.9203 6.00008 12.9998 6.00008Z" fill="#222222" stroke="#222222"/>
</svg>
