<svg width="26" height="26" viewBox="0 0 26 26" fill="none" xmlns="http://www.w3.org/2000/svg">
<circle cx="4.33333" cy="13.0001" r="1.66667" transform="rotate(-180 4.33333 13.0001)" fill="#222222" stroke="#222222"/>
<path d="M11.3337 13.0001C11.3337 12.0796 12.0799 11.3334 13.0003 11.3334C13.9208 11.3334 14.667 12.0796 14.667 13.0001C14.667 13.9206 13.9208 14.6667 13.0003 14.6667C12.0799 14.6667 11.3337 13.9206 11.3337 13.0001Z" fill="#222222" stroke="#222222"/>
<path d="M20.0002 13.0001C20.0002 12.0796 20.7464 11.3334 21.6668 11.3334C22.5873 11.3334 23.3335 12.0796 23.3335 13.0001C23.3335 13.9206 22.5873 14.6667 21.6668 14.6667C20.7464 14.6667 20.0002 13.9206 20.0002 13.0001Z" fill="#222222" stroke="#222222"/>
</svg>
