<svg width="26" height="26" viewBox="0 0 26 26" fill="none" xmlns="http://www.w3.org/2000/svg">
<path d="M18.4165 5.73483C17.097 4.8484 15.521 4.33325 13.8283 4.33325C9.18258 4.33325 5.4165 8.21345 5.4165 12.9999C5.4165 17.7864 9.18258 21.6666 13.8283 21.6666C15.521 21.6666 17.097 21.1514 18.4165 20.265" stroke="#222222" stroke-width="2" stroke-linecap="round" stroke-linejoin="round"/>
<path d="M3.25 9.83325C2.69772 9.83325 2.25 10.281 2.25 10.8333C2.25 11.3855 2.69772 11.8333 3.25 11.8333V9.83325ZM14.0833 11.8333C14.6356 11.8333 15.0833 11.3855 15.0833 10.8333C15.0833 10.281 14.6356 9.83325 14.0833 9.83325V11.8333ZM3.25 11.8333H14.0833V9.83325H3.25V11.8333Z" fill="#222222"/>
<path d="M3.25 14.1667C2.69772 14.1667 2.25 14.6145 2.25 15.1667C2.25 15.719 2.69772 16.1667 3.25 16.1667V14.1667ZM14.0833 16.1667C14.6356 16.1667 15.0833 15.719 15.0833 15.1667C15.0833 14.6145 14.6356 14.1667 14.0833 14.1667V16.1667ZM3.25 16.1667H14.0833V14.1667H3.25V16.1667Z" fill="#222222"/>
</svg>
