<svg width="26" height="26" viewBox="0 0 26 26" fill="none" xmlns="http://www.w3.org/2000/svg">
<path d="M22.8332 6.50008C22.8332 7.05237 23.2809 7.50008 23.8332 7.50008C24.3855 7.50008 24.8332 7.05237 24.8332 6.50008H22.8332ZM19.4998 1.16675C18.9476 1.16675 18.4998 1.61446 18.4998 2.16675C18.4998 2.71903 18.9476 3.16675 19.4998 3.16675V1.16675ZM6.49984 3.16675C7.05212 3.16675 7.49984 2.71903 7.49984 2.16675C7.49984 1.61446 7.05212 1.16675 6.49984 1.16675V3.16675ZM1.1665 6.50008C1.1665 7.05237 1.61422 7.50008 2.1665 7.50008C2.71879 7.50008 3.1665 7.05237 3.1665 6.50008H1.1665ZM3.1665 19.5001C3.1665 18.9478 2.71879 18.5001 2.1665 18.5001C1.61422 18.5001 1.1665 18.9478 1.1665 19.5001H3.1665ZM6.49984 24.8334C7.05212 24.8334 7.49984 24.3857 7.49984 23.8334C7.49984 23.2811 7.05212 22.8334 6.49984 22.8334V24.8334ZM19.4998 22.8334C18.9476 22.8334 18.4998 23.2811 18.4998 23.8334C18.4998 24.3857 18.9476 24.8334 19.4998 24.8334V22.8334ZM24.8332 19.5001C24.8332 18.9478 24.3855 18.5001 23.8332 18.5001C23.2809 18.5001 22.8332 18.9478 22.8332 19.5001H24.8332ZM24.8332 6.50008V4.16675H22.8332V6.50008H24.8332ZM19.4998 3.16675H21.8332V1.16675H19.4998V3.16675ZM4.1665 3.16675H6.49984V1.16675H4.1665V3.16675ZM1.1665 4.16675V6.50008H3.1665V4.16675H1.1665ZM1.1665 19.5001V22.8334H3.1665V19.5001H1.1665ZM3.1665 24.8334H6.49984V22.8334H3.1665V24.8334ZM19.4998 24.8334H22.8332V22.8334H19.4998V24.8334ZM24.8332 22.8334V19.5001H22.8332V22.8334H24.8332ZM22.8332 24.8334C23.9377 24.8334 24.8332 23.938 24.8332 22.8334H22.8332V24.8334ZM1.1665 22.8334C1.1665 23.938 2.06193 24.8334 3.1665 24.8334V22.8334H1.1665ZM24.8332 4.16675C24.8332 2.50989 23.49 1.16675 21.8332 1.16675V3.16675C22.3855 3.16675 22.8332 3.61446 22.8332 4.16675H24.8332ZM4.1665 1.16675C2.50965 1.16675 1.1665 2.50989 1.1665 4.16675H3.1665C3.1665 3.61446 3.61422 3.16675 4.1665 3.16675V1.16675Z" fill="#222222"/>
<path d="M8.6665 12C8.11422 12 7.6665 12.4477 7.6665 13C7.6665 13.5523 8.11422 14 8.6665 14V12ZM17.3332 14C17.8855 14 18.3332 13.5523 18.3332 13C18.3332 12.4477 17.8855 12 17.3332 12V14ZM8.6665 14H17.3332V12H8.6665V14Z" fill="#222222"/>
<path d="M8.6665 16.3333C8.11422 16.3333 7.6665 16.781 7.6665 17.3333C7.6665 17.8855 8.11422 18.3333 8.6665 18.3333V16.3333ZM11.9165 18.3333C12.4688 18.3333 12.9165 17.8855 12.9165 17.3333C12.9165 16.781 12.4688 16.3333 11.9165 16.3333V18.3333ZM8.6665 18.3333H11.9165V16.3333H8.6665V18.3333Z" fill="#222222"/>
<path d="M8.6665 7.66675C8.11422 7.66675 7.6665 8.11446 7.6665 8.66675C7.6665 9.21903 8.11422 9.66675 8.6665 9.66675V7.66675ZM17.3332 9.66675C17.8855 9.66675 18.3332 9.21903 18.3332 8.66675C18.3332 8.11446 17.8855 7.66675 17.3332 7.66675V9.66675ZM8.6665 9.66675H17.3332V7.66675H8.6665V9.66675Z" fill="#222222"/>
</svg>
