<svg width="26" height="26" viewBox="0 0 26 26" fill="none" xmlns="http://www.w3.org/2000/svg">
<path d="M15.2716 22.2727V23C15.2716 24.1046 14.3761 25 13.2716 25H4.18066C3.07609 25 2.18066 24.1046 2.18066 23V3C2.18066 1.89543 3.07609 1 4.18066 1H13.2716C14.3761 1 15.2716 1.89543 15.2716 3V3.72727" stroke="#222222" stroke-width="2" stroke-linecap="round"/>
<path d="M12.3062 16.2724H11.8182C10.7136 16.2724 9.81817 15.377 9.81817 14.2725L9.81813 9.54518C9.81812 8.44061 10.7136 7.54517 11.8181 7.54517H21.9999C23.1045 7.54517 23.9999 8.44059 23.9999 9.54515L24 14.2724C24 15.377 23.1046 16.2724 22 16.2724H18.1116" stroke="#222222" stroke-width="2" stroke-linecap="round"/>
<path d="M14.1822 16.2727V15.2727C14.7345 15.2727 15.1822 15.7204 15.1822 16.2727H14.1822ZM18.0004 16.2727L17.4191 15.459C17.5887 15.3378 17.7919 15.2727 18.0004 15.2727V16.2727ZM19.6367 15.2727C20.189 15.2727 20.6367 15.7204 20.6367 16.2727C20.6367 16.825 20.189 17.2727 19.6367 17.2727V15.2727ZM12.0578 17.2727C11.5055 17.2727 11.0578 16.825 11.0578 16.2727C11.0578 15.7204 11.5055 15.2727 12.0578 15.2727V17.2727ZM15.1822 16.2727V18.0284H13.1822V16.2727H15.1822ZM14.3916 17.6215L17.4191 15.459L18.5816 17.0864L15.554 19.249L14.3916 17.6215ZM18.0004 15.2727H19.6367V17.2727H18.0004V15.2727ZM14.1822 17.2727H12.0578V15.2727H14.1822V17.2727ZM15.1822 18.0284C15.1822 17.6217 14.7225 17.3851 14.3916 17.6215L15.554 19.249C14.5612 19.9581 13.1822 19.2484 13.1822 18.0284H15.1822Z" fill="#222222"/>
<path d="M9.31854 20.6361C9.31854 20.9624 9.05398 21.227 8.72763 21.227C8.40128 21.227 8.13672 20.9624 8.13672 20.6361C8.13672 20.3097 8.40128 20.0452 8.72763 20.0452C9.05398 20.0452 9.31854 20.3097 9.31854 20.6361Z" fill="#222222" stroke="#222222"/>
</svg>
