<svg width="60" height="60" viewBox="20 10 60 60" fill="none" xmlns="http://www.w3.org/2000/svg">
<g filter="url(#filter0_d)">
<rect x="20" y="10" width="60" height="60" rx="14" fill="url(#paint0_linear)"/>
</g>
<path fill-rule="evenodd" clip-rule="evenodd" d="M33 25C31.8954 25 31 25.8954 31 27V53C31 54.1046 31.8954 55 33 55H67C68.1046 55 69 54.1046 69 53V27C69 25.8954 68.1046 25 67 25H33ZM34 29H59V34H34V29ZM34 37H48V42H34V37ZM34 45H44V50H34V45ZM59 44H62V51H59V44ZM66 44H63V51H66V44Z" fill="white"/>
<circle cx="62.5" cy="47.5" r="8.5" transform="rotate(-90 62.5 47.5)" stroke="#E1CEFF" stroke-width="4"/>
<defs>
<filter id="filter0_d" x="0" y="0" width="100" height="100" filterUnits="userSpaceOnUse" color-interpolation-filters="sRGB">
<feFlood flood-opacity="0" result="BackgroundImageFix"/>
<feColorMatrix in="SourceAlpha" type="matrix" values="0 0 0 0 0 0 0 0 0 0 0 0 0 0 0 0 0 0 127 0"/>
<feOffset dy="10"/>
<feGaussianBlur stdDeviation="10"/>
<feColorMatrix type="matrix" values="0 0 0 0 0.133333 0 0 0 0 0.133333 0 0 0 0 0.133333 0 0 0 0.05 0"/>
<feBlend mode="normal" in2="BackgroundImageFix" result="effect1_dropShadow"/>
<feBlend mode="normal" in="SourceGraphic" in2="effect1_dropShadow" result="shape"/>
</filter>
<linearGradient id="paint0_linear" x1="20" y1="-19.5" x2="105.301" y2="18.0958" gradientUnits="userSpaceOnUse">
<stop offset="0.0967768" stop-color="#BA75FF"/>
<stop offset="1" stop-color="#3A88C6"/>
</linearGradient>
</defs>
</svg>
