<svg width="40" height="40" viewBox="0 0 40 40" fill="none" xmlns="http://www.w3.org/2000/svg">
<circle opacity="0.3" cx="20" cy="20" r="20" fill="#01257F"/>
<mask id="mask0" mask-type="alpha" maskUnits="userSpaceOnUse" x="0" y="0" width="40" height="40">
<circle cx="20" cy="20" r="20" fill="#22AED1"/>
</mask>
<g mask="url(#mask0)">
<path opacity="0.5" fill-rule="evenodd" clip-rule="evenodd" d="M30.3702 11.1111H11.8517C9.80615 11.1111 8.14795 13.0457 8.14795 15.4321V50C8.14795 52.3864 9.80615 54.321 11.8517 54.321H30.3702C32.4157 54.321 34.0739 52.3864 34.0739 50V15.4321C34.0739 13.0457 32.4157 11.1111 30.3702 11.1111ZM11.1109 48.1481V14.8148H31.1109V48.1481H11.1109Z" fill="white"/>
<path fill-rule="evenodd" clip-rule="evenodd" d="M31.1108 14.8148H11.1108V21.4815H31.1108V14.8148ZM17.4071 17.037C17.2026 17.037 17.0368 17.2029 17.0368 17.4074C17.0368 17.612 17.2026 17.7778 17.4071 17.7778H25.5553C25.7598 17.7778 25.9257 17.612 25.9257 17.4074C25.9257 17.2029 25.7598 17.037 25.5553 17.037H17.4071ZM17.0368 18.8889C17.0368 18.6843 17.2026 18.5185 17.4071 18.5185H27.7775C27.9821 18.5185 28.1479 18.6843 28.1479 18.8889C28.1479 19.0934 27.9821 19.2593 27.7775 19.2593H17.4071C17.2026 19.2593 17.0368 19.0934 17.0368 18.8889ZM14.4442 20C15.4669 20 16.296 19.1709 16.296 18.1482C16.296 17.1254 15.4669 16.2963 14.4442 16.2963C13.4214 16.2963 12.5923 17.1254 12.5923 18.1482C12.5923 19.1709 13.4214 20 14.4442 20Z" fill="white"/>
</g>
</svg>
