<svg width="40" height="40" viewBox="0 0 40 40" fill="none" xmlns="http://www.w3.org/2000/svg">
<circle cx="20" cy="20" r="20" fill="#01257F"/>
<path d="M27.6475 9.95996C27.5422 9.95996 27.4434 9.93329 27.3447 9.88663C24.8236 8.56663 22.6317 7.99996 20.0119 7.99996C17.3986 7.99996 14.9368 8.63329 12.679 9.87996C12.3565 10.0533 11.9615 9.93996 11.7838 9.61329C11.6126 9.28663 11.7245 8.88663 12.0471 8.70663C14.5023 7.35329 17.1814 6.66663 20.0119 6.66663C22.816 6.66663 25.2646 7.29329 27.9503 8.69996C28.2728 8.86663 28.3979 9.27329 28.2333 9.59996C28.1148 9.82663 27.8845 9.95996 27.6475 9.95996ZM8.80852 16.96C8.67687 16.96 8.54522 16.92 8.42674 16.84C8.13053 16.6266 8.05812 16.2133 8.26876 15.9133C9.57209 14.0466 11.2374 12.58 13.2122 11.5466C17.3525 9.37996 22.6448 9.37329 26.7918 11.5333C28.7599 12.56 30.4187 14.0133 31.7286 15.8666C31.9392 16.1666 31.8734 16.58 31.5772 16.7933C31.281 17.0066 30.8663 16.94 30.6557 16.64C29.4708 14.96 27.97 13.64 26.1928 12.72C22.4144 10.7533 17.5895 10.76 13.8178 12.7333C12.0339 13.6666 10.5265 14.9933 9.34828 16.6866C9.21663 16.8666 9.01258 16.96 8.80852 16.96ZM17.0432 33.0466C16.872 33.0466 16.7075 32.98 16.5758 32.8466C15.437 31.68 14.8183 30.94 13.9297 29.3333C13.0213 27.6933 12.5408 25.6866 12.5408 23.54C12.5408 19.58 15.8847 16.3533 19.9987 16.3533C24.1127 16.3533 27.4566 19.5733 27.4566 23.54C27.4566 23.9066 27.1604 24.2066 26.7984 24.2066C26.4363 24.2066 26.1401 23.9066 26.1401 23.54C26.1401 20.3133 23.3886 17.6866 19.9987 17.6866C16.6153 17.6866 13.8573 20.3133 13.8573 23.54C13.8573 25.46 14.2785 27.2333 15.075 28.68C15.9241 30.2133 16.4902 30.8733 17.5039 31.9066C17.7607 32.1666 17.7607 32.5933 17.4974 32.8466C17.3789 32.9866 17.2077 33.0466 17.0432 33.0466ZM26.4758 30.58C24.9092 30.58 23.5335 30.18 22.3947 29.4C20.4397 28.0533 19.268 25.8666 19.268 23.5466C19.268 23.18 19.5642 22.88 19.9263 22.88C20.2883 22.88 20.5845 23.18 20.5845 23.5466C20.5845 25.42 21.539 27.1933 23.1385 28.2933C24.0666 28.9333 25.1593 29.2466 26.4758 29.2466C26.7918 29.2466 27.325 29.2133 27.8515 29.12C28.207 29.0533 28.5493 29.3 28.6151 29.66C28.6809 30.02 28.4374 30.3666 28.0819 30.4333C27.3118 30.5733 26.6601 30.58 26.4758 30.58ZM23.8231 33.3333C23.7638 33.3333 23.7046 33.3266 23.6519 33.3066C21.5521 32.7266 20.183 31.94 18.7612 30.5066C16.9247 28.6533 15.911 26.18 15.911 23.5466C15.911 21.38 17.7277 19.62 19.9658 19.62C22.2038 19.62 24.0206 21.38 24.0206 23.5466C24.0206 24.9733 25.2515 26.14 26.7589 26.14C28.2662 26.14 29.4972 24.98 29.4972 23.5466C29.4972 18.52 25.2186 14.4333 19.9592 14.4333C16.2138 14.4333 12.7975 16.54 11.2572 19.8066C10.7438 20.8866 10.487 22.1466 10.487 23.5466C10.487 24.5866 10.5792 26.2266 11.3625 28.3533C11.4876 28.7 11.3164 29.08 10.9741 29.2133C10.6319 29.34 10.2567 29.1666 10.125 28.82C9.47993 27.0666 9.16397 25.3466 9.16397 23.5466C9.16397 21.9466 9.46677 20.4933 10.0658 19.2333C11.8233 15.5133 15.7069 13.1066 19.9526 13.1066C25.9361 13.1066 30.8071 17.7933 30.8071 23.5533C30.8071 25.72 28.9837 27.48 26.7523 27.48C24.5208 27.48 22.6975 25.72 22.6975 23.5533C22.6975 22.1266 21.4666 20.96 19.9592 20.96C18.4518 20.96 17.2209 22.12 17.2209 23.5533C17.2209 25.8266 18.0964 27.9666 19.6827 29.5666C20.9268 30.82 22.138 31.5133 23.9942 32.0266C24.3431 32.1266 24.5537 32.4933 24.455 32.8466C24.376 33.14 24.1127 33.3333 23.8231 33.3333Z" fill="white"/>
</svg>
