<svg width="32" height="36" viewBox="0 0 32 36" fill="none" xmlns="http://www.w3.org/2000/svg">
<path d="M26.3244 4.446C26.1822 4.446 26.0489 4.41 25.9156 4.347C22.5122 2.565 19.553 1.8 16.0163 1.8C12.4884 1.8 9.16492 2.655 6.11692 4.338C5.68149 4.572 5.14831 4.419 4.90838 3.978C4.67734 3.537 4.82841 2.997 5.26384 2.754C8.57843 0.927 12.1952 0 16.0163 0C19.8018 0 23.1075 0.846 26.7332 2.745C27.1686 2.97 27.3374 3.519 27.1153 3.96C26.9553 4.266 26.6443 4.446 26.3244 4.446ZM0.891772 13.896C0.714046 13.896 0.53632 13.842 0.376367 13.734C-0.0235172 13.446 -0.121267 12.888 0.163095 12.483C1.92258 9.963 4.17082 7.983 6.83671 6.588C12.4262 3.663 19.5708 3.654 25.1692 6.57C27.8262 7.956 30.0655 9.918 31.8339 12.42C32.1183 12.825 32.0294 13.383 31.6295 13.671C31.2296 13.959 30.6698 13.869 30.3854 13.464C28.7859 11.196 26.7598 9.414 24.3605 8.172C19.2598 5.517 12.7461 5.526 7.65425 8.19C5.24606 9.45 3.2111 11.241 1.62045 13.527C1.44272 13.77 1.16725 13.896 0.891772 13.896ZM12.0085 35.613C11.7775 35.613 11.5553 35.523 11.3776 35.343C9.84028 33.768 9.00497 32.769 7.80532 30.6C6.57901 28.386 5.93031 25.677 5.93031 22.779C5.93031 17.433 10.4446 13.077 15.9985 13.077C21.5524 13.077 26.0667 17.424 26.0667 22.779C26.0667 23.274 25.6668 23.679 25.1781 23.679C24.6893 23.679 24.2894 23.274 24.2894 22.779C24.2894 18.423 20.5749 14.877 15.9985 14.877C11.4309 14.877 7.70757 18.423 7.70757 22.779C7.70757 25.371 8.27629 27.765 9.35154 29.718C10.4979 31.788 11.2621 32.679 12.6306 34.074C12.9771 34.425 12.9771 35.001 12.6217 35.343C12.4617 35.532 12.2307 35.613 12.0085 35.613ZM24.7426 32.283C22.6277 32.283 20.7704 31.743 19.2331 30.69C16.5939 28.872 15.0121 25.92 15.0121 22.788C15.0121 22.293 15.412 21.888 15.9007 21.888C16.3895 21.888 16.7894 22.293 16.7894 22.788C16.7894 25.317 18.0779 27.711 20.2373 29.196C21.4902 30.06 22.9654 30.483 24.7426 30.483C25.1692 30.483 25.889 30.438 26.5999 30.312C27.0797 30.222 27.5418 30.555 27.6307 31.041C27.7195 31.527 27.3907 31.995 26.9109 32.085C25.8712 32.274 24.9914 32.283 24.7426 32.283ZM21.1614 36C21.0815 36 21.0015 35.991 20.9304 35.964C18.0957 35.181 16.2473 34.119 14.3279 32.184C11.8486 29.682 10.4801 26.343 10.4801 22.788C10.4801 19.863 12.9327 17.487 15.9541 17.487C18.9754 17.487 21.428 19.863 21.428 22.788C21.428 24.714 23.0898 26.289 25.1247 26.289C27.1597 26.289 28.8214 24.723 28.8214 22.788C28.8214 16.002 23.0453 10.485 15.9452 10.485C10.8889 10.485 6.27687 13.329 4.19748 17.739C3.50435 19.197 3.15778 20.898 3.15778 22.788C3.15778 24.192 3.28219 26.406 4.33966 29.277C4.5085 29.745 4.27746 30.258 3.81537 30.438C3.35328 30.609 2.84676 30.375 2.66903 29.907C1.79818 27.54 1.37163 25.218 1.37163 22.788C1.37163 20.628 1.7804 18.666 2.58906 16.965C4.9617 11.943 10.2046 8.694 15.9363 8.694C24.0139 8.694 30.5898 15.021 30.5898 22.797C30.5898 25.722 28.1283 28.098 25.1158 28.098C22.1034 28.098 19.6419 25.722 19.6419 22.797C19.6419 20.871 17.9801 19.296 15.9452 19.296C13.9102 19.296 12.2485 20.862 12.2485 22.797C12.2485 25.866 13.4304 28.755 15.572 30.915C17.2515 32.607 18.8865 33.543 21.3925 34.236C21.8635 34.371 22.1478 34.866 22.0145 35.343C21.9079 35.739 21.5524 36 21.1614 36Z" fill="#01257F"/>
</svg>
