<svg width="60" height="60" viewBox="20 10 60 60" fill="none" xmlns="http://www.w3.org/2000/svg">
<g filter="url(#filter0_d)">
<rect x="20" y="10" width="60" height="60" rx="14" fill="#0066A4"/>
<rect x="26" y="16" width="48" height="52" rx="2" fill="white"/>
<path d="M30 15C30 13.8954 30.8954 13 32 13H68C69.1046 13 70 13.8954 70 15V16H30V15Z" fill="#FF8861"/>
<path d="M80 28C80 23.0294 75.9706 19 71 19H56.8028C55.6765 19 54.6247 19.5629 54 20.5C53.3753 21.4371 52.3235 22 51.1972 22H29C24.0294 22 20 26.0294 20 31V56C20 63.732 26.268 70 34 70H66C73.732 70 80 63.732 80 56V28Z" fill="#3A88C6"/>
</g>
<rect x="59" y="30" width="6" height="23" fill="white"/>
<rect x="47" y="38" width="6" height="15" fill="white"/>
<rect x="35" y="42" width="6" height="11" fill="white"/>
<path d="M37 60C35.8954 60 35 59.1046 35 58V56H65V58C65 59.1046 64.1046 60 63 60H37Z" fill="#FFB36D"/>
<defs>
<filter id="filter0_d" x="0" y="0" width="100" height="100" filterUnits="userSpaceOnUse" color-interpolation-filters="sRGB">
<feFlood flood-opacity="0" result="BackgroundImageFix"/>
<feColorMatrix in="SourceAlpha" type="matrix" values="0 0 0 0 0 0 0 0 0 0 0 0 0 0 0 0 0 0 127 0"/>
<feOffset dy="10"/>
<feGaussianBlur stdDeviation="10"/>
<feColorMatrix type="matrix" values="0 0 0 0 0.133333 0 0 0 0 0.133333 0 0 0 0 0.133333 0 0 0 0.05 0"/>
<feBlend mode="normal" in2="BackgroundImageFix" result="effect1_dropShadow"/>
<feBlend mode="normal" in="SourceGraphic" in2="effect1_dropShadow" result="shape"/>
</filter>
</defs>
</svg>
