<svg width="28" height="20" viewBox="0 0 28 20" fill="none" xmlns="http://www.w3.org/2000/svg">
<rect width="28" height="20" rx="2" fill="white"/>
<mask id="mask0" mask-type="alpha" maskUnits="userSpaceOnUse" x="0" y="0" width="28" height="20">
<rect width="28" height="20" rx="2" fill="white"/>
</mask>
<g mask="url(#mask0)">
<rect width="28" height="20" fill="#05AB41"/>
<path fill-rule="evenodd" clip-rule="evenodd" d="M3.53164 10.5598C3.12564 10.2971 3.12564 9.70307 3.53164 9.44037L13.6378 2.90109C13.8582 2.75849 14.1417 2.75849 14.3621 2.90109L24.4683 9.44037C24.8743 9.70307 24.8743 10.2971 24.4683 10.5598L14.3621 17.0991C14.1417 17.2417 13.8582 17.2417 13.6378 17.0991L3.53164 10.5598Z" fill="#FDD216"/>
<path fill-rule="evenodd" clip-rule="evenodd" d="M14 14.6666C16.5774 14.6666 18.6667 12.5772 18.6667 9.99992C18.6667 7.42259 16.5774 5.33325 14 5.33325C11.4227 5.33325 9.33337 7.42259 9.33337 9.99992C9.33337 12.5772 11.4227 14.6666 14 14.6666Z" fill="#053087"/>
<mask id="mask1" mask-type="alpha" maskUnits="userSpaceOnUse" x="9" y="5" width="10" height="10">
<path fill-rule="evenodd" clip-rule="evenodd" d="M14 14.6666C16.5774 14.6666 18.6667 12.5772 18.6667 9.99992C18.6667 7.42259 16.5774 5.33325 14 5.33325C11.4227 5.33325 9.33337 7.42259 9.33337 9.99992C9.33337 12.5772 11.4227 14.6666 14 14.6666Z" fill="white"/>
</mask>
<g mask="url(#mask1)">
<path d="M8.77999 8.78008C9.51269 8.18676 11.877 8.74883 14.0841 9.33757C16.2912 9.92631 18.5931 11.1603 19.1792 11.8841" stroke="white" stroke-width="1.33333" stroke-linecap="square"/>
</g>
</g>
</svg>
