<svg width="28" height="20" viewBox="0 0 28 20" fill="none" xmlns="http://www.w3.org/2000/svg">
<rect width="28" height="20" rx="2" fill="white"/>
<mask id="mask0" mask-type="alpha" maskUnits="userSpaceOnUse" x="0" y="0" width="28" height="20">
<rect width="28" height="20" rx="2" fill="white"/>
</mask>
<g mask="url(#mask0)">
<path fill-rule="evenodd" clip-rule="evenodd" d="M0 5.33333H28V0H0V5.33333Z" fill="#0F3EB6"/>
<path fill-rule="evenodd" clip-rule="evenodd" d="M0 20.0001H28V14.6667H0V20.0001Z" fill="#0F3EB6"/>
<path fill-rule="evenodd" clip-rule="evenodd" d="M0 14.6666H28V5.33325H0V14.6666Z" fill="#ED1A3C"/>
<path fill-rule="evenodd" clip-rule="evenodd" d="M12 8.72713H13.3333V7.99992C13.3333 7.63173 13.6318 7.33325 14 7.33325C14.3681 7.33325 14.6666 7.63173 14.6666 7.99992V8.72713H16V9.99992H12V8.72713ZM17.3333 7.99992C16.9651 7.99992 16.6666 8.2984 16.6666 8.66659V9.99992H18V8.66659C18 8.2984 17.7015 7.99992 17.3333 7.99992ZM11.3333 13.3333V10.6666H9.99996L8.66663 13.3333H11.3333ZM16 10.6666H12V13.3333H16V10.6666ZM16.6666 10.6666H18L19.3333 13.3333H16.6666V10.6666ZM10.6666 7.99992C10.2984 7.99992 9.99996 8.2984 9.99996 8.66659V9.99992H11.3333V8.66659C11.3333 8.2984 11.0348 7.99992 10.6666 7.99992Z" fill="white"/>
</g>
</svg>
