<svg width="28" height="20" viewBox="0 0 28 20" fill="none" xmlns="http://www.w3.org/2000/svg">
<rect x="0.25" y="0.25" width="27.5" height="19.5" rx="1.75" fill="white" stroke="#F5F5F5" stroke-width="0.5"/>
<mask id="mask0" mask-type="alpha" maskUnits="userSpaceOnUse" x="0" y="0" width="28" height="20">
<rect x="0.25" y="0.25" width="27.5" height="19.5" rx="1.75" fill="white" stroke="white" stroke-width="0.5"/>
</mask>
<g mask="url(#mask0)">
<path fill-rule="evenodd" clip-rule="evenodd" d="M20 3.33341C20.3631 3.15186 20.7317 3.56932 20.5065 3.90709L20.0673 4.56588C20.0229 4.63247 19.9658 4.6896 19.8992 4.73399L18.055 5.96346C18.0184 5.98782 17.9844 6.01572 17.9534 6.04676L17.8048 6.19534C17.5444 6.45569 17.5444 6.8778 17.8048 7.13815L18.1953 7.52868C18.4557 7.78903 18.4557 8.21114 18.1953 8.47149L17.6731 8.99365C17.4702 9.19655 17.1603 9.24686 16.9036 9.11853L16.5963 8.96489C16.267 8.80023 15.8666 8.93371 15.7019 9.26303L15.4569 9.75309C15.3778 9.91124 15.2391 10.0315 15.0714 10.0874L13.436 10.6325C13.368 10.6552 13.2968 10.6667 13.2252 10.6667H12.4121C12.1595 10.6667 11.9287 10.8094 11.8158 11.0353L11.6315 11.4038C11.4669 11.7331 11.0664 11.8666 10.7371 11.7019L8.76347 10.7151C8.69938 10.6831 8.64088 10.6409 8.59021 10.5902L7.52864 9.52868C7.40361 9.40365 7.33337 9.23408 7.33337 9.05727V8.47149C7.33337 8.21114 7.54443 8.00008 7.80478 8.00008V8.00008C7.9298 8.00008 8.04971 7.95042 8.13811 7.86201L9.13811 6.86201C9.26314 6.73699 9.43271 6.66675 9.60952 6.66675H10.1862C10.4732 6.66675 10.7279 6.48313 10.8187 6.2109L11.1473 5.22507C11.2536 4.90611 11.5808 4.71623 11.9105 4.78217L14.5197 5.30401C14.6165 5.32337 14.7164 5.321 14.8121 5.29706L17.2624 4.6845C17.3096 4.6727 17.3553 4.65577 17.3988 4.63402L18.6667 4.00008L20 3.33341V3.33341Z" fill="#E7832C"/>
<path fill-rule="evenodd" clip-rule="evenodd" d="M14 16.0001C14.3682 16.0001 14.6667 15.7016 14.6667 15.3334C14.6667 14.9652 14.3682 14.6667 14 14.6667C13.6319 14.6667 13.3334 14.9652 13.3334 15.3334C13.3334 15.7016 13.6319 16.0001 14 16.0001Z" fill="#445128"/>
<path opacity="0.75" d="M16 14.6667C16 14.6667 18 14.0001 18.6667 12.6667" stroke="#445128" stroke-width="1.33333" stroke-linecap="round"/>
<path opacity="0.75" d="M12 14.6667C12 14.6667 10 14.0001 9.33333 12.6667" stroke="#445128" stroke-width="1.33333" stroke-linecap="round"/>
</g>
</svg>
