<svg width="28" height="20" viewBox="0 0 28 20" fill="none" xmlns="http://www.w3.org/2000/svg">
<rect x="0.25" y="0.25" width="27.5" height="19.5" rx="1.75" fill="white" stroke="#F5F5F5" stroke-width="0.5"/>
<mask id="mask0" mask-type="alpha" maskUnits="userSpaceOnUse" x="0" y="0" width="28" height="20">
<rect x="0.25" y="0.25" width="27.5" height="19.5" rx="1.75" fill="white" stroke="white" stroke-width="0.5"/>
</mask>
<g mask="url(#mask0)">
<path fill-rule="evenodd" clip-rule="evenodd" d="M0 8H12V0H0V8Z" fill="#083D7A"/>
<path fill-rule="evenodd" clip-rule="evenodd" d="M16 20H28V12H16V20Z" fill="#083D7A"/>
<path fill-rule="evenodd" clip-rule="evenodd" d="M0 20H12V12H0V20Z" fill="#DF1E35"/>
<path fill-rule="evenodd" clip-rule="evenodd" d="M16 8H28V0H16V8Z" fill="#DF1E35"/>
<path d="M15.4143 8.58579H12.5858L12.8215 8.82149C12.1707 9.47236 12.1707 10.5276 12.8215 11.1785C13.4724 11.8294 14.5277 11.8294 15.1786 11.1785C15.8294 10.5276 15.8294 9.47236 15.1786 8.82149L15.4143 8.58579Z" stroke="#0F6D1A" stroke-width="0.666667"/>
<path fill-rule="evenodd" clip-rule="evenodd" d="M13.9999 10.6666C14.3681 10.6666 14.6666 10.3681 14.6666 9.99992C14.6666 9.63173 14.3681 9.33325 13.9999 9.33325C13.6317 9.33325 13.3333 9.63173 13.3333 9.99992C13.3333 10.3681 13.6317 10.6666 13.9999 10.6666Z" fill="#042F60"/>
</g>
</svg>
