<svg width="28" height="20" viewBox="0 0 28 20" fill="none" xmlns="http://www.w3.org/2000/svg">
<rect width="28" height="20" rx="2" fill="white"/>
<mask id="mask0" mask-type="alpha" maskUnits="userSpaceOnUse" x="0" y="0" width="28" height="20">
<rect width="28" height="20" rx="2" fill="white"/>
</mask>
<g mask="url(#mask0)">
<path fill-rule="evenodd" clip-rule="evenodd" d="M0 6.66667H28V0H0V6.66667Z" fill="#20AA46"/>
<path fill-rule="evenodd" clip-rule="evenodd" d="M0 19.9999H28V13.3333H0V19.9999Z" fill="#E92F3B"/>
<path fill-rule="evenodd" clip-rule="evenodd" d="M0 13.3334H28V6.66675H0V13.3334Z" fill="#FADF50"/>
<path fill-rule="evenodd" clip-rule="evenodd" d="M14 14.6666C16.5774 14.6666 18.6667 12.5772 18.6667 9.99992C18.6667 7.42259 16.5774 5.33325 14 5.33325C11.4227 5.33325 9.33337 7.42259 9.33337 9.99992C9.33337 12.5772 11.4227 14.6666 14 14.6666Z" fill="#205CCA"/>
<path d="M14.1935 11.0287L14 10.8907L13.8065 11.0287L12.6576 11.8476L13.0815 10.502L13.1529 10.2753L12.9619 10.1339L11.828 9.29438L13.2388 9.28168L13.4765 9.27954L13.5519 9.05422L14 7.71639L14.448 9.05422L14.5235 9.27954L14.7611 9.28168L16.1719 9.29438L15.038 10.1339L14.847 10.2753L14.9184 10.502L15.3423 11.8476L14.1935 11.0287Z" stroke="#FFDB3D" stroke-width="0.666667"/>
</g>
</svg>
