<svg width="28" height="20" viewBox="0 0 28 20" fill="none" xmlns="http://www.w3.org/2000/svg">
<rect x="0.25" y="0.25" width="27.5" height="19.5" rx="1.75" fill="white" stroke="#F5F5F5" stroke-width="0.5"/>
<mask id="mask0" mask-type="alpha" maskUnits="userSpaceOnUse" x="0" y="0" width="28" height="20">
<rect x="0.25" y="0.25" width="27.5" height="19.5" rx="1.75" fill="white" stroke="white" stroke-width="0.5"/>
</mask>
<g mask="url(#mask0)">
<path fill-rule="evenodd" clip-rule="evenodd" d="M0 5.33333H28V0H0V5.33333Z" fill="#D82332"/>
<path fill-rule="evenodd" clip-rule="evenodd" d="M0 20.0001H28V14.6667H0V20.0001Z" fill="#D82332"/>
<path fill-rule="evenodd" clip-rule="evenodd" d="M13.0675 10.7527L12.7831 11.018C13.0402 11.0901 13.3969 11.0061 13.539 10.7527H13.0675" fill="#064A89"/>
<path fill-rule="evenodd" clip-rule="evenodd" d="M10.7725 10.9335C10.9649 11.126 11.2838 11.1035 11.4763 10.9817C11.6689 10.8598 11.8103 10.852 11.9303 10.8648C11.943 10.9734 11.9714 11.1127 12.0201 11.2503H10.8782C10.8498 11.1798 10.7945 11.0154 10.7725 10.9335" fill="#064A89"/>
<path fill-rule="evenodd" clip-rule="evenodd" d="M10.9841 11.4479C11.2083 11.342 11.4374 11.426 11.5365 11.5023C11.7196 11.6435 12.022 11.6052 12.1704 11.5251C12.227 11.6175 12.2958 11.7083 12.3787 11.7777H11.1569C11.1073 11.6976 11 11.5007 10.9841 11.4479" fill="#064A89"/>
<path fill-rule="evenodd" clip-rule="evenodd" d="M16.298 12.325C16.3517 12.2704 16.4243 12.1807 16.4717 12.1166C16.3927 12.1069 16.301 12.0498 16.2034 12.0011C16.0234 11.9112 15.8515 11.9112 15.6983 12.0171C15.4711 12.1742 15.187 12.2127 14.9661 12.0556C14.7236 11.8831 14.499 11.9209 14.3096 12.03C14.1201 12.1389 14.0002 12.1454 13.8866 12.1454C13.7729 12.1454 13.653 12.1389 13.4636 12.03C13.2742 11.9209 13.0496 11.8831 12.8071 12.0556C12.5862 12.2127 12.302 12.1742 12.0748 12.0171C11.9217 11.9112 11.7498 11.9112 11.5698 12.0011C11.4721 12.0498 11.3805 12.1069 11.3015 12.1166C11.3489 12.1807 11.4215 12.2704 11.4752 12.325H16.298" fill="#064A89"/>
<path fill-rule="evenodd" clip-rule="evenodd" d="M15.7067 12.8612C15.7571 12.8292 15.8961 12.7234 15.9655 12.6688C15.8897 12.6849 15.717 12.6286 15.6278 12.5822C15.3689 12.4474 15.1985 12.4603 15.006 12.5629C14.8134 12.6656 14.542 12.7201 14.3432 12.6111C14.1443 12.5021 14.0022 12.4731 13.8981 12.4731C13.794 12.4731 13.6519 12.5021 13.453 12.6111C13.2542 12.7201 12.9828 12.6656 12.7902 12.5629C12.5977 12.4603 12.4273 12.4474 12.1684 12.5822C12.0792 12.6286 11.9065 12.6849 11.8307 12.6688C11.9001 12.7234 12.039 12.8292 12.0895 12.8612H15.7067" fill="#064A89"/>
<path fill-rule="evenodd" clip-rule="evenodd" d="M14.5683 11.7952C14.5147 11.7663 14.4519 11.6991 14.3947 11.6129C14.3031 11.4749 14.158 11.3979 13.9402 11.3979C13.7224 11.3979 13.5772 11.4749 13.4857 11.6129C13.4284 11.6991 13.3657 11.7663 13.3121 11.7952H14.5683" fill="#064A89"/>
<path fill-rule="evenodd" clip-rule="evenodd" d="M14.2104 11.3001C14.1883 11.2616 14.141 11.1396 14.1252 11.0754C14.0746 11.0916 13.9768 11.0979 13.92 11.0979C13.8632 11.0979 13.7654 11.0916 13.7148 11.0754C13.6991 11.1396 13.6518 11.2616 13.6296 11.3001H14.2104" fill="#064A89"/>
<path fill-rule="evenodd" clip-rule="evenodd" d="M14.736 10.7527L15.0204 11.018C14.7633 11.0901 14.4065 11.0061 14.2645 10.7527H14.736" fill="#064A89"/>
<path fill-rule="evenodd" clip-rule="evenodd" d="M17.0994 10.9335C16.9069 11.126 16.5881 11.1035 16.3956 10.9817C16.203 10.8598 16.0615 10.852 15.9415 10.8648C15.9287 10.9734 15.9005 11.1127 15.8518 11.2503H16.9937C17.0221 11.1798 17.0773 11.0154 17.0994 10.9335" fill="#064A89"/>
<path fill-rule="evenodd" clip-rule="evenodd" d="M16.9289 11.4479C16.7048 11.342 16.4757 11.426 16.3765 11.5023C16.1935 11.6435 15.891 11.6052 15.7427 11.5251C15.686 11.6175 15.6173 11.7083 15.5343 11.7777H16.7561C16.8057 11.6976 16.9131 11.5007 16.9289 11.4479" fill="#064A89"/>
<path fill-rule="evenodd" clip-rule="evenodd" d="M15.1588 13.0717C14.7761 13.2304 14.3572 13.318 13.9183 13.318C13.4789 13.318 13.0603 13.2305 12.6772 13.0714C12.7593 13.0619 12.8679 13.0217 12.9556 12.9721C13.0977 12.8919 13.3564 12.8759 13.4796 12.9561C13.6026 13.0363 13.751 13.1164 13.9183 13.1164C14.0856 13.1164 14.234 13.0363 14.357 12.9561C14.4801 12.8759 14.7389 12.8919 14.8811 12.9721C14.9686 13.0217 15.0767 13.0621 15.1588 13.0717" fill="#064A89"/>
<path fill-rule="evenodd" clip-rule="evenodd" d="M14.6251 6.727C13.9339 6.5827 13.3121 6.66604 13.3121 7.32679C13.3121 7.97464 13.3121 8.93679 13.3121 9.13571C13.3121 9.33453 13.316 9.35969 13.5489 9.41475C14.0538 9.53421 14.1011 9.54625 14.6503 9.67442V7.81431C14.2211 7.76614 14.057 7.52141 14.057 7.237C14.057 6.9612 14.2463 6.78152 14.6251 6.727" fill="#514537"/>
<path fill-rule="evenodd" clip-rule="evenodd" d="M12.8538 11.8285C12.4687 11.8285 12.0647 11.4885 12.0647 10.8406C12.0647 10.1927 12.0647 9.37804 12.0647 9.23051C12.0647 9.08459 12.0809 9.06406 12.0473 9.03008C12.0276 9.01008 12.0694 8.9804 12.0978 8.95148C12.1404 8.90814 12.1697 8.87212 12.1121 8.81352C12.0544 8.75502 12.079 8.73976 12.1153 8.70298C12.1516 8.66599 12.1657 8.62922 12.131 8.59384C12.0963 8.55857 12.0884 8.54739 12.1263 8.5089C12.1642 8.4704 12.1484 8.45438 12.1168 8.42223C12.0852 8.39019 12.0703 8.36696 12.1105 8.3261C12.15 8.28599 12.153 8.27954 12.1989 8.27954C12.2447 8.27954 12.344 8.27954 12.3883 8.27954C12.4325 8.27954 12.4333 8.2932 12.3961 8.33094C12.348 8.37976 12.3338 8.399 12.3883 8.45438C12.4427 8.50965 12.4403 8.52814 12.4056 8.56341C12.3535 8.61632 12.3306 8.65244 12.3835 8.70621C12.4364 8.75986 12.4411 8.78395 12.4009 8.82481C12.3607 8.86567 12.3566 8.9018 12.4009 8.94664C12.4348 8.98115 12.4372 9.00126 12.4372 9.06212C12.4372 9.42943 12.4372 10.4301 12.4372 10.7059C12.4372 10.9817 12.6328 11.1485 13.0053 11.1485C13.3778 11.1485 13.504 10.9945 13.6113 10.8919C13.5419 11.3858 13.3399 11.8285 12.8538 11.8285" fill="#514537"/>
<path fill-rule="evenodd" clip-rule="evenodd" d="M13.9406 10.2551C13.9926 10.271 14.0431 10.348 14.0431 10.4314H14.1458C14.1458 10.3609 14.1157 10.2518 14.0613 10.1844C14.0605 10.1668 14.0581 10.1516 14.0542 10.1363C14.0921 10.0882 14.1473 10.0112 14.1458 9.93742C14.1447 9.89086 14.0905 9.89258 14.0842 9.92946C14.079 9.95978 14.059 10.0064 14.0211 10.0225C14.0211 9.96312 13.9879 9.89258 13.9406 9.89258C13.8933 9.89258 13.86 9.96312 13.86 10.0225C13.8222 10.0064 13.8022 9.95978 13.797 9.92946C13.7906 9.89258 13.7363 9.89086 13.7354 9.93742C13.7338 10.0112 13.789 10.0882 13.8269 10.1363C13.823 10.1516 13.8207 10.1668 13.8198 10.1844C13.7654 10.2518 13.7354 10.3609 13.7354 10.4314H13.838C13.838 10.348 13.8885 10.271 13.9406 10.2551" fill="#514537"/>
<path fill-rule="evenodd" clip-rule="evenodd" d="M13.4115 10.2551C13.4636 10.271 13.5142 10.348 13.5142 10.4314H13.6167C13.6167 10.3609 13.5868 10.2518 13.5323 10.1844C13.5315 10.1668 13.5291 10.1516 13.5252 10.1363C13.5631 10.0882 13.6183 10.0112 13.6167 9.93742C13.6158 9.89086 13.5615 9.89258 13.5551 9.92946C13.5499 9.95978 13.5298 10.0064 13.492 10.0225C13.492 9.96312 13.4589 9.89258 13.4115 9.89258C13.3642 9.89258 13.3311 9.96312 13.3311 10.0225C13.2932 10.0064 13.2731 9.95978 13.2679 9.92946C13.2616 9.89258 13.2074 9.89086 13.2063 9.93742C13.2047 10.0112 13.26 10.0882 13.2979 10.1363C13.294 10.1516 13.2916 10.1668 13.2908 10.1844C13.2364 10.2518 13.2063 10.3609 13.2063 10.4314H13.309C13.309 10.348 13.3595 10.271 13.4115 10.2551" fill="#514537"/>
<path fill-rule="evenodd" clip-rule="evenodd" d="M12.8825 10.2551C12.9345 10.271 12.985 10.348 12.985 10.4314H13.0876C13.0876 10.3609 13.0576 10.2518 13.0032 10.1844C13.0024 10.1668 13 10.1516 12.9961 10.1363C13.034 10.0882 13.0892 10.0112 13.0876 9.93742C13.0866 9.89086 13.0324 9.89258 13.0261 9.92946C13.0209 9.95978 13.0008 10.0064 12.9629 10.0225C12.9629 9.96312 12.9298 9.89258 12.8825 9.89258C12.8351 9.89258 12.8019 9.96312 12.8019 10.0225C12.7641 10.0064 12.7441 9.95978 12.7389 9.92946C12.7325 9.89258 12.6782 9.89086 12.6773 9.93742C12.6757 10.0112 12.7309 10.0882 12.7688 10.1363C12.7649 10.1516 12.7625 10.1668 12.7617 10.1844C12.7072 10.2518 12.6773 10.3609 12.6773 10.4314H12.7798C12.7798 10.348 12.8304 10.271 12.8825 10.2551" fill="#514537"/>
<path fill-rule="evenodd" clip-rule="evenodd" d="M14.4697 10.2551C14.4177 10.271 14.3672 10.348 14.3672 10.4314H14.2646C14.2646 10.3609 14.2945 10.2518 14.349 10.1844C14.3497 10.1668 14.3522 10.1516 14.3562 10.1363C14.3182 10.0882 14.263 10.0112 14.2646 9.93742C14.2656 9.89086 14.3198 9.89258 14.3261 9.92946C14.3313 9.95978 14.3514 10.0064 14.3892 10.0225C14.3892 9.96312 14.4224 9.89258 14.4697 9.89258C14.5172 9.89258 14.5503 9.96312 14.5503 10.0225C14.5881 10.0064 14.6082 9.95978 14.6133 9.92946C14.6197 9.89258 14.6739 9.89086 14.6749 9.93742C14.6765 10.0112 14.6213 10.0882 14.5834 10.1363C14.5873 10.1516 14.5897 10.1668 14.5905 10.1844C14.645 10.2518 14.6749 10.3609 14.6749 10.4314H14.5723C14.5723 10.348 14.5218 10.271 14.4697 10.2551" fill="#514537"/>
<path fill-rule="evenodd" clip-rule="evenodd" d="M14.9988 10.2551C14.9467 10.271 14.8963 10.348 14.8963 10.4314H14.7936C14.7936 10.3609 14.8237 10.2518 14.8781 10.1844C14.8789 10.1668 14.8812 10.1516 14.8851 10.1363C14.8473 10.0882 14.792 10.0112 14.7936 9.93742C14.7946 9.89086 14.8489 9.89258 14.8552 9.92946C14.8604 9.95978 14.8804 10.0064 14.9183 10.0225C14.9183 9.96312 14.9515 9.89258 14.9988 9.89258C15.0462 9.89258 15.0793 9.96312 15.0793 10.0225C15.1172 10.0064 15.1372 9.95978 15.1424 9.92946C15.1487 9.89258 15.2029 9.89086 15.204 9.93742C15.2056 10.0112 15.1503 10.0882 15.1124 10.1363C15.1164 10.1516 15.1187 10.1668 15.1195 10.1844C15.174 10.2518 15.204 10.3609 15.204 10.4314H15.1014C15.1014 10.348 15.0509 10.271 14.9988 10.2551" fill="#514537"/>
<path fill-rule="evenodd" clip-rule="evenodd" d="M12.5714 10.5376H15.349V10.6709H12.5714V10.5376Z" fill="#514537"/>
<path fill-rule="evenodd" clip-rule="evenodd" d="M15.0221 11.8285C15.4072 11.8285 15.8112 11.4885 15.8112 10.8406C15.8112 10.1927 15.8112 9.37804 15.8112 9.23051C15.8112 9.08459 15.795 9.06406 15.8285 9.03008C15.8482 9.01008 15.8064 8.9804 15.7781 8.95148C15.7354 8.90814 15.7062 8.87212 15.7638 8.81352C15.8215 8.75502 15.7969 8.73976 15.7607 8.70298C15.7243 8.66599 15.7101 8.62922 15.7448 8.59384C15.7796 8.55857 15.7875 8.54739 15.7496 8.5089C15.7117 8.4704 15.7275 8.45438 15.759 8.42223C15.7907 8.39019 15.8056 8.36696 15.7654 8.3261C15.7259 8.28599 15.7228 8.27954 15.677 8.27954C15.6312 8.27954 15.5318 8.27954 15.4876 8.27954C15.4435 8.27954 15.4426 8.2932 15.4798 8.33094C15.5279 8.37976 15.5421 8.399 15.4876 8.45438C15.4332 8.50965 15.4355 8.52814 15.4702 8.56341C15.5224 8.61632 15.5452 8.65244 15.4924 8.70621C15.4394 8.75986 15.4347 8.78395 15.475 8.82481C15.5152 8.86567 15.5192 8.9018 15.475 8.94664C15.441 8.98115 15.4387 9.00126 15.4387 9.06212C15.4387 9.42943 15.4387 10.4301 15.4387 10.7059C15.4387 10.9817 15.2429 11.1485 14.8706 11.1485C14.4981 11.1485 14.3719 10.9945 14.2645 10.8919C14.3339 11.3858 14.536 11.8285 15.0221 11.8285" fill="#514537"/>
<path fill-rule="evenodd" clip-rule="evenodd" d="M12.5714 9.67434C12.5714 9.67434 12.5715 9.57971 12.5715 9.4624L13.1268 9.67445L12.5714 9.67434" fill="#EEA339"/>
<path fill-rule="evenodd" clip-rule="evenodd" d="M11.9091 9.77297L10.6666 9.60276C10.7027 9.33222 10.771 9.06846 10.8692 8.81738L11.9091 9.23685V9.77297" fill="#EEA339"/>
<path fill-rule="evenodd" clip-rule="evenodd" d="M14.4762 7.69589L14.697 6.77417C14.9555 6.83783 15.2067 6.93374 15.4448 7.06019L14.7325 8.44557L14.735 7.74998C14.6528 7.75041 14.5267 7.73761 14.4762 7.69589" fill="#EEA339"/>
<path fill-rule="evenodd" clip-rule="evenodd" d="M11.9384 9.86298L10.6728 9.78491C10.6565 10.0546 10.6727 10.3267 10.7213 10.5952C10.7213 10.5952 11.9384 10.603 11.9384 10.5952V9.86298" fill="#EEA339"/>
<path fill-rule="evenodd" clip-rule="evenodd" d="M11.9258 8.99574C11.8849 8.94122 11.9102 8.91219 11.9543 8.88327C11.9985 8.85445 11.9922 8.83197 11.9702 8.79036C11.948 8.74864 11.9259 8.7037 11.967 8.65886C12.008 8.61391 11.9922 8.59466 11.9606 8.56262C11.9291 8.53058 11.9259 8.49531 11.9543 8.46961C11.9828 8.44391 11.9764 8.42466 11.9576 8.39907C11.9385 8.37337 11.9014 8.32133 11.9346 8.28767L11.4183 7.84961C11.2477 8.05692 11.1017 8.28574 10.9841 8.53111L11.9258 8.99574" fill="#EEA339"/>
<path fill-rule="evenodd" clip-rule="evenodd" d="M13.1627 9.23445L12.5474 8.62811C12.6342 8.53994 12.6428 8.52553 12.5813 8.46295C12.5143 8.39478 12.5118 8.38768 12.6483 8.24886C12.6949 8.20166 12.6689 8.16865 12.6026 8.16865C12.5364 8.16865 12.2317 8.16865 12.197 8.16865C12.1623 8.16865 12.135 8.17047 12.1096 8.19628L11.619 7.7137C11.8062 7.51789 12.0153 7.34703 12.2411 7.20435L13.1627 8.71026V9.23445" fill="#EEA339"/>
<path fill-rule="evenodd" clip-rule="evenodd" d="M12.5227 9.32685C12.5227 9.1762 12.5228 9.02706 12.5228 9.00588C12.5228 8.96093 12.5197 8.9433 12.485 8.90803C12.4503 8.87276 12.4676 8.85588 12.4945 8.81738L13.0782 9.31147V9.60158L12.5227 9.32685" fill="#EEA339"/>
<path fill-rule="evenodd" clip-rule="evenodd" d="M13.0695 8.44632C13.0695 8.15697 13.0695 7.88933 13.0695 7.73514C13.0695 7.27331 13.095 7.04234 13.1612 6.99589L13.1082 6.77417C12.8491 6.84503 12.5978 6.94094 12.3597 7.0674L13.0695 8.44632" fill="#EEA339"/>
<path fill-rule="evenodd" clip-rule="evenodd" d="M15.3489 9.67434C15.3489 9.67434 15.3488 9.57971 15.3488 9.4624L14.7936 9.67445L15.3489 9.67434" fill="#EEA339"/>
<path fill-rule="evenodd" clip-rule="evenodd" d="M15.9576 9.77297L17.2001 9.60276C17.164 9.33222 17.0957 9.06846 16.9975 8.81738L15.9576 9.23685V9.77297" fill="#EEA339"/>
<path fill-rule="evenodd" clip-rule="evenodd" d="M15.9576 9.86298L17.2231 9.78491C17.2394 10.0546 17.2234 10.3267 17.1746 10.5952C17.1746 10.5952 15.9576 10.603 15.9576 10.5952V9.86298" fill="#EEA339"/>
<path fill-rule="evenodd" clip-rule="evenodd" d="M15.9176 8.99574C15.9587 8.94122 15.9333 8.91219 15.8892 8.88327C15.8449 8.85445 15.8513 8.83197 15.8733 8.79036C15.8954 8.74864 15.9175 8.7037 15.8765 8.65886C15.8354 8.61391 15.8513 8.59466 15.8828 8.56262C15.9144 8.53058 15.9175 8.49531 15.8892 8.46961C15.8607 8.44391 15.8671 8.42466 15.8859 8.39907C15.9049 8.37337 15.942 8.32133 15.9089 8.28767L16.4252 7.84961C16.5957 8.05692 16.7417 8.28574 16.8592 8.53111L15.9176 8.99574" fill="#EEA339"/>
<path fill-rule="evenodd" clip-rule="evenodd" d="M14.7936 9.23445L15.4089 8.62811C15.322 8.53994 15.3134 8.52553 15.375 8.46295C15.442 8.39478 15.4445 8.38768 15.308 8.24886C15.2613 8.20166 15.2874 8.16865 15.3537 8.16865C15.4199 8.16865 15.7246 8.16865 15.7593 8.16865C15.794 8.16865 15.8213 8.17047 15.8467 8.19628L16.3373 7.7137C16.1501 7.51789 15.941 7.34703 15.7152 7.20435L14.7936 8.71026V9.23445" fill="#EEA339"/>
<path fill-rule="evenodd" clip-rule="evenodd" d="M15.349 9.32685C15.349 9.1762 15.3489 9.02706 15.3489 9.00588C15.3489 8.96093 15.3521 8.9433 15.3868 8.90803C15.4215 8.87276 15.4042 8.85588 15.3773 8.81738L14.7936 9.31147V9.60158L15.349 9.32685" fill="#EEA339"/>
<path fill-rule="evenodd" clip-rule="evenodd" d="M12.1481 9.03223C12.1702 9.0547 12.1797 9.07707 12.1797 9.13158C12.1797 9.1861 12.1797 10.3792 12.1797 10.8475C12.1797 11.4184 12.5206 11.7359 12.8709 11.7359C13.1928 11.7359 13.4044 11.4376 13.5148 11.0913C13.3728 11.2035 13.1645 11.2388 12.9655 11.2388C12.7352 11.2388 12.3628 11.0817 12.3628 10.7417C12.3628 10.4274 12.3628 9.26309 12.3628 9.07707C12.3628 9.03223 12.3185 9.03223 12.1481 9.03223" fill="#D82332"/>
<path fill-rule="evenodd" clip-rule="evenodd" d="M14.161 6.78402C13.7209 6.73875 13.3126 6.83176 13.3126 7.44186C13.3126 8.08337 13.3126 8.86584 13.3126 9.06283C13.3126 9.33348 13.2917 9.30133 13.5174 9.35821C13.9269 9.46143 13.9734 9.47455 14.4701 9.58982V7.94057C14.046 7.89337 13.8622 7.61111 13.8622 7.29853C13.8622 7.04982 13.9703 6.81574 14.161 6.78402" fill="#D82332"/>
<path fill-rule="evenodd" clip-rule="evenodd" d="M15.7371 9.03223C15.715 9.0547 15.7055 9.07707 15.7055 9.13158C15.7055 9.1861 15.7055 10.3792 15.7055 10.8475C15.7055 11.4184 15.3646 11.7359 15.0143 11.7359C14.6924 11.7359 14.4808 11.4376 14.3704 11.0913C14.5125 11.2035 14.7207 11.2388 14.9197 11.2388C15.15 11.2388 15.5224 11.0817 15.5224 10.7417C15.5224 10.4274 15.5224 9.26309 15.5224 9.07707C15.5224 9.03223 15.5667 9.03223 15.7371 9.03223" fill="#D82332"/>
<mask id="mask1" mask-type="alpha" maskUnits="userSpaceOnUse" x="10" y="6" width="8" height="8">
<path fill-rule="evenodd" clip-rule="evenodd" d="M14 13.3334C15.8409 13.3334 17.3333 11.841 17.3333 10.0001C17.3333 8.15913 15.8409 6.66675 14 6.66675C12.159 6.66675 10.6666 8.15913 10.6666 10.0001C10.6666 11.841 12.159 13.3334 14 13.3334Z" fill="white"/>
</mask>
<g mask="url(#mask1)">
<path fill-rule="evenodd" clip-rule="evenodd" d="M14 18.6667C15.8409 18.6667 17.3333 17.1743 17.3333 15.3333C17.3333 13.4924 15.8409 12 14 12C12.159 12 10.6666 13.4924 10.6666 15.3333C10.6666 17.1743 12.159 18.6667 14 18.6667Z" fill="#064A89"/>
</g>
</g>
</svg>
