<svg width="28" height="20" viewBox="0 0 28 20" fill="none" xmlns="http://www.w3.org/2000/svg">
<rect width="28" height="20" rx="2" fill="white"/>
<mask id="mask0" mask-type="alpha" maskUnits="userSpaceOnUse" x="0" y="0" width="28" height="20">
<rect width="28" height="20" rx="2" fill="white"/>
</mask>
<g mask="url(#mask0)">
<rect width="28" height="20" fill="#E42235"/>
<rect x="2.66663" y="2.66675" width="22.6667" height="14.6667" fill="#079B77"/>
<mask id="mask1" mask-type="alpha" maskUnits="userSpaceOnUse" x="2" y="2" width="24" height="16">
<rect x="2.66663" y="2.66675" width="22.6667" height="14.6667" fill="white"/>
</mask>
<g mask="url(#mask1)">
<path fill-rule="evenodd" clip-rule="evenodd" d="M4.3931 10.1319C4.7706 10.736 5.31257 11.1348 5.81738 11.2372C6.09529 11.2935 5.58646 10.019 5.80819 9.88042C5.99738 9.7622 6.90764 10.8221 6.98735 10.601C7.17075 10.0922 7.06256 9.37173 6.65456 8.71879C6.06923 7.78206 6.04637 8.40031 4.46399 7.72925C4.62944 8.68893 3.80776 9.19518 4.3931 10.1319V10.1319Z" fill="#FFD938"/>
<path fill-rule="evenodd" clip-rule="evenodd" d="M14 10.0001L25.3333 2.66675H2.66663L14 10.0001ZM14 10.0001L2.66663 17.3334H25.3333L14 10.0001Z" fill="#FFD93B"/>
<path fill-rule="evenodd" clip-rule="evenodd" d="M14 13.3334C15.8409 13.3334 17.3333 11.841 17.3333 10.0001C17.3333 8.15913 15.8409 6.66675 14 6.66675C12.159 6.66675 10.6666 8.15913 10.6666 10.0001C10.6666 11.841 12.159 13.3334 14 13.3334Z" fill="url(#paint0_linear)"/>
<path fill-rule="evenodd" clip-rule="evenodd" d="M13.9999 11.0286L12.4325 12.1575L13.0219 10.318L11.4638 9.17612L13.3954 9.16817L13.9999 7.3335L14.6044 9.16817L16.5361 9.17612L14.978 10.318L15.5673 12.1575L13.9999 11.0286Z" fill="#FFD938"/>
</g>
</g>
<defs>
<linearGradient id="paint0_linear" x1="10.6666" y1="6.66675" x2="10.6666" y2="13.3334" gradientUnits="userSpaceOnUse">
<stop stop-color="#E21C30"/>
<stop offset="1" stop-color="#CE1225"/>
</linearGradient>
</defs>
</svg>
