<svg width="28" height="20" viewBox="0 0 28 20" fill="none" xmlns="http://www.w3.org/2000/svg">
<rect width="28" height="20" rx="2" fill="#D01129"/>
<mask id="mask0" mask-type="alpha" maskUnits="userSpaceOnUse" x="0" y="0" width="28" height="20">
<rect width="28" height="20" rx="2" fill="white"/>
</mask>
<g mask="url(#mask0)">
<path fill-rule="evenodd" clip-rule="evenodd" d="M13.8883 10.041C14.5492 10.041 15.085 9.47841 15.085 8.78459C15.085 8.09064 14.5492 7.52808 13.8883 7.52808C13.2273 7.52808 12.6917 8.09064 12.6917 8.78459C12.6917 9.47841 13.2273 10.041 13.8883 10.041" fill="#FFF101"/>
<path fill-rule="evenodd" clip-rule="evenodd" d="M12.7974 8.27937C13.1363 8.16586 13.576 8.29797 13.8653 8.58946C14.1724 8.53075 14.4803 8.12586 14.5757 7.76537C14.4709 6.56745 13.7246 5.65992 13.4976 5.03717C13.4258 4.84035 13.0931 4.53087 12.7471 4.67497C12.4626 4.7935 12.3187 4.70127 11.3631 5.2017C10.8464 5.47228 10.4115 5.7502 10.1823 5.79864C9.95306 5.84708 9.7112 5.89026 9.52782 5.73943C9.27559 5.53197 8.99271 5.4746 8.82611 5.31827C8.62199 5.12671 8.49104 4.98212 8.35298 4.92353C8.21493 4.86482 7.98122 4.99521 8.0799 5.30555C8.30254 6.00647 8.82739 6.11998 9.05271 6.77515C9.15908 7.08488 9.3103 7.31766 9.64829 7.08292C9.98627 6.84818 10.4639 6.53638 11.2783 6.50359C11.8252 6.48145 12.3903 6.27032 12.65 5.9239C12.6475 6.22359 12.7481 6.46922 12.7216 6.85907C12.6951 7.24904 12.6993 7.73405 12.7974 8.27937" fill="white"/>
<path fill-rule="evenodd" clip-rule="evenodd" d="M13.4381 8.31217C13.3377 7.72244 13.5198 7.63743 13.3024 6.94617C13.1717 6.53051 13.0881 6.00954 13.086 5.76709L12.9987 5.79376C13.0008 6.0362 13.0844 6.5573 13.215 6.97296C13.4253 7.64134 13.2618 7.74287 13.3418 8.2822C13.3665 8.28746 13.4183 8.30483 13.4381 8.31217" fill="#FFF101"/>
<path fill-rule="evenodd" clip-rule="evenodd" d="M12.9236 8.2475C12.9243 8.17251 12.9198 8.09423 12.9087 8.02695C13.0624 7.98817 13.3256 8.13728 13.3182 8.02646C13.316 7.99135 13.3194 7.87783 13.3215 7.81765C13.3181 7.91172 12.9522 7.75294 12.8891 7.79392C12.8215 7.4508 12.9053 7.09777 12.8516 6.88236C12.9738 6.84725 13.1985 6.92383 13.171 6.82328C13.1554 6.77178 13.1255 6.64371 13.1058 6.56358C13.1251 6.6475 12.9467 6.57802 12.8863 6.62597C12.855 6.43991 12.8092 6.08689 12.8102 5.92554L12.6501 5.92383C12.6475 6.22352 12.7482 6.46915 12.7216 6.859C12.6952 7.24897 12.6994 7.73398 12.7975 8.2793C12.8325 8.26854 12.8903 8.25471 12.9236 8.2475" fill="#FFF101"/>
<path fill-rule="evenodd" clip-rule="evenodd" d="M12.5193 5.50821C12.2807 5.86992 11.7108 6.11958 11.1838 6.17475C10.567 6.23934 10.153 6.45487 9.84809 6.66588C9.82188 6.61634 9.77458 6.58967 9.73275 6.55701C9.28665 6.2101 9.47003 5.74001 9.63897 5.80717C9.57524 5.78123 9.53819 5.74625 9.50335 5.71995C9.4444 5.67408 9.2743 5.84986 9.29563 6.129C9.30471 6.2479 9.40164 6.42331 9.48052 6.51628C9.33652 6.48876 9.26755 6.4501 9.18296 6.34282C9.2305 6.31175 9.29201 6.29414 9.34164 6.2901C9.32475 6.24753 9.30122 6.20032 9.29563 6.129C9.22514 6.12839 9.13916 6.1542 9.06541 6.2068C8.88844 6.02172 8.70623 5.87408 8.60056 5.65561C8.43151 5.30564 8.60347 5.08472 8.82611 5.31836C8.62199 5.1268 8.49104 4.98221 8.35298 4.92362C8.21493 4.8649 7.98122 4.9953 8.0799 5.30564C8.30254 6.00655 8.82739 6.12007 9.05271 6.77524C9.15908 7.08496 9.3159 7.32631 9.64829 7.08301C9.69209 7.05096 9.70374 7.04337 9.74184 7.015C9.84728 6.95102 10.0143 7.05842 9.99652 7.29194C10.0819 7.0775 10.0274 7.01181 9.95493 6.88325C9.90133 6.91322 9.90564 6.73769 9.87256 6.71457C10.0622 6.59078 10.2929 6.46662 10.5839 6.37818C10.5947 6.48301 10.6221 6.59432 10.7141 6.57818C10.7634 6.56668 10.8133 6.55628 10.8659 6.54711C10.774 6.56325 10.7481 6.44142 10.7375 6.33671C10.8754 6.30344 11.0262 6.27824 11.1914 6.26405C11.3818 6.24766 11.5785 6.20704 11.7633 6.14405C11.7908 6.2446 11.8477 6.41402 11.9424 6.38074C12.0264 6.35249 12.1081 6.32056 12.1847 6.2835C12.0529 6.34943 12.0011 6.16117 11.9694 6.0616C12.2102 5.95163 12.4154 5.80166 12.5381 5.6227L12.5193 5.50821" fill="#FFF101"/>
<path fill-rule="evenodd" clip-rule="evenodd" d="M13.5733 5.68771C13.6896 5.59304 13.7894 5.54826 13.6891 5.34778C13.5251 5.01995 13.627 5.01882 13.2678 4.81026C12.902 4.59815 12.9482 4.58151 12.4641 4.76072C12.3451 4.80475 12.3716 4.84977 12.3925 5.03105C12.4373 5.42176 12.5226 5.73639 12.6006 6.05786C12.9049 6.01614 13.373 5.85102 13.5733 5.68771Z" fill="#FFF101"/>
<path fill-rule="evenodd" clip-rule="evenodd" d="M12.4377 5.59881C12.3738 5.407 12.3909 5.43306 12.6223 5.49153C12.6981 5.23869 12.8026 5.02528 12.8612 4.82063C12.9267 4.59152 12.9472 4.5503 13.0436 4.60644C13.1668 4.67813 13.3022 4.75384 13.3904 4.79935C13.5444 4.87861 13.5217 4.90638 13.4482 5.03238C13.3747 5.15837 13.1342 5.41373 12.9859 5.68015C13.1815 5.82474 13.2443 5.83783 13.1054 5.90009C12.9498 5.9697 12.6914 6.05593 12.5826 6.07636C12.5627 5.95049 12.4984 5.78071 12.4377 5.59881Z" fill="#FFF101"/>
<path fill-rule="evenodd" clip-rule="evenodd" d="M10.141 7.40263L10.1257 7.59994L9.98713 7.46783L9.83218 7.57829L9.84243 7.38134L9.66406 7.32471L9.81645 7.20997L9.74923 7.02697L9.92806 7.08177L10.0225 6.91235L10.0943 7.09327L10.2789 7.06404L10.1885 7.23663L10.3245 7.36997L10.141 7.40263" fill="#FFF101"/>
<path fill-rule="evenodd" clip-rule="evenodd" d="M14.0171 10.029C13.7539 9.7775 13.643 9.31169 13.7388 8.90288C13.5368 8.65309 13.0489 8.57542 12.7038 8.66887C11.7682 9.36331 11.3928 10.4957 10.9926 11.0135C10.8661 11.1771 10.7772 11.6343 11.0691 11.8769C11.3091 12.0763 11.3051 12.2532 12.1955 12.8719C12.677 13.2065 13.1237 13.463 13.2783 13.6472C13.433 13.8314 13.5895 14.0299 13.5568 14.2719C13.5118 14.605 13.6058 14.891 13.5602 15.1205C13.5042 15.4018 13.4505 15.5933 13.4711 15.7481C13.4919 15.903 13.7161 16.0503 13.9228 15.8054C14.3895 15.2525 14.2208 14.7185 14.6486 14.1861C14.8508 13.9344 14.9673 13.6805 14.6047 13.4905C14.242 13.3007 13.7461 13.0221 13.3117 12.2982C13.0201 11.812 12.5634 11.4036 12.1477 11.3407C12.3962 11.1933 12.5486 10.9788 12.8835 10.808C13.2183 10.6371 13.6163 10.391 14.0171 10.029" fill="white"/>
<path fill-rule="evenodd" clip-rule="evenodd" d="M13.7237 9.42993C13.2876 9.81611 13.1264 9.69293 12.6649 10.2363C12.3875 10.563 11.9995 10.8995 11.8005 11.0226L11.8662 11.0886C12.0652 10.9656 12.4532 10.6291 12.7307 10.3023C13.1769 9.77697 13.3424 9.87482 13.7473 9.53244C13.7393 9.50749 13.7275 9.45158 13.7237 9.42993" fill="#FFF101"/>
<path fill-rule="evenodd" clip-rule="evenodd" d="M13.9276 9.93036C13.8655 9.96718 13.8031 10.0105 13.7532 10.0541C13.6444 9.93378 13.6357 9.6199 13.5481 9.68216C13.5202 9.70149 13.4249 9.75531 13.3741 9.78344C13.4535 9.73953 13.5054 10.1516 13.5707 10.1885C13.3215 10.4216 12.9884 10.5218 12.8377 10.6784C12.7476 10.5847 12.6985 10.3423 12.6292 10.4176C12.5946 10.4575 12.5039 10.5486 12.4476 10.6066C12.5073 10.5471 12.5391 10.7441 12.6087 10.7749C12.471 10.8965 12.2027 11.1146 12.0691 11.1945L12.1477 11.3409C12.3962 11.1935 12.5486 10.979 12.8835 10.8082C13.2183 10.6373 13.6163 10.3912 14.0171 10.0292C13.9906 10.0026 13.9502 9.95702 13.9276 9.93036" fill="#FFF101"/>
<path fill-rule="evenodd" clip-rule="evenodd" d="M11.8702 11.6675C12.2879 11.7036 12.7787 12.097 13.0877 12.5486C13.4493 13.0772 13.8343 13.3458 14.1607 13.5176C14.133 13.5662 14.1346 13.6225 14.1287 13.677C14.0655 14.256 13.5861 14.3243 13.557 14.1371C13.5675 14.2081 13.5571 14.2592 13.5529 14.3041C13.5445 14.3807 13.7746 14.4473 13.9941 14.2884C14.0877 14.2207 14.1838 14.0449 14.2212 13.9267C14.2704 14.0713 14.2729 14.1534 14.2269 14.2839C14.1774 14.2563 14.1322 14.2091 14.104 14.1661C14.0773 14.2027 14.0502 14.2477 13.9941 14.2884C14.0288 14.3529 14.0932 14.4181 14.1734 14.4588C14.1092 14.7123 14.0786 14.9518 13.9511 15.1571C13.7471 15.4858 13.4788 15.4399 13.5603 15.1206C13.5042 15.402 13.4505 15.5934 13.4711 15.7483C13.4919 15.9031 13.7161 16.0504 13.9228 15.8055C14.3895 15.2526 14.2208 14.7187 14.6486 14.1862C14.8508 13.9346 14.9716 13.6713 14.6047 13.4907C14.5563 13.4669 14.5443 13.4602 14.5019 13.4396C14.3963 13.3758 14.4014 13.1702 14.6029 13.0696C14.3834 13.0992 14.3565 13.1817 14.2867 13.3118C14.338 13.3455 14.1911 13.4294 14.1886 13.4711C13.9917 13.3605 13.774 13.2129 13.5555 12.9923C13.6367 12.9303 13.7147 12.8495 13.6553 12.7741C13.6212 12.7351 13.5876 12.6947 13.5537 12.6515C13.6132 12.7271 13.5257 12.8114 13.4445 12.8735C13.3481 12.7648 13.252 12.6403 13.1576 12.4971C13.0489 12.3321 12.917 12.1736 12.7727 12.0371C12.8419 11.9617 12.9532 11.8255 12.8784 11.7558C12.8131 11.6936 12.7459 11.6352 12.677 11.5842C12.7973 11.6711 12.6678 11.8124 12.6017 11.8909C12.3904 11.727 12.1642 11.6153 11.9553 11.5934L11.8702 11.6675" fill="#FFF101"/>
<path fill-rule="evenodd" clip-rule="evenodd" d="M11.3219 10.6979C11.1856 10.6395 11.2528 10.5607 11.1376 10.7521C10.9492 11.0651 10.9128 10.9931 10.9205 11.424C10.9283 11.8625 11.0094 11.7926 11.3994 12.1431C11.6991 11.9072 12.0569 11.5505 12.283 11.3188C12.0965 11.063 11.5566 10.7986 11.3219 10.6979Z" fill="#FFF101"/>
<path fill-rule="evenodd" clip-rule="evenodd" d="M11.986 11.6964C11.8597 11.8504 11.8726 11.8219 11.8051 11.5821C11.5587 11.6396 11.3687 11.706 11.1707 11.7551C10.9489 11.81 10.9047 11.812 10.9028 11.6964C10.9003 11.5484 10.8952 11.3875 10.8885 11.2845C10.877 11.1049 10.9112 11.1116 11.0519 11.1155C11.1926 11.1193 11.485 11.1556 11.7789 11.1572C11.8004 10.907 11.7797 10.8434 11.9007 10.9387C12.0357 11.0453 12.2361 11.2372 12.3074 11.3259C12.2135 11.4068 12.1057 11.5503 11.986 11.6964Z" fill="#FFF101"/>
<path fill-rule="evenodd" clip-rule="evenodd" d="M14.622 12.883L14.7925 12.7982L14.7528 12.9902L14.9215 13.0759L14.7538 13.165L14.7962 13.3555L14.6253 13.2743L14.508 13.427L14.4638 13.2369L14.2768 13.2357L14.3903 13.0801L14.2738 12.9269L14.4615 12.9228L14.5034 12.7324L14.622 12.883" fill="#FFF101"/>
<path fill-rule="evenodd" clip-rule="evenodd" d="M14.8504 8.04526C14.7747 8.41015 14.4458 8.74398 14.0607 8.86129C13.9556 9.16979 14.1355 9.65211 14.3852 9.91939C15.4257 10.4229 16.5475 10.198 17.1747 10.303C17.373 10.3361 17.7945 10.1884 17.8487 9.80171C17.8932 9.48379 18.041 9.39915 18.1061 8.28C18.1413 7.67486 18.1295 7.14043 18.2042 6.90777C18.2789 6.67511 18.3643 6.43352 18.5803 6.34226C18.8775 6.21664 19.0664 5.98801 19.2786 5.91474C19.5386 5.82496 19.7233 5.77811 19.8407 5.68196C19.9581 5.58581 19.9674 5.30814 19.6622 5.24269C18.9727 5.09468 18.6167 5.51511 17.9635 5.3923C17.6549 5.33431 17.3872 5.35523 17.4119 5.78006C17.4366 6.20477 17.4549 6.79499 17.0748 7.55181C16.8196 8.06018 16.7111 8.67963 16.867 9.08905C16.6212 8.93676 16.3681 8.90545 16.0598 8.68648C15.7514 8.4674 15.3494 8.22875 14.8504 8.04526" fill="white"/>
<path fill-rule="evenodd" clip-rule="evenodd" d="M14.5029 8.61136C15.0396 8.81478 15.0186 9.02298 15.6975 9.17099C16.1057 9.25992 16.5772 9.44438 16.7783 9.56377L16.7998 9.47093C16.5989 9.35154 16.1272 9.1672 15.7191 9.07815C15.0626 8.93503 15.0606 8.73564 14.5757 8.53857C14.5592 8.55851 14.5189 8.59705 14.5029 8.61136" fill="#FFF101"/>
<path fill-rule="evenodd" clip-rule="evenodd" d="M14.8135 8.17581C14.875 8.21385 14.9419 8.24884 15.0028 8.27257C14.9581 8.43159 14.7034 8.59648 14.7986 8.64504C14.8285 8.66082 14.9205 8.72052 14.969 8.75257C14.8932 8.70229 15.2071 8.44908 15.2048 8.37116C15.5219 8.48125 15.7709 8.7341 15.9755 8.79293C15.9434 8.92162 15.7679 9.08749 15.8646 9.11281C15.9148 9.12431 16.0354 9.16125 16.1114 9.18339C16.0325 9.15893 16.1791 9.03147 16.1696 8.95281C16.3388 9.01715 16.6528 9.15208 16.7855 9.23367L16.8669 9.08896C16.6211 8.93666 16.368 8.90535 16.0598 8.68639C15.7514 8.46731 15.3493 8.22865 14.8503 8.04517C14.8417 8.08235 14.8242 8.14192 14.8135 8.17581" fill="#FFF101"/>
<path fill-rule="evenodd" clip-rule="evenodd" d="M17.2752 9.17798C17.0961 8.78019 17.1752 8.13713 17.3933 7.63034C17.6485 7.03719 17.6776 6.55291 17.6559 6.17028C17.71 6.17126 17.7555 6.14153 17.8035 6.11976C18.3127 5.88771 18.6087 6.28942 18.4688 6.40942C18.5221 6.36441 18.5695 6.34838 18.6086 6.32979C18.6759 6.29896 18.6159 6.05652 18.3751 5.93639C18.2725 5.88514 18.0794 5.88563 17.9631 5.9107C18.058 5.79364 18.1243 5.75034 18.255 5.72697C18.257 5.78581 18.2407 5.85052 18.2192 5.89762C18.2628 5.90349 18.3135 5.90569 18.3751 5.93639C18.4109 5.87254 18.4325 5.78153 18.426 5.68807C18.6672 5.61982 18.88 5.52795 19.113 5.54116C19.4862 5.56233 19.5826 5.82924 19.2786 5.91474C19.5385 5.82496 19.7233 5.77811 19.8406 5.68196C19.9581 5.58581 19.9674 5.30814 19.6621 5.24269C18.9727 5.09468 18.6166 5.51511 17.9635 5.3923C17.6549 5.33431 17.3774 5.35609 17.4118 5.78006C17.4164 5.83596 17.4168 5.85028 17.4212 5.89908C17.4212 6.02704 17.2491 6.12514 17.0655 5.99217C17.1996 6.17713 17.281 6.16037 17.4233 6.15878C17.4254 6.09505 17.568 6.18667 17.6036 6.1682C17.6109 6.40257 17.5979 6.67437 17.5253 6.98324C17.4335 6.94055 17.3281 6.90985 17.2953 7.00159C17.2802 7.05211 17.2638 7.10275 17.2451 7.15511C17.2777 7.06337 17.3911 7.10092 17.4828 7.14361C17.4413 7.28563 17.3867 7.43535 17.3158 7.59266C17.2341 7.77395 17.1693 7.97309 17.1288 8.17272C17.0321 8.1474 16.864 8.11437 16.844 8.21725C16.8254 8.30765 16.8108 8.39792 16.8031 8.48612C16.8146 8.33333 16.9958 8.38031 17.0938 8.40122C17.0642 8.67523 17.0852 8.93676 17.1715 9.13786L17.2752 9.17798" fill="#FFF101"/>
<path fill-rule="evenodd" clip-rule="evenodd" d="M16.5587 10.0094C16.5787 10.1626 16.5657 10.2757 16.7812 10.2847C17.1336 10.2995 17.105 10.3451 17.4566 10.1227C17.8144 9.8963 17.8239 9.94101 17.9182 9.41122C17.9414 9.28095 17.8909 9.28254 17.731 9.21085C17.3864 9.05624 17.0853 9.0668 16.7812 8.97689C16.6634 9.2745 16.5242 9.74572 16.5587 10.0094Z" fill="#FFF101"/>
<path fill-rule="evenodd" clip-rule="evenodd" d="M17.2412 9.05845C17.4314 9.09613 17.4014 9.09869 17.2375 9.27998C17.4081 9.47521 17.5388 9.61257 17.6784 9.76816C17.8346 9.94235 17.8582 9.9815 17.7639 10.0411C17.6431 10.1173 17.513 10.2024 17.4314 10.26C17.2889 10.3603 17.2773 10.3258 17.2101 10.1959C17.1429 10.0661 17.0456 9.7842 16.9001 9.51631C16.6829 9.62175 16.6407 9.67239 16.6589 9.51484C16.6793 9.33869 16.7374 9.06053 16.7749 8.95142C16.8886 8.99619 17.0608 9.02249 17.2412 9.05845Z" fill="#FFF101"/>
<path fill-rule="evenodd" clip-rule="evenodd" d="M16.9019 6.06832L16.7468 5.95566L16.9251 5.89572L16.9113 5.69952L17.0686 5.80741L17.2047 5.67358L17.2231 5.86955L17.4076 5.89988L17.273 6.03517L17.3655 6.20569L17.1803 6.18037L17.1122 6.36288L17.015 6.19432L16.837 6.25144L16.9019 6.06832" fill="#FFF101"/>
<path fill-rule="evenodd" clip-rule="evenodd" d="M13.8602 8.59502C13.5706 8.30317 13.1333 8.17491 12.7996 8.2867L12.7902 8.28083C12.7025 7.7935 12.6828 7.32282 12.7143 6.85856C12.7265 6.67897 12.7159 6.54752 12.6808 6.31313C12.6662 6.21592 12.6642 6.20232 12.659 6.16208C12.6487 6.08135 12.6432 6.01301 12.6427 5.94559C12.3864 6.27055 11.8443 6.48837 11.2785 6.51127C10.6093 6.53821 10.1913 6.71492 9.65225 7.08934C9.35276 7.29735 9.18173 7.17356 9.04582 6.77779C8.95582 6.5161 8.84607 6.36504 8.58284 6.08697L8.56259 6.06558C8.2869 5.77424 8.16706 5.6043 8.07294 5.30801C7.98505 5.03161 8.17493 4.83962 8.35566 4.91648C8.36797 4.92171 8.38032 4.92764 8.3928 4.93432C8.451 4.96545 8.51073 5.01147 8.58976 5.0836C8.61683 5.10831 8.69615 5.18407 8.75757 5.24274L8.75759 5.24276L8.7576 5.24277C8.79127 5.27493 8.81956 5.30196 8.83091 5.31261C8.83992 5.32106 8.84921 5.32923 8.85894 5.33722C8.84513 5.32811 8.83076 5.32216 8.81605 5.31915L8.74758 5.25387C8.6862 5.19524 8.60713 5.11972 8.58021 5.09514C8.50199 5.02376 8.44312 4.97839 8.38619 4.94794C8.37408 4.94147 8.36211 4.93571 8.3502 4.93066C8.18109 4.85874 8.00277 5.03904 8.08676 5.30317C8.17999 5.59669 8.29869 5.765 8.57292 6.0548L8.59317 6.0762C8.85779 6.35573 8.9686 6.50826 9.05951 6.7726C9.1927 7.1604 9.3547 7.27767 9.64422 7.07658C10.1853 6.70076 10.6056 6.52306 11.278 6.49599C11.8496 6.47285 12.3967 6.24947 12.6443 5.91921L12.6573 5.92401C12.6566 5.99778 12.6621 6.0713 12.6735 6.16003C12.6786 6.20011 12.6806 6.21368 12.6952 6.31075C12.7305 6.5462 12.7411 6.67863 12.7288 6.85965C12.6976 7.31998 12.7169 7.78659 12.803 8.26955L12.7952 8.27213L12.8045 8.27799L12.803 8.26955C13.141 8.16057 13.5792 8.29068 13.8639 8.58198C14.1515 8.527 14.4675 8.14573 14.5684 7.76611C14.5186 7.19635 14.3346 6.68115 14.0037 6.04829C13.9527 5.95063 13.8133 5.69438 13.7456 5.57005L13.7085 5.50171C13.603 5.30445 13.5365 5.16543 13.4908 5.03995C13.396 4.78012 13.0418 4.56048 12.7497 4.68212C12.71 4.69867 12.6713 4.71186 12.629 4.72371C12.6019 4.7313 12.5743 4.73811 12.5365 4.74676C12.1476 4.83578 11.9324 4.91214 11.3663 5.20858L11.3185 5.23374C11.2097 5.29134 10.9476 5.43603 10.7845 5.52609L10.7843 5.52618C10.7151 5.56438 10.6638 5.59273 10.6495 5.6004C10.4254 5.72116 10.285 5.78476 10.1837 5.80617C9.84877 5.87694 9.67942 5.87391 9.52328 5.74549C9.47411 5.70505 9.42155 5.66848 9.36366 5.63363C9.34872 5.62463 9.33356 5.61583 9.31792 5.60704L9.32256 5.60131L9.32053 5.59117C9.33781 5.60082 9.35448 5.61047 9.37091 5.62036C9.42938 5.65556 9.48251 5.69254 9.53226 5.73346C9.68384 5.85813 9.84995 5.8611 10.1809 5.79118C10.2804 5.77015 10.4199 5.7069 10.6429 5.5868C10.657 5.57915 10.7083 5.55087 10.7773 5.51275L10.7775 5.51268L10.7775 5.51265C10.9406 5.42262 11.203 5.27778 11.312 5.22008L11.3598 5.1949C11.927 4.89786 12.1434 4.8211 12.5334 4.73182C12.571 4.72322 12.5984 4.71645 12.6253 4.70893C12.6671 4.69723 12.7052 4.68423 12.7443 4.6679C13.0448 4.54279 13.407 4.76736 13.5044 5.03448C13.5498 5.15911 13.6161 5.29757 13.7212 5.49422L13.7582 5.56228C13.8258 5.6865 13.9654 5.94309 14.0165 6.04093C14.3482 6.67547 14.5329 7.19247 14.5827 7.76745C14.4801 8.15497 14.1604 8.54085 13.8602 8.59502ZM9.30493 5.58256L9.32053 5.59117L9.32019 5.58948C9.31511 5.58689 9.31002 5.58458 9.30493 5.58256ZM9.25224 5.57168C9.26972 5.57197 9.28732 5.57556 9.30493 5.58256C9.27825 5.56797 9.24991 5.55324 9.21866 5.53759C9.20349 5.52999 9.16984 5.51353 9.13852 5.49823L9.13815 5.49508C9.12576 5.48919 9.11366 5.48425 9.10181 5.48029L9.07363 5.4665C8.98205 5.42106 8.9195 5.38498 8.86898 5.34528L8.869 5.3445C8.86568 5.34188 8.86233 5.33945 8.85894 5.33722L8.86898 5.34528L8.86866 5.35697L8.86385 5.36034C8.85967 5.3571 8.85558 5.35385 8.85155 5.35056L8.85165 5.35049C8.85455 5.35241 8.85742 5.35448 8.86025 5.35672L8.86059 5.34424L8.85165 5.35049C8.85134 5.35028 8.85102 5.35007 8.8507 5.34987C8.84047 5.34148 8.83069 5.3329 8.82121 5.32401L8.81605 5.31915C8.7225 5.29997 8.6155 5.39953 8.55471 5.55976L8.56552 5.56896L8.86385 5.36034C8.91029 5.39629 8.96654 5.42938 9.04485 5.46903C8.93093 5.46348 8.83524 5.5698 8.71299 5.8419L8.72408 5.85117L9.13387 5.51283C9.16474 5.52791 9.19752 5.54394 9.21239 5.55139C9.22621 5.55831 9.23946 5.56505 9.25224 5.57168ZM9.29917 5.59665C9.28413 5.58841 9.26856 5.58014 9.25224 5.57168C9.12235 5.56953 8.99876 5.74964 8.92466 6.07027L8.93728 6.07703L9.31792 5.60704L9.30474 5.59971L9.3052 5.59914L9.31383 5.60323L9.31147 5.5914L9.3052 5.59914L9.29917 5.59665ZM8.94642 6.04214C9.02948 5.70808 9.1662 5.54492 9.29917 5.59665L9.30474 5.59971L8.94642 6.04214ZM8.94642 6.04214L8.93881 6.07388L8.92618 6.06712L8.94642 6.04214ZM9.11906 5.5056L9.13387 5.51283L9.13965 5.50805L9.13852 5.49823L9.1191 5.48875L9.10181 5.48029C9.08221 5.47376 9.06329 5.46992 9.04485 5.46903L9.0674 5.48033L9.09673 5.49468C8.96907 5.45273 8.87162 5.53363 8.73963 5.81888L8.71508 5.83915L8.72616 5.84842L8.73963 5.81888L9.11906 5.5056ZM9.12104 5.50397C9.11281 5.5004 9.10471 5.4973 9.09673 5.49468L9.11308 5.50268L9.11906 5.5056L9.12104 5.50397ZM9.12104 5.50397L9.13215 5.50901L9.13065 5.49603L9.12104 5.50397ZM8.57759 5.54214L8.85155 5.35056C8.85127 5.35033 8.85098 5.3501 8.8507 5.34987C8.76306 5.29309 8.64651 5.37959 8.57759 5.54214ZM8.57759 5.54214L8.55744 5.55623L8.56824 5.56542C8.57125 5.5575 8.57437 5.54974 8.57759 5.54214Z" fill="black"/>
<path fill-rule="evenodd" clip-rule="evenodd" d="M13.4174 7.76058C13.4071 7.98662 13.4107 8.10825 13.4452 8.31089L13.4356 8.31945C13.4246 8.31537 13.4104 8.31049 13.3956 8.30542C13.3735 8.29784 13.3502 8.28984 13.3345 8.28344C13.3081 8.10575 13.306 7.9951 13.3155 7.78646L13.3175 7.74312C13.329 7.47504 13.3087 7.29549 13.208 6.97543C13.0866 6.58915 12.9936 6.0619 12.9965 5.78648L13.0932 5.76709C13.0955 6.03362 13.1882 6.55918 13.3092 6.94384C13.4105 7.26586 13.431 7.44729 13.4194 7.71717L13.4174 7.76058ZM13.4404 8.30503L13.4308 8.31358C13.4301 8.30928 13.4294 8.30502 13.4287 8.30079C13.4329 8.30226 13.4368 8.30369 13.4404 8.30503ZM13.3431 8.27477C13.3617 8.27873 13.4005 8.29087 13.4287 8.30079C13.396 8.10439 13.3927 7.98215 13.4029 7.75985L13.4049 7.71648C13.4164 7.44837 13.3961 7.26879 13.2954 6.94864C13.174 6.56256 13.081 6.03545 13.088 5.7745L13.0058 5.79376C13.0081 6.06007 13.1009 6.58578 13.2218 6.97063C13.3231 7.29256 13.3437 7.47396 13.332 7.74381L13.3301 7.78719C13.3206 7.9949 13.3227 8.10462 13.3431 8.27477Z" fill="black"/>
<path fill-rule="evenodd" clip-rule="evenodd" d="M11.7187 5.01074C11.6371 5.04748 11.6378 5.17771 11.7037 5.38056C11.7565 5.54278 11.8499 5.74658 11.9622 5.95475L11.9756 5.94893L11.7286 5.01572L11.7187 5.01074ZM12.9158 8.02576C12.9265 8.09075 12.9316 8.16855 12.9309 8.24769L12.925 8.2551L12.9001 8.26063C12.8637 8.26879 12.8223 8.27805 12.7902 8.28084C12.7026 7.79351 12.6828 7.32283 12.7143 6.85857C12.7265 6.67897 12.716 6.54753 12.6808 6.31314C12.6662 6.21592 12.6642 6.20232 12.6591 6.16208C12.6476 6.07268 12.6421 5.99846 12.6501 5.9163L12.8174 5.9257C12.8166 6.06403 12.8531 6.3821 12.8916 6.61352C12.9123 6.60201 12.9414 6.59887 12.9871 6.59975L13.0058 6.60023C13.0485 6.60145 13.0649 6.60101 13.0799 6.59685C13.0971 6.59207 13.1028 6.58339 13.0987 6.56549L13.1128 6.56179C13.1179 6.58253 13.1403 6.67504 13.1389 6.66936L13.1409 6.67781C13.1585 6.75013 13.17 6.79505 13.1779 6.82129C13.1871 6.85498 13.1718 6.87463 13.1367 6.88176C13.1119 6.8868 13.0878 6.88656 13.0184 6.88279C12.9982 6.88168 12.9868 6.88113 12.9743 6.88069C12.9416 6.87954 12.9147 6.88 12.8929 6.88036C12.8796 6.88058 12.8682 6.88078 12.8586 6.88054C12.8802 6.96718 12.8815 7.04596 12.8732 7.26786C12.8651 7.48341 12.8662 7.59356 12.8846 7.72369C12.8875 7.74378 12.8907 7.76351 12.8944 7.78293C12.9217 7.77256 12.9703 7.7811 13.0939 7.81014L13.1023 7.8121C13.1779 7.82982 13.2174 7.83758 13.2519 7.83987C13.2934 7.84265 13.3135 7.83518 13.3142 7.81755L13.3132 7.84619C13.3001 7.8544 13.279 7.85701 13.2509 7.85513C13.2154 7.85277 13.1755 7.84493 13.0991 7.82702L13.0907 7.82506C12.9602 7.79437 12.9134 7.78722 12.8929 7.80054L12.882 7.79559C12.8775 7.77281 12.8736 7.74961 12.8702 7.72594C12.8516 7.59457 12.8505 7.48373 12.8587 7.26725C12.8669 7.04712 12.8656 6.96897 12.8496 6.8751C12.8817 6.8659 12.9206 6.86351 12.9748 6.86541C12.9874 6.86585 12.9988 6.86641 13.0192 6.86752C13.087 6.87121 13.1108 6.87145 13.1339 6.86675C13.1614 6.86117 13.1705 6.84951 13.164 6.82571C13.156 6.79929 13.1445 6.75423 13.1268 6.68159L13.1248 6.67313C13.1257 6.67708 13.1149 6.63229 13.1067 6.59828C13.1141 6.58957 13.1164 6.57747 13.1129 6.56191L13.0987 6.56561L13.1067 6.59828C13.1014 6.60438 13.0937 6.60883 13.0836 6.61163C13.0667 6.61633 13.0498 6.61679 13.0054 6.61551L12.9869 6.61504C12.9368 6.61408 12.9083 6.61821 12.8907 6.63218L12.8791 6.62742C12.8399 6.39432 12.802 6.06735 12.81 5.9333L12.6573 5.92401C12.6567 5.99778 12.6621 6.07131 12.6735 6.16004C12.6786 6.20012 12.6806 6.21369 12.6952 6.31076C12.7305 6.54621 12.7411 6.67864 12.7288 6.85966C12.6974 7.32267 12.7171 7.79204 12.7954 8.27208C12.8249 8.26301 12.8756 8.25036 12.9163 8.24139L12.9163 8.24754L12.9221 8.24013L12.9163 8.24139C12.9168 8.16524 12.9119 8.09047 12.907 8.01963C12.9479 8.00931 12.9974 8.01101 13.0609 8.02209C13.0822 8.02581 13.1035 8.03023 13.1334 8.03693C13.2251 8.05749 13.2387 8.06015 13.2656 8.06069C13.299 8.06135 13.3125 8.05178 13.3109 8.02708C13.3092 8.00073 13.3105 7.9307 13.3132 7.84619C13.3229 7.84007 13.3282 7.83085 13.3287 7.81806L13.3142 7.81749L13.3142 7.81748L13.3287 7.81805C13.3254 7.91434 13.3236 7.99757 13.3254 8.02605C13.3278 8.06151 13.3063 8.07679 13.2654 8.07598C13.237 8.07541 13.2235 8.07278 13.1303 8.05188C13.1006 8.04522 13.0795 8.04085 13.0585 8.03718C12.9967 8.0264 12.9489 8.02476 12.9158 8.02576ZM11.7169 5.02869L11.7146 5.01982L11.7245 5.02479C11.7218 5.02597 11.7193 5.02727 11.7169 5.02869ZM11.9453 5.89162C11.8466 5.70377 11.7652 5.52235 11.7175 5.37562C11.6563 5.18732 11.6535 5.06597 11.7169 5.02869L11.9453 5.89162ZM11.9453 5.89162C11.955 5.9101 11.9649 5.92864 11.9749 5.94721L11.9616 5.95303L11.9453 5.89162ZM11.7612 6.14856L11.761 6.14861L11.761 6.14862L11.7607 6.14877L11.7656 6.16527C11.8344 6.13831 11.9034 6.10666 11.9723 6.07062L11.9668 6.05442L11.9665 6.05456L11.9665 6.05455L11.9663 6.05462L11.7612 6.14856ZM11.7612 6.14856C11.8295 6.12181 11.8979 6.0904 11.9663 6.05462L11.9665 6.05456L11.972 6.07075L11.7659 6.1651L11.761 6.14862L11.7612 6.14856ZM10.5821 6.37672C10.582 6.37675 10.582 6.37677 10.5819 6.37679L10.5857 6.39368L10.7393 6.34622L10.7358 6.32921C10.7358 6.32923 10.7357 6.32925 10.7357 6.32927L10.7357 6.32926L10.7355 6.3293C10.6831 6.3437 10.6322 6.35947 10.5822 6.37669L10.5821 6.37672L10.5821 6.37672ZM10.5821 6.37672L10.5859 6.3936C10.6358 6.3764 10.6867 6.36065 10.7391 6.34627L10.7357 6.32927C10.7356 6.32928 10.7356 6.32929 10.7355 6.3293L10.5822 6.37669C10.5822 6.3767 10.5821 6.37671 10.5821 6.37672Z" fill="black"/>
<path fill-rule="evenodd" clip-rule="evenodd" d="M11.183 6.16709C11.7405 6.10873 12.2879 5.84553 12.5133 5.5038L12.5264 5.50686L12.5439 5.62711C12.4248 5.80088 12.2243 5.95346 11.9763 6.05912C11.9757 6.05729 11.9864 6.09119 11.9897 6.10142C11.9953 6.11879 12.0005 6.13368 12.0058 6.14787C12.0496 6.2641 12.1012 6.31377 12.177 6.27874C12.1584 6.28763 12.1394 6.29631 12.1199 6.30481C12.0668 6.29824 12.0264 6.24408 11.9923 6.15349C11.9868 6.13904 11.9816 6.12393 11.9759 6.10635C11.9726 6.09604 11.9619 6.06208 11.9665 6.05454C12.2163 5.94045 12.4147 5.78946 12.5308 5.62394L12.5151 5.52759C12.5185 5.52258 12.5219 5.51755 12.5253 5.51251L12.5121 5.50945L12.5151 5.52759C12.2809 5.86617 11.7376 6.1244 11.1845 6.18231C10.6497 6.23831 10.2398 6.40384 9.84168 6.66954C9.82508 6.63818 9.80516 6.6197 9.75506 6.58306L9.75487 6.58292C9.7416 6.57322 9.73563 6.56878 9.72837 6.5631C9.52675 6.40631 9.43449 6.2089 9.44791 6.02617C9.45729 5.89849 9.5206 5.80323 9.59352 5.79368C9.60709 5.8013 9.62115 5.80809 9.63629 5.81424L9.64149 5.79996C9.62535 5.79355 9.60922 5.79163 9.59352 5.79368C9.58035 5.7863 9.56764 5.77813 9.55485 5.76902C9.5428 5.76043 9.51087 5.73537 9.50154 5.72806C9.50002 5.72686 9.4991 5.72614 9.49897 5.72604C9.42854 5.67123 9.2849 5.89356 9.30283 6.12834C9.31096 6.23463 9.39692 6.40625 9.48591 6.51114L9.47917 6.52375C9.33191 6.4956 9.26212 6.45521 9.17907 6.33628C9.22184 6.30832 9.27862 6.28932 9.33096 6.28341L9.33487 6.29299L9.33511 6.29258L9.34103 6.28243C9.33776 6.28269 9.33447 6.28301 9.33116 6.28338C9.3311 6.28339 9.33103 6.2834 9.33096 6.28341L9.32023 6.25712C9.30983 6.23124 9.30215 6.2085 9.29808 6.18669C9.29492 6.16977 9.29393 6.15342 9.29552 6.13659C9.29334 6.13657 9.29115 6.13658 9.28896 6.13661C9.21797 6.13764 9.13657 6.16498 9.06022 6.21216C9.04934 6.20078 9.03808 6.18917 9.02622 6.17707C9.0058 6.15626 8.95283 6.10354 8.91574 6.06661C8.89745 6.04841 8.88302 6.03404 8.87825 6.02923C8.73552 5.88541 8.6546 5.78426 8.59401 5.65901C8.51395 5.49327 8.50445 5.3423 8.56057 5.2635C8.59798 5.21097 8.65716 5.20011 8.72409 5.23143C8.7321 5.23908 8.73997 5.2466 8.74758 5.25386C8.76108 5.26676 8.77373 5.27885 8.78478 5.28939C8.69649 5.21428 8.61648 5.21053 8.57223 5.27266C8.52005 5.34593 8.52918 5.49099 8.607 5.65209C8.66667 5.77545 8.74669 5.87547 8.88834 6.0182C8.89307 6.02297 8.90743 6.03727 8.92566 6.05542C8.96276 6.09235 9.01586 6.14521 9.03636 6.1661C9.04827 6.17824 9.05957 6.1899 9.06127 6.20042C9.12892 6.15217 9.20993 6.12409 9.28815 6.12734C9.27051 5.88288 9.4228 5.64774 9.50756 5.71369C9.50773 5.71382 9.50884 5.71469 9.51065 5.71611C9.52057 5.72389 9.55146 5.74813 9.56303 5.75637C9.58812 5.77425 9.61282 5.7883 9.64155 5.79999L9.63634 5.81426C9.55661 5.78257 9.47319 5.88089 9.46243 6.02735C9.44941 6.20466 9.53932 6.39706 9.73705 6.55083C9.74416 6.55638 9.75005 6.56076 9.7632 6.57037L9.76339 6.57051C9.81528 6.60847 9.83637 6.62804 9.84404 6.65945C10.2337 6.38978 10.6458 6.22335 11.183 6.16709ZM9.33753 6.29808C9.28594 6.30306 9.229 6.32136 9.18853 6.3379C9.26705 6.43748 9.33125 6.47727 9.46132 6.50461C9.41463 6.44591 9.3699 6.37102 9.33753 6.29808ZM8.79483 5.27831C8.77072 5.25775 8.74695 5.24213 8.72409 5.23143C8.66741 5.1773 8.6038 5.11667 8.58021 5.09514C8.50199 5.02375 8.44312 4.97839 8.38619 4.94794C8.37408 4.94146 8.36211 4.93571 8.3502 4.93065C8.18109 4.85873 8.00277 5.03903 8.08676 5.30317C8.17999 5.59669 8.29869 5.76499 8.57292 6.0548L8.59317 6.07619C8.85779 6.35572 8.9686 6.50825 9.05951 6.77259C9.12114 6.95204 9.18681 7.06958 9.26985 7.13018C9.36865 7.20228 9.49025 7.18928 9.64407 7.07668C9.66228 7.06336 9.67494 7.05424 9.69623 7.03897L9.69687 7.03851C9.71116 7.02823 9.7224 7.02002 9.73815 7.00832C9.85543 6.93716 9.9991 7.05589 10.0048 7.24877C10.0003 7.26159 9.99532 7.27496 9.98975 7.28893L10.0037 7.2925C10.0049 7.27755 10.0052 7.26296 10.0048 7.24877C10.0435 7.13746 10.0407 7.06704 10.005 6.99004C9.99821 6.97548 9.99027 6.96039 9.97932 6.94091C9.97912 6.94057 9.9789 6.94017 9.97865 6.93973C9.97293 6.92959 9.95424 6.89647 9.9583 6.88995C9.93979 6.9003 9.92482 6.89198 9.91429 6.87012C9.90706 6.85512 9.9023 6.83717 9.89468 6.80098L9.89283 6.79216C9.88318 6.7462 9.87699 6.72683 9.86847 6.72088L9.86866 6.70802C10.0936 6.5612 10.3209 6.45008 10.5911 6.37731C10.6051 6.51382 10.6403 6.58333 10.7124 6.57066C10.7469 6.56263 10.7805 6.5554 10.8141 6.54885C10.8292 6.55616 10.8467 6.55816 10.867 6.55459C10.8167 6.56339 10.767 6.57359 10.7152 6.58566C10.6304 6.60056 10.5914 6.52353 10.5859 6.38547C10.3294 6.46341 10.1056 6.57227 9.88431 6.71583C9.89283 6.72742 9.89851 6.74821 9.90705 6.78887L9.9089 6.79768C9.91623 6.83251 9.92082 6.84981 9.92728 6.86322C9.93454 6.87828 9.94138 6.88209 9.96114 6.87931L9.99186 6.93314C10.003 6.95293 10.0111 6.96836 10.0181 6.98334C10.0599 7.07341 10.0586 7.15565 10.0032 7.29483L9.98921 7.29127C10.005 7.08428 9.85995 6.95208 9.746 7.02118C9.73075 7.03254 9.71946 7.04079 9.7051 7.05112L9.70446 7.05159C9.68317 7.06685 9.67056 7.07594 9.6524 7.08923C9.49398 7.20519 9.36588 7.21889 9.26154 7.14273C9.17535 7.07983 9.10839 6.95998 9.04582 6.77778C8.95582 6.51609 8.84607 6.36503 8.58284 6.08697L8.56259 6.06557C8.2869 5.77424 8.16706 5.6043 8.07294 5.30801C7.98505 5.0316 8.17493 4.83961 8.35566 4.91648C8.36797 4.9217 8.38032 4.92764 8.3928 4.93431C8.451 4.96545 8.51073 5.01146 8.58976 5.0836C8.61683 5.1083 8.69616 5.18408 8.75759 5.24276C8.77112 5.25568 8.78378 5.26778 8.79483 5.27831ZM10.8646 6.53951L10.867 6.55459L10.8646 6.53951C10.8646 6.53951 10.8646 6.53951 10.8646 6.53951ZM10.8646 6.53951C10.7932 6.55205 10.7591 6.47862 10.7447 6.33585C10.8817 6.3097 11.0323 6.28532 11.1919 6.27161C11.3849 6.255 11.5821 6.2138 11.7655 6.15127C11.8035 6.31899 11.8607 6.41742 11.9446 6.38794C12.0319 6.35861 12.1108 6.32727 12.1826 6.29283C12.1843 6.29204 12.1861 6.29121 12.1878 6.29035L12.1816 6.2765C12.1801 6.27725 12.1785 6.27799 12.177 6.27874C12.1785 6.27804 12.18 6.27731 12.1815 6.27654L12.1877 6.29039C12.186 6.2912 12.1843 6.29202 12.1826 6.29283C12.1599 6.30336 12.1391 6.30718 12.1199 6.30481C12.0642 6.32904 12.0045 6.35176 11.9401 6.37341C11.869 6.39838 11.8149 6.30528 11.7703 6.14188C11.5787 6.19889 11.3826 6.23986 11.1907 6.25637C11.0305 6.27014 10.8791 6.29463 10.7358 6.3292C10.7432 6.45021 10.7665 6.52585 10.8141 6.54885C10.8309 6.54557 10.8477 6.54246 10.8646 6.53951ZM8.79483 5.27831C8.80689 5.2886 8.81904 5.30013 8.83121 5.3129L8.82121 5.32401C8.81435 5.31757 8.80137 5.30522 8.78478 5.28939C8.7967 5.29953 8.80876 5.31096 8.82091 5.32371L8.83091 5.31261C8.82412 5.30623 8.81127 5.294 8.79483 5.27831Z" fill="black"/>
<path fill-rule="evenodd" clip-rule="evenodd" d="M13.7459 8.90481C13.6499 9.31409 13.7628 9.77576 14.0219 10.0234L14.0218 10.0349C13.6638 10.3582 13.2857 10.6113 12.8866 10.8149C12.7694 10.8748 12.6694 10.9419 12.5602 11.0295C12.5331 11.0513 12.5063 11.0735 12.4716 11.1028C12.4748 11.1002 12.4057 11.1588 12.3866 11.1748C12.3013 11.2463 12.2377 11.2944 12.1693 11.3366C12.5655 11.4071 13.0162 11.7912 13.3179 12.2943C13.6749 12.8893 14.03 13.1813 14.6079 13.4838C14.9292 13.6521 14.9126 13.8694 14.6542 14.1911C14.4821 14.4052 14.4137 14.5783 14.3139 14.9647C14.2052 15.3856 14.1294 15.5722 13.9282 15.8106C13.7442 16.0287 13.491 15.9521 13.4639 15.7493C13.4542 15.6768 13.4598 15.5947 13.4798 15.4805C13.4887 15.4292 13.5252 15.2537 13.5432 15.1669L13.5531 15.119C13.5555 15.1069 13.5576 15.0951 13.5593 15.0833C13.5589 15.0997 13.5612 15.115 13.5659 15.1293L13.5573 15.1706C13.5393 15.2575 13.503 15.4323 13.4941 15.4832C13.4744 15.596 13.4689 15.6766 13.4783 15.7472C13.5037 15.9369 13.7414 16.0088 13.9173 15.8004C14.1167 15.5643 14.1917 15.3795 14.2999 14.9607C14.4002 14.5723 14.4693 14.3975 14.643 14.1812C14.8962 13.8661 14.912 13.6602 14.6014 13.4975C14.0214 13.1938 13.6642 12.9002 13.3056 12.3024C13.0007 11.7941 12.5429 11.4083 12.1467 11.3483L12.1441 11.3341C12.2189 11.2898 12.2854 11.2401 12.3775 11.1628C12.3966 11.1469 12.4656 11.0883 12.4625 11.0909C12.4972 11.0615 12.5241 11.0392 12.5513 11.0174C12.6613 10.9292 12.7621 10.8615 12.8803 10.8012C13.276 10.5992 13.651 10.3486 14.0061 10.0289L14.0121 10.0348L14.0123 10.0233L14.0061 10.0289C13.7471 9.77591 13.6353 9.31251 13.7333 8.90793C13.5441 8.67397 13.0716 8.57727 12.708 8.67522C12.3582 8.93481 12.067 9.26732 11.7907 9.69175C11.7146 9.80861 11.5608 10.0764 11.411 10.337L11.411 10.337C11.2554 10.6078 11.1042 10.8708 11.0493 10.949C11.032 10.9736 11.015 10.9967 10.9982 11.0184C10.8312 11.2344 10.8272 11.6662 11.0736 11.8711C11.0852 11.8806 11.0963 11.8903 11.1072 11.9001C11.1405 11.9303 11.1708 11.9615 11.2064 12.0015L11.2483 12.0498L11.2484 12.0498L11.2484 12.0499C11.2765 12.0822 11.3102 12.1211 11.3256 12.1383C11.379 12.1982 11.4323 12.2534 11.4961 12.3136C11.6607 12.4691 11.8835 12.6461 12.1995 12.8657C12.3603 12.9774 12.8659 13.3113 12.8634 13.3096C13.0869 13.4604 13.2136 13.5586 13.2837 13.6423C13.5094 13.911 13.5918 14.0669 13.5639 14.2731C13.5524 14.3585 13.549 14.4342 13.5523 14.5291L13.5453 14.5278L13.538 14.5347C13.5343 14.4366 13.5377 14.3589 13.5495 14.271C13.5766 14.0708 13.4958 13.9179 13.2728 13.6524C13.2038 13.5702 13.0779 13.4725 12.8555 13.3225C12.8582 13.3243 12.3524 12.9902 12.1915 12.8784C11.8749 12.6585 11.6516 12.481 11.4863 12.325C11.4222 12.2644 11.3687 12.2089 11.3149 12.1488C11.2994 12.1314 11.2655 12.0923 11.2374 12.0599L11.1957 12.012C11.1604 11.9723 11.1306 11.9415 11.0977 11.9117C11.0869 11.902 11.076 11.8925 11.0646 11.883C10.8111 11.6723 10.8152 11.2308 10.9869 11.0087C11.0036 10.9872 11.0204 10.9643 11.0375 10.9399C11.092 10.8623 11.2425 10.6005 11.3977 10.3304L11.3977 10.3304L11.3977 10.3304L11.3977 10.3304L11.3977 10.3304L11.3978 10.3304L11.3978 10.3304C11.5478 10.0693 11.7022 9.80059 11.7787 9.68312C12.0559 9.2573 12.3483 8.92349 12.702 8.66157C13.0729 8.56113 13.5511 8.659 13.7459 8.90481ZM13.5387 14.5532L13.538 14.5347L13.5368 14.5358C13.5372 14.5418 13.5378 14.5476 13.5387 14.5532ZM13.5562 14.6067C13.5476 14.5906 13.5418 14.5728 13.5387 14.5532C13.5411 14.6062 13.5454 14.6653 13.5514 14.735L13.5524 14.7466L13.55 14.7485C13.5513 14.7627 13.5532 14.7761 13.5559 14.7889C13.5672 14.9284 13.5696 15.0006 13.5614 15.068L13.5603 15.0685C13.5598 15.0735 13.5594 15.0785 13.5593 15.0833L13.5614 15.068L13.5708 15.0626L13.5764 15.0655C13.5757 15.0709 13.5751 15.0762 13.5743 15.0815L13.574 15.0813C13.5741 15.0777 13.5744 15.0741 13.5748 15.0704L13.5643 15.0763L13.574 15.0813C13.5739 15.0824 13.5739 15.0834 13.5739 15.0845C13.5721 15.0969 13.5699 15.1093 13.5674 15.1222L13.5659 15.1293C13.5968 15.224 13.7325 15.2716 13.895 15.2466L13.8971 15.2322L13.5764 15.0655C13.5829 15.0084 13.5821 14.9473 13.5749 14.846C13.6271 14.9526 13.7627 14.9865 14.0486 14.9616L14.0507 14.9469L13.5667 14.7435L13.5659 14.7336C13.5619 14.687 13.5586 14.6451 13.5562 14.6067ZM13.5532 14.5514C13.554 14.5691 13.555 14.5875 13.5562 14.6067C13.6196 14.7256 13.8298 14.7479 14.1311 14.655L14.1303 14.6402L13.5523 14.5291L13.5529 14.5448L13.5522 14.5446L13.5513 14.5347L13.5427 14.5428L13.5522 14.5446L13.5532 14.5514ZM14.097 14.6493C13.7801 14.7407 13.5772 14.6981 13.5532 14.5514L13.5529 14.5448L14.097 14.6493ZM14.097 14.6493L14.127 14.6404L14.1277 14.6552L14.097 14.6493ZM13.5682 14.7606L13.5667 14.7435L13.5599 14.7407L13.5524 14.7466L13.5559 14.7889C13.5602 14.8098 13.5665 14.8288 13.5749 14.846C13.5736 14.8275 13.572 14.8077 13.5703 14.7863C13.5994 14.9233 13.715 14.9715 14.0163 14.9489L14.0453 14.9611L14.0474 14.9464L14.0163 14.9489L13.5682 14.7606ZM13.5658 14.7596C13.567 14.7689 13.5685 14.7778 13.5703 14.7863L13.5682 14.7606L13.5658 14.7596ZM13.5658 14.7596L13.5644 14.747L13.5545 14.7548L13.5658 14.7596ZM13.869 15.2346L13.5743 15.0815C13.5742 15.0825 13.574 15.0835 13.5739 15.0845C13.5725 15.1913 13.7016 15.2532 13.869 15.2346ZM13.869 15.2346L13.8907 15.2459L13.8928 15.2314C13.8848 15.2327 13.8769 15.2337 13.869 15.2346Z" fill="black"/>
<path fill-rule="evenodd" clip-rule="evenodd" d="M13.2617 9.73406C13.4754 9.61838 13.5642 9.56139 13.719 9.42432L13.7309 9.42876C13.733 9.44071 13.7362 9.45635 13.7395 9.47266C13.7443 9.49629 13.7493 9.52133 13.7519 9.53862C13.6137 9.65547 13.5333 9.70592 13.334 9.81378L13.293 9.83616C13.0839 9.95139 12.9426 10.0646 12.7362 10.3077C12.4783 10.6113 12.09 10.9594 11.8612 11.0944L11.7969 11.0162C12.0155 10.881 12.4027 10.5339 12.6595 10.2314C12.8672 9.98685 13.0099 9.87251 13.2207 9.75641L13.2617 9.73406ZM13.7166 9.43156L13.7284 9.436C13.7252 9.43882 13.7221 9.4416 13.7189 9.44436C13.7181 9.43979 13.7173 9.43549 13.7166 9.43156ZM13.7189 9.44436C13.5689 9.57635 13.4786 9.63386 13.2683 9.74765L13.2274 9.76995C13.0182 9.88522 12.8769 9.99844 12.6704 10.2416C12.4126 10.5452 12.0243 10.8933 11.8056 11.0173L11.8626 11.0823C12.0812 10.9471 12.4684 10.6 12.7253 10.2975C12.9329 10.053 13.0756 9.93867 13.2862 9.82262L13.3273 9.80019C13.5258 9.69277 13.6056 9.64275 13.7405 9.53512C13.7344 9.5163 13.7248 9.4746 13.7189 9.44436Z" fill="black"/>
<path fill-rule="evenodd" clip-rule="evenodd" d="M12.597 11.8968L12.606 11.8848C12.6664 11.9316 12.7237 11.9804 12.7775 12.0314L12.7681 12.043L12.597 11.8968ZM12.5973 11.8971C12.6573 11.9436 12.7143 11.9921 12.7678 12.0428L12.7773 12.0312L12.6062 11.885L12.5973 11.8971ZM13.5607 13.0076C13.5608 13.0078 13.561 13.008 13.5612 13.0082L13.5724 12.9965L13.5722 12.9962C13.5723 12.9963 13.5725 12.9964 13.5726 12.9966L13.5613 13.0083L13.5607 13.0076ZM13.4397 12.8802L13.5607 13.0076C13.5211 12.9683 13.4811 12.9261 13.4397 12.8802ZM13.4393 12.8798C13.4394 12.8799 13.4395 12.8801 13.4397 12.8802L13.4392 12.8798L13.4393 12.8798ZM13.4508 12.8683L13.4393 12.8798C13.4392 12.8797 13.4392 12.8797 13.4391 12.8796L13.4507 12.8682L13.4508 12.8683ZM13.4512 12.8688L13.5722 12.9962C13.5327 12.9569 13.4927 12.9147 13.4512 12.8688ZM13.4512 12.8688L13.4508 12.8683L13.4508 12.8683C13.4509 12.8685 13.4511 12.8686 13.4512 12.8688Z" fill="black"/>
<path fill-rule="evenodd" clip-rule="evenodd" d="M11.8749 11.6734L11.8708 11.6599C11.8767 11.6604 11.8825 11.6609 11.8884 11.6616L11.8749 11.6734ZM12.7258 11.6313C12.7379 11.6607 12.7357 11.6944 12.7211 11.7316C12.7077 11.7655 12.6851 11.8006 12.6526 11.8414C12.6404 11.8566 12.6285 11.8708 12.5973 11.897C12.378 11.7268 12.1543 11.6219 11.96 11.5992L11.8884 11.6616C12.2848 11.7052 12.7693 12.0701 13.0936 12.5441C13.4071 13.0023 13.7485 13.2921 14.167 13.5214C14.1494 13.5524 14.1441 13.5798 14.139 13.6439L14.1388 13.6456C14.1376 13.6608 14.1369 13.6687 14.1359 13.6778C14.1074 13.9395 13.9907 14.1221 13.8332 14.2012C13.7233 14.2565 13.6132 14.2466 13.5688 14.1853C13.5683 14.1693 13.5668 14.1535 13.5642 14.1359L13.5498 14.1383C13.5526 14.1563 13.5592 14.172 13.5688 14.1853C13.5696 14.2116 13.5677 14.2383 13.5637 14.2731C13.5618 14.2894 13.5609 14.2968 13.5602 14.3049C13.5501 14.3964 13.8054 14.4158 13.99 14.2821C14.0736 14.2216 14.172 14.0578 14.2143 13.9243L14.2281 13.9241C14.2783 14.0719 14.2799 14.1556 14.2235 14.2906C14.1791 14.2658 14.1351 14.2238 14.1038 14.179C14.1067 14.175 14.1089 14.172 14.1098 14.1707L14.1093 14.1707L14.098 14.1704C14.0999 14.1732 14.1018 14.176 14.1037 14.1788C14.1037 14.1789 14.1038 14.179 14.1038 14.179C14.1031 14.1801 14.1023 14.1812 14.1014 14.1824C14.0946 14.1919 14.0858 14.2044 14.082 14.2095C14.0702 14.2255 14.0593 14.2389 14.0472 14.2517C14.0405 14.2588 14.0335 14.2656 14.0264 14.2712C14.0179 14.2779 14.0092 14.2829 14.0005 14.2846C14.0015 14.2866 14.0026 14.2886 14.0038 14.2906C14.04 14.3546 14.1033 14.4149 14.1805 14.4608C14.1673 14.5128 14.1643 14.5258 14.1354 14.6531C14.0774 14.909 14.0379 15.0313 13.9572 15.1612C13.8606 15.3169 13.7409 15.401 13.6478 15.3894C13.5857 15.3816 13.5471 15.3331 13.5396 15.2565C13.5462 15.2244 13.5524 15.1944 13.5573 15.1709C13.5389 15.2897 13.5758 15.365 13.6495 15.3742C13.7361 15.385 13.8511 15.3041 13.945 15.1528C14.0245 15.0249 14.0636 14.9038 14.1212 14.6496C14.1501 14.5221 14.1532 14.5091 14.1703 14.4657C14.0966 14.4283 14.0329 14.3687 13.9965 14.296C13.8037 14.4342 13.5336 14.4133 13.5457 14.3033C13.5464 14.2951 13.5473 14.2876 13.5492 14.2712C13.5555 14.2167 13.5565 14.1832 13.5498 14.1383L13.5642 14.1359C13.5779 14.2242 13.7008 14.2509 13.827 14.1874C13.9797 14.1106 14.0935 13.9327 14.1215 13.676C14.1224 13.6672 14.1231 13.6593 14.1243 13.6443L14.1245 13.6426C14.1298 13.5762 14.1354 13.5472 14.1575 13.5243C13.74 13.3047 13.3968 13.0134 13.0818 12.553C12.755 12.0753 12.2643 11.7092 11.8697 11.6751L11.8656 11.6616L11.956 11.5857C12.1587 11.607 12.3847 11.713 12.5962 11.8858C12.6176 11.8607 12.6294 11.8466 12.6414 11.8316C12.6731 11.7918 12.695 11.7579 12.7076 11.7258C12.7291 11.6712 12.7212 11.6274 12.6765 11.5932C12.6929 11.6053 12.7093 11.618 12.7258 11.6313ZM13.5812 12.6977C13.586 12.7524 13.5354 12.8114 13.4391 12.8787C13.3392 12.7659 13.2433 12.6405 13.1516 12.5014C13.0422 12.3353 12.9104 12.1775 12.7675 12.0317C12.88 11.9092 12.9296 11.8137 12.8735 11.7615C12.823 11.7133 12.774 11.67 12.7258 11.6313C12.7181 11.6127 12.7047 11.5957 12.685 11.5807C12.7495 11.6288 12.8152 11.6851 12.8832 11.7501C12.9495 11.8117 12.897 11.9127 12.7776 12.0313C12.921 12.167 13.0535 12.3256 13.1636 12.4927C13.2549 12.6312 13.3503 12.756 13.4402 12.8673C13.5509 12.7826 13.5943 12.715 13.5481 12.6563C13.5591 12.6703 13.5701 12.6841 13.5812 12.6977ZM13.5594 12.6466L13.5481 12.6563C13.5481 12.6563 13.5481 12.6563 13.5481 12.6563L13.5594 12.6466ZM14.1836 13.4596C13.9547 13.3301 13.7531 13.1811 13.5605 12.9867C13.6716 12.913 13.7158 12.8388 13.661 12.7692C13.626 12.7291 13.5926 12.6889 13.5594 12.6466L13.5594 12.6466C13.5725 12.6633 13.5797 12.6803 13.5812 12.6977C13.6037 12.7254 13.6266 12.7524 13.65 12.7792C13.6966 12.8385 13.6568 12.9054 13.5512 12.9861C13.7464 13.1955 13.9516 13.3466 14.1851 13.4778L14.1958 13.4715C14.1965 13.4601 14.2089 13.4459 14.248 13.4084L14.2546 13.402C14.2774 13.38 14.29 13.366 14.2977 13.3524C14.3088 13.3332 14.3074 13.3163 14.2905 13.3053C14.2953 13.3099 14.3166 13.2707 14.3258 13.2538C14.3268 13.252 14.3276 13.2505 14.3283 13.2493C14.383 13.1498 14.4363 13.1064 14.5633 13.0835C14.407 13.1851 14.3808 13.3752 14.4982 13.4462C14.5153 13.4545 14.5271 13.4604 14.5435 13.4686L14.544 13.4688C14.5771 13.4855 14.5806 13.4872 14.6017 13.4975C14.7714 13.5811 14.8429 13.6852 14.8328 13.8111C14.8243 13.9169 14.7603 14.0354 14.6431 14.1812C14.4693 14.3975 14.4002 14.5722 14.2999 14.9606C14.1917 15.3795 14.1167 15.5643 13.9174 15.8004C13.7415 16.0088 13.5038 15.9369 13.4784 15.7472C13.469 15.6766 13.4745 15.596 13.4941 15.4832C13.5006 15.4461 13.5216 15.3432 13.5396 15.2565C13.5369 15.23 13.538 15.2 13.5432 15.1673C13.5432 15.1672 13.5432 15.167 13.5432 15.1669C13.5485 15.1417 13.5522 15.1239 13.5531 15.119L13.5673 15.1225C13.563 15.1394 13.5597 15.1555 13.5573 15.1709C13.5573 15.1708 13.5573 15.1707 13.5574 15.1706C13.5627 15.1451 13.5664 15.1271 13.5674 15.1221L13.5532 15.1186C13.5489 15.1354 13.5456 15.1517 13.5432 15.1673C13.5251 15.2541 13.4887 15.4293 13.4798 15.4804C13.4599 15.5947 13.4543 15.6767 13.4639 15.7493C13.4911 15.952 13.7442 16.0286 13.9283 15.8105C14.1295 15.5722 14.2052 15.3856 14.314 14.9646C14.4138 14.5783 14.4822 14.4052 14.6542 14.1911C14.7732 14.043 14.8385 13.9222 14.8473 13.8124C14.858 13.6794 14.7827 13.5698 14.6078 13.4837C14.5868 13.4734 14.5834 13.4717 14.5503 13.4551L14.5497 13.4548C14.5334 13.4466 14.5215 13.4407 14.5049 13.4327C14.3909 13.3636 14.4274 13.1656 14.606 13.0765L14.6019 13.062C14.4406 13.0837 14.3781 13.1281 14.3157 13.2416C14.3104 13.2512 14.2954 13.2796 14.2866 13.2961C14.2834 13.3022 14.2811 13.3067 14.2803 13.308C14.292 13.3243 14.2926 13.3317 14.2853 13.3445C14.2784 13.3564 14.2665 13.3697 14.2448 13.3907L14.2381 13.3971C14.2034 13.4305 14.1888 13.4459 14.1836 13.4596ZM14.5633 13.0835C14.5748 13.076 14.5869 13.0691 14.5997 13.0627L14.6038 13.0771C14.5895 13.0791 14.576 13.0812 14.5633 13.0835ZM12.685 11.5807C12.6838 11.5798 12.6825 11.5789 12.6812 11.5779L12.6729 11.5905C12.6741 11.5914 12.6754 11.5923 12.6765 11.5932C12.6753 11.5922 12.6741 11.5913 12.6728 11.5904L12.6812 11.5779C12.6825 11.5788 12.6838 11.5798 12.685 11.5807ZM14.1126 14.1657C14.1428 14.2102 14.1863 14.2528 14.2201 14.2812C14.2628 14.16 14.2635 14.0817 14.2212 13.9499C14.196 14.0218 14.1566 14.0998 14.1126 14.1657Z" fill="black"/>
<path fill-rule="evenodd" clip-rule="evenodd" d="M14.624 12.8735L14.509 12.7275L14.4963 12.7307L14.4544 12.921L14.2736 12.9193L14.2681 12.9317L14.3846 13.0848L14.271 13.231L14.2767 13.2433L14.4637 13.2445L14.5009 13.4288L14.5136 13.4318L14.6309 13.2791L14.7932 13.3625L14.8033 13.3538L14.7608 13.1632L14.9247 13.0827L14.9246 13.069L14.7559 12.9833L14.7996 12.7998L14.7893 12.7913L14.624 12.8735ZM14.7822 12.8118L14.6251 12.8899L14.6164 12.8879L14.5068 12.7488L14.5105 12.7341L14.4978 12.7373L14.5068 12.7488L14.4616 12.9304L14.2881 12.9342L14.2794 12.9221L14.2739 12.9346L14.2881 12.9342L14.396 13.0847L14.2912 13.2285L14.2768 13.228L14.2826 13.2403L14.2912 13.2285L14.4708 13.2351L14.5116 13.4107L14.5023 13.4222L14.515 13.4252L14.5116 13.4107L14.6283 13.2673L14.7862 13.3424L14.7891 13.3573L14.7992 13.3486L14.7862 13.3424L14.7505 13.1581L14.9055 13.0758L14.9182 13.0828L14.9181 13.0691L14.9055 13.0758L14.7456 12.9885L14.7822 12.8118ZM14.7822 12.8118L14.7956 12.8051L14.7853 12.7966L14.7822 12.8118Z" fill="black"/>
<path fill-rule="evenodd" clip-rule="evenodd" d="M14.0586 8.85392C14.4441 8.73646 14.7686 8.40291 14.8432 8.04361L14.8527 8.03802C15.2986 8.20201 15.6967 8.41936 16.0638 8.68013C16.2161 8.7883 16.307 8.83173 16.5742 8.93998C16.7015 8.99154 16.7764 9.0259 16.8526 9.07152C16.7128 8.67591 16.8042 8.07408 17.0683 7.54821C17.3806 6.9262 17.4438 6.45753 17.4045 5.7805C17.3826 5.40412 17.5701 5.31061 17.9647 5.38474C18.2221 5.43314 18.4058 5.4092 18.7528 5.31295L18.7798 5.30547C19.1733 5.19611 19.3681 5.17177 19.6635 5.23517C19.9354 5.29346 19.9987 5.56209 19.845 5.68796C19.7867 5.7357 19.7117 5.77294 19.5958 5.81516C19.5593 5.82844 19.4467 5.8662 19.3653 5.89349L19.3653 5.89351C19.3254 5.90687 19.2931 5.91773 19.2808 5.92198L19.2686 5.92636C19.2806 5.9187 19.2908 5.90972 19.2994 5.89959L19.3611 5.87885L19.3612 5.87884C19.4425 5.85155 19.5547 5.81393 19.591 5.80071C19.7055 5.759 19.7793 5.72239 19.836 5.6759C19.9799 5.55813 19.9204 5.30586 19.6606 5.25016C19.368 5.18734 19.175 5.21145 18.7835 5.32026L18.7566 5.32774C18.4076 5.42451 18.2221 5.44869 17.9621 5.39979C17.5755 5.32715 17.3979 5.41573 17.419 5.77957C17.4585 6.45915 17.3949 6.93045 17.0811 7.55534C16.8143 8.0867 16.725 8.69586 16.8736 9.08619L16.8631 9.09561C16.7813 9.04488 16.7055 9.00956 16.5689 8.95424C16.3007 8.84559 16.2091 8.80182 16.0556 8.69279C15.6917 8.43423 15.2972 8.21849 14.8556 8.0553L14.8574 8.04686L14.8479 8.05245L14.8556 8.0553C14.7766 8.41711 14.4501 8.75053 14.0675 8.86383C13.969 9.15276 14.1255 9.63053 14.3881 9.91242C14.53 9.98109 14.6775 10.0381 14.831 10.0847C15.3041 10.2281 15.6916 10.2594 16.4614 10.2613C16.8566 10.2622 17.0109 10.2678 17.1757 10.2954C17.4374 10.3392 17.7956 10.127 17.8413 9.80058C17.8489 9.74638 17.8597 9.69671 17.8754 9.63985C17.8852 9.60469 17.928 9.4646 17.9239 9.47837C17.9457 9.40573 17.9627 9.34219 17.9793 9.26885C18.0334 9.03023 18.073 8.72209 18.0987 8.27951C18.1086 8.1089 18.1113 8.04131 18.1242 7.67708C18.1404 7.22089 18.1554 7.03555 18.1972 6.9053C18.3063 6.56544 18.3935 6.41285 18.5774 6.33515C18.6511 6.30401 18.7194 6.26661 18.7944 6.2176L18.7968 6.22468L18.8061 6.2279C18.7289 6.27867 18.6588 6.31726 18.5829 6.34933C18.4043 6.42476 18.3188 6.57444 18.211 6.91018C18.1698 7.03838 18.1549 7.22342 18.1388 7.67765C18.1259 8.04203 18.1232 8.10966 18.1133 8.28044C18.0875 8.72384 18.0478 9.03284 17.9935 9.27239C17.9768 9.34612 17.9597 9.40999 17.9378 9.48296C17.9419 9.4694 17.8991 9.6092 17.8894 9.64412C17.8738 9.70035 17.8632 9.74935 17.8557 9.8028C17.8087 10.1385 17.4425 10.3555 17.1734 10.3105C17.0096 10.2831 16.8558 10.2775 16.4614 10.2766C15.6902 10.2747 15.3018 10.2433 14.827 10.0994C14.6727 10.0526 14.5246 9.9953 14.3799 9.92472C14.1115 9.63743 13.9532 9.15388 14.0586 8.85392ZM18.8211 6.21799L18.8061 6.2279L18.8077 6.22844C18.8124 6.2251 18.8169 6.22162 18.8211 6.21799ZM18.8563 6.17558C18.8474 6.19131 18.8356 6.20549 18.8211 6.21799C18.8453 6.20177 18.8703 6.18435 18.8964 6.16555C18.9111 6.15499 18.9435 6.13121 18.9738 6.1089L18.9766 6.11016C18.9876 6.10183 18.9978 6.09328 19.007 6.08446L19.0375 6.06207C19.0903 6.02381 19.1309 5.99652 19.1703 5.97375C19.1935 5.96036 19.2157 5.94887 19.2374 5.93917L19.2402 5.94071C19.2505 5.93664 19.26 5.93184 19.2686 5.92636C19.2583 5.93022 19.2479 5.93448 19.2374 5.93917L19.2286 5.93416L19.2281 5.92675C19.2334 5.92432 19.2387 5.92199 19.244 5.91976L19.2442 5.92193C19.2407 5.92361 19.2371 5.92518 19.2334 5.92664L19.245 5.93319L19.2442 5.92193C19.2492 5.9195 19.254 5.91684 19.2584 5.91396C19.2644 5.91166 19.2703 5.90949 19.2762 5.90745L19.2994 5.89959C19.3643 5.82255 19.3304 5.67931 19.2168 5.54728L19.2019 5.55251L19.2281 5.92675C19.207 5.9363 19.1856 5.94748 19.1633 5.96035C19.1274 5.98112 19.0905 6.00552 19.0447 6.0383C19.1061 5.93751 19.0662 5.79723 18.903 5.55011L18.8899 5.55556L18.9641 6.09736C18.9342 6.11936 18.9026 6.14257 18.8882 6.15294L18.8563 6.17558ZM18.8123 6.20571C18.8267 6.1961 18.8413 6.18607 18.8563 6.17558C18.923 6.05853 18.8363 5.85608 18.6088 5.62845L18.597 5.63655L18.7944 6.2176L18.807 6.20927L18.8072 6.20998L18.7995 6.21579L18.8105 6.21955L18.8072 6.20998L18.8123 6.20571ZM18.6212 5.6623C18.8551 5.90473 18.9214 6.11061 18.8123 6.20571L18.807 6.20927L18.6212 5.6623ZM18.6212 5.6623L18.5988 5.63951L18.6107 5.63141L18.6212 5.6623ZM18.9774 6.08752L18.9641 6.09736L18.9651 6.10504L18.9738 6.1089L18.99 6.09693L18.99 6.09691L19.007 6.08446C19.0222 6.06992 19.0348 6.05463 19.0447 6.0383L19.0292 6.04949L18.9977 6.07265C19.0959 5.97761 19.0779 5.8484 18.9087 5.58586L18.9043 5.55338L18.8911 5.55883L18.9087 5.58586L18.9774 6.08752ZM18.9778 6.09016C18.9849 6.08444 18.9915 6.07861 18.9977 6.07265L18.9816 6.08447L18.9774 6.08752L18.9778 6.09016ZM18.9778 6.09016L18.9681 6.09774L18.9795 6.10286L18.9778 6.09016ZM19.2201 5.57688L19.244 5.91976C19.2489 5.91775 19.2537 5.91581 19.2584 5.91396C19.3475 5.85675 19.329 5.71435 19.2201 5.57688ZM19.2201 5.57688L19.2183 5.55153L19.2035 5.55676C19.2092 5.56345 19.2148 5.57016 19.2201 5.57688Z" fill="black"/>
<path fill-rule="evenodd" clip-rule="evenodd" d="M14.6098 8.66333C14.5751 8.64802 14.5388 8.63314 14.5004 8.6186L14.4982 8.60559C14.5075 8.5972 14.5194 8.58603 14.5316 8.57451C14.5483 8.5587 14.5657 8.54226 14.5783 8.53149C14.5974 8.53923 14.6159 8.54707 14.634 8.55503C14.775 8.61701 14.8366 8.65434 15.0232 8.77996C15.2468 8.93059 15.4015 9.00114 15.7206 9.07071C16.1001 9.15352 16.5814 9.33249 16.8069 9.47279L16.7747 9.57048C16.5537 9.43929 16.0738 9.26084 15.6959 9.17853C15.3749 9.10854 15.2187 9.03724 14.9936 8.88561C14.8088 8.76118 14.7483 8.72447 14.6098 8.66333ZM14.5076 8.61722L14.5054 8.60422C14.5093 8.60569 14.5131 8.60717 14.517 8.60866C14.5137 8.61172 14.5105 8.6146 14.5076 8.61722ZM14.5812 8.54365C14.5688 8.55864 14.5394 8.58791 14.517 8.60866C14.5513 8.62187 14.5841 8.63538 14.6154 8.64923C14.7549 8.71081 14.816 8.74785 15.0014 8.87274C15.2251 9.02342 15.3798 9.09397 15.6989 9.16355C16.0782 9.24618 16.5594 9.42514 16.7712 9.56201L16.7962 9.47763C16.5757 9.34663 16.0957 9.16818 15.7176 9.08568C15.3966 9.01571 15.2404 8.94441 15.0153 8.79283C14.8294 8.66767 14.7683 8.63067 14.6284 8.56913C14.6274 8.5687 14.6264 8.56827 14.6254 8.56784C14.6084 8.56037 14.5914 8.55291 14.5812 8.54365Z" fill="black"/>
<path fill-rule="evenodd" clip-rule="evenodd" d="M17.4917 7.14586C17.5105 7.08957 17.5266 7.03642 17.5404 6.98509L17.5243 6.9812L17.5243 6.98142L17.5243 6.98142C17.5242 6.98146 17.5242 6.98149 17.5242 6.98153L17.4758 7.14123C17.4757 7.14128 17.4757 7.14133 17.4757 7.14138L17.4757 7.14138L17.4757 7.14157L17.4917 7.14586ZM17.4757 7.14138L17.4917 7.14567L17.5404 6.9853L17.5243 6.98142L17.5242 6.98153C17.5105 7.0325 17.4944 7.08529 17.4758 7.14123L17.4757 7.14138ZM15.0002 8.27984C14.9412 8.25687 14.8745 8.22253 14.8097 8.1825L14.8065 8.1735L14.8146 8.14762L14.8146 8.14762C14.8259 8.11076 14.839 8.06853 14.8527 8.03805C15.2986 8.20204 15.6967 8.4194 16.0638 8.68016C16.2161 8.78833 16.307 8.83177 16.5741 8.94001C16.7114 8.99561 16.7878 9.03121 16.8731 9.09295L16.7817 9.24037C16.6677 9.17026 16.3861 9.04402 16.1772 8.96398C16.1764 8.9856 16.1669 9.0104 16.1493 9.04267C16.1453 9.05001 16.141 9.05744 16.1351 9.06752C16.1077 9.11452 16.1023 9.12458 16.0975 9.14098C16.0918 9.16056 16.0959 9.17075 16.1134 9.17616L16.1093 9.19086L16.1092 9.19083L16.1132 9.17613L16.0823 9.16702C16.0797 9.15851 16.0802 9.14826 16.0836 9.1365C16.089 9.11825 16.0944 9.10815 16.1227 9.05953C16.1285 9.04957 16.1327 9.04226 16.1366 9.03507C16.1561 8.99939 16.1647 8.97403 16.1623 8.95387L16.172 8.94573C16.3826 9.0258 16.6722 9.15533 16.7791 9.22988L16.8631 9.09565C16.7812 9.04491 16.7054 9.0096 16.5689 8.95428C16.3007 8.84563 16.2091 8.80185 16.0556 8.69283C15.6895 8.43276 15.2926 8.21601 14.8573 8.04708C14.85 8.07856 14.835 8.13143 14.8222 8.17244L14.8171 8.16932L14.8203 8.17832L14.8222 8.17244C14.8846 8.21071 14.9488 8.24371 15.0097 8.27484C15.0075 8.28264 15.0048 8.29054 15.0016 8.29858C14.9832 8.34464 14.9514 8.39034 14.8988 8.45269L14.8734 8.48233L14.8431 8.51782C14.8235 8.54109 14.8103 8.55837 14.8008 8.57349C14.7792 8.60775 14.7791 8.62674 14.8018 8.63831C14.8244 8.65021 14.8845 8.68828 14.9497 8.73097C14.9499 8.74287 14.9548 8.75232 14.9651 8.75914L14.9728 8.7462L14.9729 8.74621L14.9651 8.75914C14.892 8.71091 14.8199 8.66495 14.7953 8.65202C14.7627 8.63538 14.7629 8.60596 14.7886 8.56506C14.7986 8.54922 14.8122 8.53147 14.8322 8.50771L14.8627 8.47197L14.8879 8.44254C14.9396 8.38138 14.9706 8.33676 14.9882 8.29266L14.9887 8.29149C14.9915 8.2844 14.9941 8.27786 15.0002 8.27984ZM14.9728 8.7462L14.9497 8.73097C14.9494 8.71529 14.9574 8.69535 14.9724 8.6715C14.9915 8.64082 15.0182 8.60787 15.0691 8.54973L15.0756 8.54227C15.1696 8.43497 15.1982 8.39712 15.1975 8.37149L15.2071 8.36401C15.3246 8.40482 15.4344 8.46383 15.5769 8.55606L15.582 8.55943L15.582 8.55944L15.582 8.55944L15.582 8.55945L15.582 8.55945L15.5821 8.55947C15.6108 8.57844 15.7508 8.67084 15.7907 8.69535C15.8657 8.74146 15.9242 8.77037 15.9825 8.79498C15.9761 8.82047 15.9642 8.84835 15.9466 8.88084C15.9376 8.89737 15.9277 8.91427 15.9142 8.93631L15.9135 8.93746C15.8695 9.00924 15.8608 9.02352 15.8544 9.03878C15.8528 9.04257 15.8513 9.04642 15.8495 9.05123L15.8493 9.05185C15.8374 9.08336 15.8418 9.09909 15.8661 9.10545C15.8928 9.11157 15.9372 9.12411 16.0114 9.14603L16.0171 9.1477L16.0676 9.16267L16.0823 9.16702C16.0857 9.17815 16.0945 9.18627 16.1092 9.19083L16.0636 9.17739L16.0131 9.16242L16.0075 9.16075C15.9336 9.13892 15.8893 9.12642 15.8628 9.12033C15.8283 9.11131 15.821 9.08536 15.8357 9.04623L15.8361 9.04523L15.8361 9.04523L15.8361 9.04521L15.8361 9.04521C15.8381 9.04008 15.8396 9.03599 15.8413 9.03198C15.8479 9.01629 15.8569 9.00161 15.9009 8.92975L15.902 8.92804C15.9153 8.90621 15.9251 8.88953 15.9339 8.87328C15.94 8.86203 15.9454 8.85138 15.9503 8.84167L15.9503 8.84166C15.9591 8.82424 15.9664 8.80984 15.9735 8.80041C15.9189 8.7847 15.8594 8.75528 15.7833 8.70855C15.743 8.68378 15.6016 8.59043 15.574 8.57218L15.5739 8.57215L15.5739 8.57214L15.5693 8.56908C15.4312 8.47974 15.3243 8.42189 15.2113 8.38163C15.2063 8.41175 15.1753 8.451 15.0863 8.55262L15.0798 8.56007C15.0295 8.61758 15.0031 8.65015 14.9845 8.67989C14.9623 8.71544 14.9588 8.73688 14.9728 8.7462ZM18.0857 8.69878C18.0962 8.60622 17.9885 8.54171 17.7882 8.50026C17.628 8.46712 17.4132 8.45019 17.1854 8.44827L17.1835 8.46332L18.0767 8.70527L18.0857 8.69878ZM18.0718 8.68817L18.0803 8.69047L18.0712 8.69696C18.0716 8.69401 18.0718 8.69107 18.0718 8.68817ZM17.2459 8.46443C17.4502 8.46862 17.6405 8.48529 17.7854 8.51526C17.9713 8.55373 18.0728 8.61185 18.0718 8.68817L17.2459 8.46443ZM17.2459 8.46443C17.2259 8.46402 17.2056 8.46373 17.1853 8.46356L17.1872 8.44851L17.2459 8.46443ZM17.103 8.4021C17.1126 8.32403 17.1259 8.24804 17.143 8.17432L17.1266 8.17152L17.0865 8.40002L17.103 8.4021ZM17.1029 8.40245L17.0864 8.40037C17.0961 8.32183 17.1095 8.24535 17.1267 8.17114L17.1431 8.17395L17.1029 8.40245Z" fill="black"/>
<path fill-rule="evenodd" clip-rule="evenodd" d="M17.3999 7.63346C17.1692 8.16955 17.1125 8.79886 17.2817 9.17469L17.2726 9.18513L17.1648 9.14098C17.081 8.94587 17.0555 8.68741 17.0923 8.40869L17.0554 8.40076C17.0252 8.39439 17.0014 8.39025 16.9782 8.38774C16.8768 8.37672 16.8189 8.40203 16.8107 8.48188C16.8126 8.46068 16.8149 8.43914 16.8177 8.41721C16.8466 8.37647 16.9023 8.36412 16.9797 8.37253C17.0034 8.3751 17.0276 8.37931 17.0583 8.38577C17.0667 8.38753 17.093 8.39324 17.1009 8.40206C17.0702 8.68661 17.0955 8.94238 17.1739 9.13066L17.2612 9.16442C17.2636 9.17007 17.266 9.17567 17.2685 9.18122L17.2776 9.17078L17.2612 9.16442C17.0989 8.78226 17.1577 8.1591 17.3866 7.62716C17.6078 7.11292 17.6762 6.65748 17.656 6.16261C17.6897 6.16322 17.7156 6.15424 17.7684 6.12816L17.771 6.12692C17.7855 6.11976 17.7922 6.1165 17.8006 6.11272C18.0307 6.00784 18.2396 6.02268 18.3836 6.12624C18.4836 6.1982 18.5306 6.30261 18.503 6.37365C18.4905 6.38171 18.4795 6.3905 18.4641 6.40343L18.4733 6.41531C18.487 6.40355 18.4968 6.38943 18.503 6.37365C18.5227 6.36088 18.5461 6.34993 18.5959 6.32725L18.6056 6.32275C18.686 6.28594 18.5745 6.04433 18.3719 5.94327C18.3719 5.94327 18.3719 5.94327 18.3719 5.94327C18.2802 5.89749 18.096 5.88982 17.9645 5.91817L17.9575 5.90572C18.0545 5.78603 18.1226 5.74284 18.2622 5.72668C18.264 5.77951 18.2513 5.84058 18.2299 5.89125L18.2201 5.89001L18.2203 5.89045L18.2257 5.90089C18.2271 5.89779 18.2285 5.89465 18.2299 5.89146C18.2299 5.89139 18.2299 5.89132 18.2299 5.89125L18.2352 5.89191C18.2766 5.8969 18.3039 5.90137 18.3273 5.91008C18.3418 5.91551 18.3548 5.92259 18.3688 5.93249C18.3699 5.93052 18.371 5.92853 18.372 5.92651C18.4067 5.8614 18.4248 5.77377 18.4241 5.68067C18.4625 5.66977 18.5002 5.65838 18.554 5.64156C18.7254 5.58805 18.7548 5.57931 18.8277 5.56245C18.9316 5.53842 19.023 5.52838 19.1134 5.5335C19.2901 5.54352 19.4194 5.61035 19.4564 5.70078C19.481 5.76103 19.4604 5.82025 19.4012 5.86542C19.3874 5.87005 19.3739 5.87457 19.3612 5.87883C19.3474 5.88346 19.3345 5.88778 19.323 5.89164C19.4291 5.84896 19.4721 5.7781 19.443 5.70681C19.4086 5.62273 19.2844 5.55851 19.1126 5.54877C19.0236 5.54373 18.9336 5.55363 18.8308 5.57738C18.7584 5.59413 18.7291 5.60284 18.5582 5.65622C18.5042 5.67307 18.4665 5.68449 18.4332 5.68749C18.4392 5.77322 18.4219 5.86086 18.3801 5.93042C18.5905 6.03656 18.7082 6.29245 18.6115 6.33672L18.6017 6.34128C18.5218 6.37768 18.5115 6.38312 18.4733 6.41535L18.4641 6.40347C18.5301 6.34684 18.4908 6.22186 18.3754 6.13885C18.2356 6.03837 18.032 6.0239 17.8064 6.12675C17.7982 6.13045 17.7915 6.13367 17.7772 6.14076L17.7746 6.142C17.7198 6.16904 17.6924 6.17856 17.6631 6.1698C17.6908 6.65892 17.6221 7.11682 17.3999 7.63346ZM19.3272 5.90632C19.3562 5.89467 19.381 5.88087 19.4012 5.86542C19.4758 5.84039 19.5604 5.81186 19.5911 5.80071C19.7056 5.759 19.7794 5.72239 19.8361 5.6759C19.9799 5.55813 19.9204 5.30586 19.6606 5.25016C19.368 5.18734 19.1751 5.21145 18.7835 5.32026L18.7566 5.32774C18.4076 5.42451 18.2222 5.44869 17.9621 5.39979C17.7832 5.36618 17.6535 5.36715 17.562 5.41234C17.4531 5.46612 17.4031 5.58319 17.419 5.77939C17.4197 5.78748 17.4201 5.79268 17.4205 5.79788C17.4213 5.80727 17.4219 5.81667 17.4239 5.84309L17.4241 5.84626C17.4255 5.86464 17.4266 5.87888 17.4284 5.89906C17.4284 6.0413 17.2587 6.11253 17.0969 6.02132C17.0885 6.01083 17.0799 5.99958 17.0712 5.98751L17.0613 5.99844C17.0731 6.00697 17.085 6.01459 17.0969 6.02132C17.1447 6.08098 17.1874 6.11578 17.232 6.13386C17.2739 6.15083 17.3057 6.15333 17.3941 6.15159C17.4083 6.15131 17.4147 6.1512 17.4159 6.15849C17.4166 6.1367 17.4307 6.12718 17.4536 6.12832C17.4694 6.12911 17.4869 6.13376 17.5195 6.14456L17.5238 6.14599C17.5725 6.16215 17.5907 6.1663 17.6003 6.16131L17.6108 6.16792C17.6195 6.44541 17.5974 6.70789 17.5223 6.99021C17.4027 6.93459 17.3279 6.93184 17.3022 7.00386C17.2917 7.03895 17.2808 7.07314 17.2694 7.10708C17.2558 7.11717 17.2454 7.13216 17.2382 7.15241L17.2519 7.15776C17.2519 7.15776 17.2519 7.15776 17.2519 7.15776C17.2579 7.14087 17.2637 7.12401 17.2694 7.10708C17.3121 7.07535 17.386 7.09198 17.4897 7.14582C17.4467 7.29312 17.3912 7.44305 17.3224 7.59591C17.24 7.77834 17.1759 7.97703 17.127 8.18011C16.97 8.13899 16.8661 8.14162 16.851 8.21884C16.8366 8.28866 16.8255 8.35451 16.8177 8.41721C16.8061 8.43349 16.7989 8.4543 16.7962 8.48014C16.7961 8.48189 16.7959 8.48364 16.7958 8.48539L16.8103 8.48669C16.8104 8.48507 16.8106 8.48346 16.8107 8.48188C16.8106 8.48352 16.8104 8.48515 16.8103 8.48679L16.7958 8.48549M17.5966 6.17835C17.5827 6.18044 17.5626 6.17491 17.5194 6.16057L17.5152 6.15915C17.4838 6.14876 17.467 6.1443 17.4529 6.1436C17.4373 6.14282 17.4309 6.14714 17.4233 6.1664L17.3943 6.16688C17.3041 6.16866 17.271 6.16605 17.2268 6.14812C17.1715 6.12571 17.1196 6.07956 17.0596 5.99678L17.0695 5.98585C17.2323 6.10373 17.4138 6.03798 17.4138 5.89976C17.4121 5.88021 17.411 5.8659 17.4096 5.84745L17.4094 5.84426C17.4074 5.81787 17.4067 5.80849 17.406 5.79912C17.4056 5.79393 17.4052 5.78875 17.4045 5.78069C17.3881 5.57862 17.4408 5.4553 17.5558 5.3985C17.6508 5.3516 17.7831 5.35062 17.9647 5.38474C18.2221 5.43314 18.4058 5.4092 18.7529 5.31295L18.7798 5.30547C19.1733 5.19611 19.3682 5.17177 19.6635 5.23517C19.9354 5.29346 19.9988 5.56209 19.845 5.68796C19.7868 5.7357 19.7117 5.77294 19.5958 5.81516C19.5593 5.82844 19.4468 5.8662 19.3654 5.8935C19.3516 5.89813 19.3386 5.90246 19.3272 5.90632C19.3126 5.91214 19.297 5.91742 19.2804 5.9221L19.2763 5.90745C19.2844 5.90465 19.3012 5.89899 19.323 5.89164C19.3087 5.89741 19.2932 5.90266 19.2766 5.90733L19.2808 5.92198C19.2888 5.9192 19.3055 5.9136 19.3272 5.90632M17.9822 5.8991C18.0541 5.88606 18.1383 5.88286 18.2145 5.8899C18.2363 5.84036 18.2496 5.77951 18.2561 5.73448C18.1348 5.75618 18.0699 5.7946 17.9822 5.8991Z" fill="black"/>
</g>
</svg>
