<svg width="28" height="20" viewBox="0 0 28 20" fill="none" xmlns="http://www.w3.org/2000/svg">
<rect width="28" height="20" rx="2" fill="white"/>
<mask id="mask0" mask-type="alpha" maskUnits="userSpaceOnUse" x="0" y="0" width="28" height="20">
<rect width="28" height="20" rx="2" fill="white"/>
</mask>
<g mask="url(#mask0)">
<path fill-rule="evenodd" clip-rule="evenodd" d="M0 20H28V0H0V20Z" fill="#079D7B"/>
<path fill-rule="evenodd" clip-rule="evenodd" d="M15.885 8.66683C15.885 8.95869 15.8638 9.24179 15.8239 9.51157C15.9262 9.48013 16.0304 9.45015 16.1362 9.42178C17.9145 8.94531 19.5016 9.10252 19.6812 9.77293C19.8436 10.3788 18.8008 11.1965 17.2859 11.7C17.0183 10.9063 15.649 10.6668 13.9999 10.6668C12.3491 10.6668 10.9786 10.9068 10.7131 11.7026C9.21878 11.1982 8.19463 10.3891 8.35562 9.78824C8.53526 9.11784 10.1224 8.96062 11.9006 9.4371C11.994 9.46211 12.086 9.48838 12.1766 9.51579C12.1363 9.24474 12.1149 8.96021 12.1149 8.66683C12.1149 6.82588 12.9589 5.3335 13.9999 5.3335C15.041 5.3335 15.885 6.82588 15.885 8.66683ZM10.6666 12.0002L11.8331 12.0002C11.6483 11.9639 11.4598 11.9206 11.2691 11.8699C11.4836 11.8763 11.7482 11.8946 12.0509 11.9156C12.599 11.9535 13.2723 12.0002 13.9999 12.0002C14.7276 12.0002 15.4009 11.9535 15.949 11.9156C16.2403 11.8954 16.4963 11.8776 16.7064 11.8707C16.509 11.9216 16.3141 11.9647 16.1236 12.0002L17.3333 12.0002L19.3333 12.0002C19.1751 12.4749 18.9623 12.9222 18.7028 13.3335H9.29712C9.0376 12.9222 8.82476 12.4749 8.66662 12.0002L10.6666 12.0002ZM13.9999 16.0002C15.3467 16.0002 16.5835 15.5007 17.5547 14.6668H10.4452C11.4164 15.5007 12.6532 16.0002 13.9999 16.0002Z" fill="white"/>
<path fill-rule="evenodd" clip-rule="evenodd" d="M14 4.00008C14.3682 4.00008 14.6667 3.7016 14.6667 3.33341C14.6667 2.96522 14.3682 2.66675 14 2.66675C13.6318 2.66675 13.3333 2.96522 13.3333 3.33341C13.3333 3.7016 13.6318 4.00008 14 4.00008ZM8.66667 7.33341C9.03486 7.33341 9.33333 7.03494 9.33333 6.66675C9.33333 6.29856 9.03486 6.00008 8.66667 6.00008C8.29848 6.00008 8 6.29856 8 6.66675C8 7.03494 8.29848 7.33341 8.66667 7.33341ZM20 6.66675C20 7.03494 19.7015 7.33341 19.3333 7.33341C18.9651 7.33341 18.6667 7.03494 18.6667 6.66675C18.6667 6.29856 18.9651 6.00008 19.3333 6.00008C19.7015 6.00008 20 6.29856 20 6.66675ZM17.3333 5.33341C17.7015 5.33341 18 5.03494 18 4.66675C18 4.29856 17.7015 4.00008 17.3333 4.00008C16.9651 4.00008 16.6667 4.29856 16.6667 4.66675C16.6667 5.03494 16.9651 5.33341 17.3333 5.33341ZM11.3333 4.66675C11.3333 5.03494 11.0349 5.33341 10.6667 5.33341C10.2985 5.33341 10 5.03494 10 4.66675C10 4.29856 10.2985 4.00008 10.6667 4.00008C11.0349 4.00008 11.3333 4.29856 11.3333 4.66675Z" fill="#FCD117"/>
</g>
</svg>
