<svg width="28" height="20" viewBox="0 0 28 20" fill="none" xmlns="http://www.w3.org/2000/svg">
<rect x="0.25" y="0.25" width="27.5" height="19.5" rx="1.75" fill="white" stroke="#F5F5F5" stroke-width="0.5"/>
<mask id="mask0" mask-type="alpha" maskUnits="userSpaceOnUse" x="0" y="0" width="28" height="20">
<rect x="0.25" y="0.25" width="27.5" height="19.5" rx="1.75" fill="white" stroke="white" stroke-width="0.5"/>
</mask>
<g mask="url(#mask0)">
<path fill-rule="evenodd" clip-rule="evenodd" d="M14.6666 20H28V0H14.6666V20Z" fill="#DE233C"/>
<mask id="path-4-outside-1" maskUnits="userSpaceOnUse" x="1.66663" y="1.66675" width="6" height="6" fill="black">
<rect fill="white" x="1.66663" y="1.66675" width="6" height="6"/>
<path fill-rule="evenodd" clip-rule="evenodd" d="M5.33329 2.66675H3.99996V4.00008H2.66663V5.33341H3.99996V6.66675H5.33329V5.33341H6.66663V4.00008H5.33329V2.66675Z"/>
</mask>
<path fill-rule="evenodd" clip-rule="evenodd" d="M5.33329 2.66675H3.99996V4.00008H2.66663V5.33341H3.99996V6.66675H5.33329V5.33341H6.66663V4.00008H5.33329V2.66675Z" fill="#CCCCCD"/>
<path d="M3.99996 2.66675V2.00008H3.33329V2.66675H3.99996ZM5.33329 2.66675H5.99996V2.00008H5.33329V2.66675ZM3.99996 4.00008V4.66675H4.66663V4.00008H3.99996ZM2.66663 4.00008V3.33341H1.99996V4.00008H2.66663ZM2.66663 5.33341H1.99996V6.00008H2.66663V5.33341ZM3.99996 5.33341H4.66663V4.66675H3.99996V5.33341ZM3.99996 6.66675H3.33329V7.33341H3.99996V6.66675ZM5.33329 6.66675V7.33341H5.99996V6.66675H5.33329ZM5.33329 5.33341V4.66675H4.66663V5.33341H5.33329ZM6.66663 5.33341V6.00008H7.33329V5.33341H6.66663ZM6.66663 4.00008H7.33329V3.33341H6.66663V4.00008ZM5.33329 4.00008H4.66663V4.66675H5.33329V4.00008ZM3.99996 3.33341H5.33329V2.00008H3.99996V3.33341ZM4.66663 4.00008V2.66675H3.33329V4.00008H4.66663ZM2.66663 4.66675H3.99996V3.33341H2.66663V4.66675ZM3.33329 5.33341V4.00008H1.99996V5.33341H3.33329ZM3.99996 4.66675H2.66663V6.00008H3.99996V4.66675ZM4.66663 6.66675V5.33341H3.33329V6.66675H4.66663ZM5.33329 6.00008H3.99996V7.33341H5.33329V6.00008ZM4.66663 5.33341V6.66675H5.99996V5.33341H4.66663ZM6.66663 4.66675H5.33329V6.00008H6.66663V4.66675ZM5.99996 4.00008V5.33341H7.33329V4.00008H5.99996ZM5.33329 4.66675H6.66663V3.33341H5.33329V4.66675ZM4.66663 2.66675V4.00008H5.99996V2.66675H4.66663Z" fill="#7B716A" fill-opacity="0.66" mask="url(#path-4-outside-1)"/>
<path fill-rule="evenodd" clip-rule="evenodd" d="M4.66667 5.33333C5.03486 5.33333 5.33333 5.03486 5.33333 4.66667C5.33333 4.29848 5.03486 4 4.66667 4C4.29848 4 4 4.29848 4 4.66667C4 5.03486 4.29848 5.33333 4.66667 5.33333Z" fill="#7B716A"/>
</g>
</svg>
