<svg width="28" height="20" viewBox="0 0 28 20" fill="none" xmlns="http://www.w3.org/2000/svg">
<rect x="0.25" y="0.25" width="27.5" height="19.5" rx="1.75" fill="white" stroke="#F5F5F5" stroke-width="0.5"/>
<mask id="mask0" mask-type="alpha" maskUnits="userSpaceOnUse" x="0" y="0" width="28" height="20">
<rect x="0.25" y="0.25" width="27.5" height="19.5" rx="1.75" fill="white" stroke="white" stroke-width="0.5"/>
</mask>
<g mask="url(#mask0)">
<rect x="10.6666" width="6.66667" height="20" fill="#D6182D"/>
<rect y="6.66675" width="28" height="6.66667" fill="#1425A2"/>
<path fill-rule="evenodd" clip-rule="evenodd" d="M11.3333 11.6667L10.8619 11.8048L11 11.3334L10.8619 10.862L11.3333 11.0001L11.8047 10.862L11.6666 11.3334L11.8047 11.8048L11.3333 11.6667Z" fill="white"/>
<path fill-rule="evenodd" clip-rule="evenodd" d="M16.6667 11.6667L16.1953 11.8048L16.3333 11.3334L16.1953 10.862L16.6667 11.0001L17.1381 10.862L17 11.3334L17.1381 11.8048L16.6667 11.6667Z" fill="white"/>
<path fill-rule="evenodd" clip-rule="evenodd" d="M8.66667 10.3333L8.19526 10.4713L8.33333 9.99992L8.19526 9.52851L8.66667 9.66659L9.13807 9.52851L9 9.99992L9.13807 10.4713L8.66667 10.3333Z" fill="white"/>
<path fill-rule="evenodd" clip-rule="evenodd" d="M19.3333 10.3333L18.8619 10.4713L19 9.99992L18.8619 9.52851L19.3333 9.66659L19.8047 9.52851L19.6666 9.99992L19.8047 10.4713L19.3333 10.3333Z" fill="white"/>
<path fill-rule="evenodd" clip-rule="evenodd" d="M14 9L13.5286 9.13807L13.6667 8.66667L13.5286 8.19526L14 8.33333L14.4714 8.19526L14.3334 8.66667L14.4714 9.13807L14 9Z" fill="white"/>
</g>
</svg>
