<svg width="28" height="20" viewBox="0 0 28 20" fill="none" xmlns="http://www.w3.org/2000/svg">
<rect width="28" height="20" rx="2" fill="white"/>
<mask id="mask0" mask-type="alpha" maskUnits="userSpaceOnUse" x="0" y="0" width="28" height="20">
<rect width="28" height="20" rx="2" fill="white"/>
</mask>
<g mask="url(#mask0)">
<path fill-rule="evenodd" clip-rule="evenodd" d="M0 4H28V0H0V4Z" fill="#1461B6"/>
<path fill-rule="evenodd" clip-rule="evenodd" d="M0 20H28V16H0V20Z" fill="#1461B6"/>
<path fill-rule="evenodd" clip-rule="evenodd" d="M0 16H28V4H0V16Z" fill="white"/>
<path fill-rule="evenodd" clip-rule="evenodd" d="M0 14.6666H28V5.33325H0V14.6666Z" fill="#F53846"/>
<path fill-rule="evenodd" clip-rule="evenodd" d="M13.3333 10.0001C13.3333 11.841 11.8409 13.3334 9.99996 13.3334C8.15901 13.3334 6.66663 11.841 6.66663 10.0001C6.66663 8.15913 8.15901 6.66675 9.99996 6.66675L9.21375 8.91796L6.82977 8.97002L8.72785 10.4134L8.04068 12.6968L9.99996 11.3377L11.9592 12.6968L11.2721 10.4134L13.1701 8.97002L10.7862 8.91796L9.99996 6.66675C11.8409 6.66675 13.3333 8.15913 13.3333 10.0001Z" fill="white"/>
</g>
</svg>
