<svg width="28" height="20" viewBox="0 0 28 20" fill="none" xmlns="http://www.w3.org/2000/svg">
<rect x="0.25" y="0.25" width="27.5" height="19.5" rx="1.75" fill="white" stroke="#F5F5F5" stroke-width="0.5"/>
<mask id="mask0" mask-type="alpha" maskUnits="userSpaceOnUse" x="0" y="0" width="28" height="20">
<rect x="0.25" y="0.25" width="27.5" height="19.5" rx="1.75" fill="white" stroke="white" stroke-width="0.5"/>
</mask>
<g mask="url(#mask0)">
<path fill-rule="evenodd" clip-rule="evenodd" d="M0 20H28V9.33337H0V20Z" fill="#7CCCF5"/>
<path d="M11.9999 9.33337C11.9999 8.96518 11.7014 8.66671 11.3333 8.66671C10.9651 8.66671 10.6666 8.96518 10.6666 9.33337H11.9999ZM12.3289 12.2181C12.6474 12.4029 13.0554 12.2946 13.2402 11.9761C13.4249 11.6576 13.3166 11.2497 12.9981 11.0649L12.3289 12.2181ZM15.0756 11.0199C14.7654 11.2183 14.6748 11.6305 14.8731 11.9407C15.0715 12.2509 15.4838 12.3415 15.794 12.1431L15.0756 11.0199ZM17.3333 9.33337C17.3333 8.96518 17.0348 8.66671 16.6666 8.66671C16.2984 8.66671 15.9999 8.96518 15.9999 9.33337H17.3333ZM10.6666 9.33337C10.6666 10.5664 11.3365 11.6423 12.3289 12.2181L12.9981 11.0649C12.3998 10.7177 11.9999 10.0719 11.9999 9.33337H10.6666ZM15.794 12.1431C16.7182 11.552 17.3333 10.5147 17.3333 9.33337H15.9999C15.9999 10.0411 15.6329 10.6635 15.0756 11.0199L15.794 12.1431Z" fill="#445F42"/>
<path fill-rule="evenodd" clip-rule="evenodd" d="M14.0001 10.6666C14.7365 10.6666 15.3334 9.7712 15.3334 8.66663C15.3334 7.56206 14.7365 6.66663 14.0001 6.66663C13.2637 6.66663 12.6667 7.56206 12.6667 8.66663C12.6667 9.7712 13.2637 10.6666 14.0001 10.6666Z" fill="#D89F3D"/>
</g>
</svg>
