<svg width="28" height="20" viewBox="0 0 28 20" fill="none" xmlns="http://www.w3.org/2000/svg">
<rect width="28" height="20" rx="2" fill="white"/>
<mask id="mask0" mask-type="alpha" maskUnits="userSpaceOnUse" x="0" y="0" width="28" height="20">
<rect width="28" height="20" rx="2" fill="white"/>
</mask>
<g mask="url(#mask0)">
<path fill-rule="evenodd" clip-rule="evenodd" d="M0 20H28V0H0V20Z" fill="#30C375"/>
<rect x="4" width="4" height="20" fill="#DE414F"/>
<path fill-rule="evenodd" clip-rule="evenodd" d="M6 4.00004C7.10457 4.00004 8 3.40309 8 2.66671C8 1.93033 7.10457 1.33337 6 1.33337C4.89543 1.33337 4 1.93033 4 2.66671C4 3.40309 4.89543 4.00004 6 4.00004Z" fill="white"/>
<mask id="mask1" mask-type="alpha" maskUnits="userSpaceOnUse" x="4" y="1" width="4" height="4">
<path fill-rule="evenodd" clip-rule="evenodd" d="M6 4.00004C7.10457 4.00004 8 3.40309 8 2.66671C8 1.93033 7.10457 1.33337 6 1.33337C4.89543 1.33337 4 1.93033 4 2.66671C4 3.40309 4.89543 4.00004 6 4.00004Z" fill="white"/>
</mask>
<g mask="url(#mask1)">
<path fill-rule="evenodd" clip-rule="evenodd" d="M6.00004 3.33333C6.36823 3.33333 6.66671 3.03486 6.66671 2.66667C6.66671 2.29848 6.36823 2 6.00004 2C5.63185 2 5.33337 2.29848 5.33337 2.66667C5.33337 3.03486 5.63185 3.33333 6.00004 3.33333Z" fill="#DD404F"/>
<rect x="4" y="1.33337" width="2" height="1.33333" fill="#FBAF29"/>
<rect x="6" y="2.66675" width="2" height="1.33333" fill="#FBAF29"/>
</g>
<path fill-rule="evenodd" clip-rule="evenodd" d="M6 18.6667C7.10457 18.6667 8 18.0697 8 17.3333C8 16.597 7.10457 16 6 16C4.89543 16 4 16.597 4 17.3333C4 18.0697 4.89543 18.6667 6 18.6667Z" fill="white"/>
<mask id="mask2" mask-type="alpha" maskUnits="userSpaceOnUse" x="4" y="16" width="4" height="3">
<path fill-rule="evenodd" clip-rule="evenodd" d="M6 18.6667C7.10457 18.6667 8 18.0697 8 17.3333C8 16.597 7.10457 16 6 16C4.89543 16 4 16.597 4 17.3333C4 18.0697 4.89543 18.6667 6 18.6667Z" fill="white"/>
</mask>
<g mask="url(#mask2)">
<path fill-rule="evenodd" clip-rule="evenodd" d="M6.00004 18C6.36823 18 6.66671 17.7015 6.66671 17.3333C6.66671 16.9651 6.36823 16.6666 6.00004 16.6666C5.63185 16.6666 5.33337 16.9651 5.33337 17.3333C5.33337 17.7015 5.63185 18 6.00004 18Z" fill="#DD404F"/>
<rect x="4" y="16" width="2" height="1.33333" fill="#FBAF29"/>
<rect x="6" y="17.3334" width="2" height="1.33333" fill="#FBAF29"/>
</g>
<path fill-rule="evenodd" clip-rule="evenodd" d="M6 12C7.10457 12 8 11.4031 8 10.6667C8 9.93033 7.10457 9.33337 6 9.33337C4.89543 9.33337 4 9.93033 4 10.6667C4 11.4031 4.89543 12 6 12Z" fill="#28AE67"/>
<mask id="mask3" mask-type="alpha" maskUnits="userSpaceOnUse" x="4" y="9" width="4" height="4">
<path fill-rule="evenodd" clip-rule="evenodd" d="M6 12C7.10457 12 8 11.4031 8 10.6667C8 9.93033 7.10457 9.33337 6 9.33337C4.89543 9.33337 4 9.93033 4 10.6667C4 11.4031 4.89543 12 6 12Z" fill="white"/>
</mask>
<g mask="url(#mask3)">
<path fill-rule="evenodd" clip-rule="evenodd" d="M5.99996 11.3333C6.73634 11.3333 7.33329 11.0349 7.33329 10.6667C7.33329 10.2985 6.73634 10 5.99996 10C5.26358 10 4.66663 10.2985 4.66663 10.6667C4.66663 11.0349 5.26358 11.3333 5.99996 11.3333Z" fill="#DD404F"/>
</g>
<path fill-rule="evenodd" clip-rule="evenodd" d="M6 14.6667C7.10457 14.6667 8 14.3682 8 14C8 13.6319 7.10457 13.3334 6 13.3334C4.89543 13.3334 4 13.6319 4 14C4 14.3682 4.89543 14.6667 6 14.6667Z" fill="#28AE67"/>
<mask id="mask4" mask-type="alpha" maskUnits="userSpaceOnUse" x="4" y="13" width="4" height="2">
<path fill-rule="evenodd" clip-rule="evenodd" d="M6 14.6667C7.10457 14.6667 8 14.3682 8 14C8 13.6319 7.10457 13.3334 6 13.3334C4.89543 13.3334 4 13.6319 4 14C4 14.3682 4.89543 14.6667 6 14.6667Z" fill="white"/>
</mask>
<g mask="url(#mask4)">
</g>
<path fill-rule="evenodd" clip-rule="evenodd" d="M6 8.00004C7.10457 8.00004 8 7.40309 8 6.66671C8 5.93033 7.10457 5.33337 6 5.33337C4.89543 5.33337 4 5.93033 4 6.66671C4 7.40309 4.89543 8.00004 6 8.00004Z" fill="#FBAF29"/>
<mask id="mask5" mask-type="alpha" maskUnits="userSpaceOnUse" x="4" y="5" width="4" height="4">
<path fill-rule="evenodd" clip-rule="evenodd" d="M6 8.00004C7.10457 8.00004 8 7.40309 8 6.66671C8 5.93033 7.10457 5.33337 6 5.33337C4.89543 5.33337 4 5.93033 4 6.66671C4 7.40309 4.89543 8.00004 6 8.00004Z" fill="white"/>
</mask>
<g mask="url(#mask5)">
<path fill-rule="evenodd" clip-rule="evenodd" d="M6.00004 7.33333C6.36823 7.33333 6.66671 7.03486 6.66671 6.66667C6.66671 6.29848 6.36823 6 6.00004 6C5.63185 6 5.33337 6.29848 5.33337 6.66667C5.33337 7.03486 5.63185 7.33333 6.00004 7.33333Z" fill="#DD404F"/>
<rect x="4" y="5.33337" width="1.33333" height="2.66667" fill="#28AE67"/>
<rect x="6.66663" y="5.33337" width="1.33333" height="2.66667" fill="#28AE67"/>
</g>
<path fill-rule="evenodd" clip-rule="evenodd" d="M14.8226 4.23812C14.5859 4.52017 14.6227 4.94067 14.9048 5.17734C15.1868 5.41401 15.6073 5.37722 15.844 5.09517C16.0807 4.81312 16.0439 4.39261 15.7618 4.15595C15.4798 3.91928 15.0593 3.95607 14.8226 4.23812ZM13.0952 6.82261C12.8131 6.58594 12.3926 6.62273 12.1559 6.90478C11.9193 7.18683 11.9561 7.60734 12.2381 7.844C12.5202 8.08067 12.9407 8.04388 13.1773 7.76183C13.414 7.47978 13.3772 7.05928 13.0952 6.82261V6.82261ZM11.7618 5.48928C11.4798 5.25261 11.0593 5.2894 10.8226 5.57145C10.5859 5.8535 10.6227 6.274 10.9048 6.51067C11.1868 6.74734 11.6073 6.71055 11.844 6.4285C12.0807 6.14645 12.0439 5.72595 11.7618 5.48928V5.48928ZM14.4285 2.82261C14.1465 2.58594 13.7259 2.62273 13.4893 2.90478C13.2526 3.18683 13.2894 3.60734 13.5714 3.844C13.8535 4.08067 14.274 4.04388 14.5107 3.76183C14.7473 3.47978 14.7105 3.05928 14.4285 2.82261V2.82261ZM13.7618 4.82261C13.4798 4.58594 13.0593 4.62273 12.8226 4.90478C12.5859 5.18683 12.6227 5.60734 12.9048 5.844C13.1868 6.08067 13.6073 6.04388 13.844 5.76183C14.0807 5.47978 14.0439 5.05928 13.7618 4.82261V4.82261Z" fill="white"/>
<path fill-rule="evenodd" clip-rule="evenodd" d="M17.4761 9.45057C15.888 11.0386 13.3133 11.0386 11.7253 9.45057C11.5714 9.2967 11.4324 9.13356 11.3083 8.96295C12.8985 10.1192 15.1374 9.98022 16.5716 8.54604C18.0057 7.11187 18.1447 4.87296 16.9885 3.28284C17.1591 3.40689 17.3222 3.54586 17.4761 3.69974C19.0641 5.28779 19.0641 7.86253 17.4761 9.45057Z" fill="white"/>
</g>
</svg>
