<svg width="28" height="20" viewBox="0 0 28 20" fill="none" xmlns="http://www.w3.org/2000/svg">
<rect width="28" height="20" rx="2" fill="#009F60"/>
<mask id="mask0" mask-type="alpha" maskUnits="userSpaceOnUse" x="0" y="0" width="28" height="20">
<rect width="28" height="20" rx="2" fill="white"/>
</mask>
<g mask="url(#mask0)">
<rect x="24" y="10.6666" width="4" height="9.33333" fill="#EA8B42"/>
<path fill-rule="evenodd" clip-rule="evenodd" d="M20 20H24V10.6666H20V20Z" fill="#1A1919"/>
<path fill-rule="evenodd" clip-rule="evenodd" d="M16 20H20V10.6666H16V20Z" fill="#DB3C36"/>
<path fill-rule="evenodd" clip-rule="evenodd" d="M21.014 3.48403C20.9222 3.48662 20.8546 3.45479 20.8304 3.40128C20.9803 3.31337 21.0816 3.33298 21.2072 3.44498C21.2314 3.35741 21.2072 3.25986 21.1541 3.20137C21.101 3.14287 21.0574 3.14287 20.9851 3.13788C20.9126 3.13307 20.84 3.11363 20.7917 3.11363C20.7209 2.95758 20.5435 3.02365 20.3731 3.08765C20.096 3.19156 19.8471 3.38029 19.7354 3.56868C19.6843 3.65487 19.6781 3.68877 19.6467 3.73763C19.6726 3.73436 19.6709 3.73436 19.687 3.72455C19.6676 3.93909 19.6419 4.13728 19.6805 4.26408C19.6323 4.44937 19.6709 4.56636 19.7288 4.62485C19.787 4.68335 19.811 4.70778 19.8207 4.77608C19.8303 4.84421 19.8593 4.90752 19.9076 4.94657C19.956 4.98563 19.985 5.04412 19.9898 5.07836C19.9946 5.11242 20.144 5.25935 20.2071 5.29771C20.2313 5.31216 20.2361 5.34158 20.2652 5.38047C20.2023 5.75105 20.4536 6.12163 20.3955 6.48722C20.4391 6.49203 20.497 6.48722 20.5551 6.47259C20.6033 6.78451 20.6323 6.93573 20.3618 7.02829C20.0912 7.12102 19.9433 7.21221 20.0187 7.31595C20.0719 7.38907 20.1819 7.32541 20.2507 7.26227C20.3038 7.21358 20.3666 7.16971 20.4149 7.15509C20.4632 7.14046 20.473 7.15509 20.4487 7.2184C20.4245 7.28188 20.2942 7.41831 20.2892 7.48662C20.2844 7.55492 20.3424 7.6036 20.4343 7.54993C20.526 7.49625 20.6067 7.35586 20.6275 7.27208C20.6419 7.21358 20.6662 7.17453 20.6612 7.27208C20.6564 7.36963 20.5985 7.54511 20.729 7.57436C20.8594 7.6036 20.8982 7.44756 20.8546 7.30614C20.8111 7.1649 20.7967 7.08679 20.8159 7.0381C20.8352 6.98924 20.8546 6.96016 20.9028 6.97462C20.9511 6.98924 21.0478 6.9698 21.043 6.89186C21.038 6.81393 20.9705 6.75044 20.8932 6.79431C20.8159 6.83819 20.7579 6.83165 20.7917 6.73582C20.8159 6.66752 20.8594 6.58459 20.8642 6.53109C20.9174 6.60902 21.2168 6.61883 21.3377 6.54571C21.3667 6.69195 21.444 6.82356 21.275 6.96016C21.1058 7.09659 20.9705 7.22821 20.9753 7.32576C20.9803 7.4233 21.0188 7.48163 21.1058 7.43294C21.1927 7.38425 21.2458 7.31595 21.2652 7.25264C21.2846 7.18915 21.3233 7.18915 21.3039 7.26726C21.2846 7.3452 21.2508 7.45737 21.2652 7.52567C21.2798 7.5938 21.386 7.59879 21.4294 7.5353C21.473 7.47199 21.4632 7.38907 21.4536 7.30614C21.444 7.22322 21.4586 7.13565 21.4778 7.10141C21.4971 7.06735 21.5357 7.01849 21.5744 7.11122C21.6132 7.20378 21.6324 7.2769 21.7097 7.30133C21.787 7.32576 21.845 7.29152 21.8306 7.19896C21.816 7.1064 21.7145 7.00386 21.6132 6.92593C21.5117 6.84799 21.5455 6.80894 21.5503 6.73582C21.5551 6.6627 21.5407 6.53109 21.5357 6.47259C21.6276 6.54089 21.7291 6.53109 21.7772 6.53109C21.8256 6.53109 21.905 6.51612 21.8256 6.44335C21.6662 6.29711 21.7193 6.2092 21.6082 6.10201C21.4971 5.99483 21.3956 5.82898 21.3619 5.68773C21.3279 5.54631 21.2535 5.28791 21.1058 5.15629C21.0236 5.08317 20.9995 4.88326 21.0188 4.6541C21.038 4.42494 21.043 4.17152 20.8352 4.05453C20.6275 3.93754 20.6323 3.83999 20.7 3.73763C20.7675 3.63526 20.8544 3.53513 20.9657 3.52791C20.9907 3.52636 21.0485 3.52154 21.072 3.50434C21.0615 3.49625 21.0446 3.48335 21.014 3.48403Z" fill="#EA8B42"/>
<path fill-rule="evenodd" clip-rule="evenodd" d="M19.6629 4.01066C19.6578 4.10976 19.6602 4.19698 19.6806 4.26408C19.6324 4.44937 19.671 4.56636 19.7289 4.62486C19.787 4.68335 19.811 4.70778 19.8208 4.77608C19.8304 4.84421 19.8594 4.90752 19.9077 4.94658C19.9561 4.98563 19.985 5.04412 19.9898 5.07836C19.9946 5.11243 20.1441 5.25935 20.2072 5.29772C20.2314 5.31217 20.2362 5.34159 20.2653 5.38047C20.2391 5.53445 20.2667 5.68843 20.3044 5.84206C19.9629 6.128 19.6259 5.99311 19.7677 5.70064C19.4841 5.92808 18.9947 5.92172 19.1042 5.70064C18.6597 5.85668 18.5245 5.72662 18.5824 5.58365C18.2089 5.73316 18.0155 5.59019 18.0671 5.4861C17.7578 5.57058 17.5581 5.51862 17.5259 5.46666C17.4938 5.4147 17.571 5.29772 17.6419 5.23922C17.5002 5.29118 17.3649 5.29118 17.236 5.27174C17.1073 5.25212 17.1395 5.21307 17.1652 5.15458C17.1911 5.09608 17.2249 5.00352 17.3279 4.91251C17.0815 4.9612 16.7723 4.99544 16.5549 4.92215C16.5139 4.90838 16.4438 4.8929 16.4872 4.8492C16.5307 4.80533 16.6612 4.69797 16.8206 4.62967C16.4582 4.68335 15.7722 4.7224 15.579 4.50305C15.7674 4.54193 16.0089 4.464 16.1635 4.40068C15.5548 4.33238 14.7239 3.91311 14.7141 3.50365C14.8881 3.78632 15.1878 3.88387 15.4873 3.97161C15.0813 3.73264 14.9123 3.44498 14.8979 3.25488C15.1297 3.47922 15.4823 3.73264 15.8303 3.79131C15.5838 3.65969 15.2649 3.27449 15.178 3.00627C15.3568 3.16713 15.8157 3.42554 16.1298 3.50847C15.9124 3.3378 15.5598 2.93316 15.579 2.70898C15.6611 2.79191 15.8641 2.94778 16.2794 3.19157C16.695 3.43535 16.9204 3.41746 17.2634 3.49058C17.2007 3.4061 17.1443 3.29393 17.1395 3.26468C17.241 3.27931 17.3375 3.31836 17.6274 3.49866C17.9173 3.67913 18.5507 3.73436 18.9126 3.89367C19.1781 4.01066 19.5566 3.93754 19.6629 4.01066Z" fill="#EA8B42"/>
<path fill-rule="evenodd" clip-rule="evenodd" d="M21.8494 6.51441C21.8653 6.50167 21.8653 6.47965 21.8256 6.44335C21.6661 6.29711 21.7193 6.2092 21.6082 6.10202C21.4971 5.99484 21.3956 5.82899 21.3618 5.68774C21.3279 5.54632 21.2535 5.28791 21.1057 5.1563C21.0236 5.08318 20.9994 4.88327 21.0188 4.6541C21.0353 4.45797 21.0413 4.24413 20.9124 4.1132C21.1539 4.0449 21.3764 4.0301 21.4536 4.10804C21.8545 4.00567 22.2025 3.97471 22.5438 3.95217C22.9368 3.92602 23.6775 3.75707 24.2058 3.39957C24.1736 3.52963 23.9933 3.72456 23.8321 3.8221C24.3668 3.69204 25.011 3.45152 25.5586 3.04206C25.5521 3.32817 25.3203 3.54253 25.1849 3.6597C25.5586 3.45152 26.106 3.19157 26.2928 2.86658C26.3749 3.19965 25.8162 3.63527 25.5133 3.87578C25.8226 3.72628 26.222 3.58813 26.3766 3.36705C26.3734 3.63681 26.0223 3.97161 25.6873 4.16653C26.0288 4.03664 26.4089 3.90004 26.6278 3.69858C26.6535 3.97006 25.6068 4.59406 25.0882 4.76456C25.5392 4.6541 26.1253 4.5046 26.383 4.34856C26.3701 4.40378 26.265 4.4812 26.1886 4.53763C25.8735 4.77058 25.3902 4.89565 25.0947 4.95311C25.1334 5.1157 25.0818 5.20671 24.9015 5.21961C24.7212 5.23268 24.2847 5.16284 24.0658 5.05221C24.0336 5.07165 23.9948 5.07836 23.9513 5.08318C24.1638 5.24404 24.2364 5.36103 24.1928 5.42933C24.1494 5.49763 23.9972 5.48524 23.8813 5.46099C23.973 5.71939 23.6662 5.70236 23.4102 5.55595C23.5117 5.68774 23.5263 5.79974 23.3861 5.82899C23.246 5.85823 23.1348 5.8486 22.9995 5.76068C22.9899 5.85823 22.8965 5.92327 22.7725 5.89075C23.1977 6.14916 23.1735 6.24344 23.101 6.34081C23.0286 6.43836 22.7749 6.41892 22.6397 6.33118C22.5817 6.53109 22.3506 6.53178 22.1782 6.37264C22.1766 6.4523 22.0121 6.6104 21.8494 6.51441Z" fill="#EA8B42"/>
<path fill-rule="evenodd" clip-rule="evenodd" d="M19.8771 7.49465C19.8841 7.43306 19.8899 7.36149 19.9414 7.3159C19.993 7.27031 20.0252 7.23142 20.0703 7.27684C20.1154 7.32244 20.0864 7.36476 20.0252 7.3842C19.964 7.40364 19.9222 7.45887 19.9124 7.49465C19.9028 7.53044 19.8706 7.54988 19.8771 7.49465Z" fill="black"/>
<path fill-rule="evenodd" clip-rule="evenodd" d="M20.2281 7.79369C20.1962 7.69149 20.2122 7.55971 20.2475 7.52066C20.283 7.4816 20.3281 7.45562 20.3699 7.49468C20.4117 7.53373 20.4278 7.58896 20.3505 7.62147C20.2821 7.6502 20.2765 7.72212 20.2734 7.77425C20.2701 7.8262 20.2475 7.85545 20.2281 7.79369Z" fill="black"/>
<path fill-rule="evenodd" clip-rule="evenodd" d="M20.6792 7.53043C20.6543 7.57224 20.6855 7.7417 20.7694 7.78385C20.8287 7.81379 20.8563 7.80673 20.8208 7.75134C20.7855 7.69611 20.7983 7.64415 20.8177 7.61491C20.8369 7.58566 20.8338 7.5337 20.7918 7.50772C20.75 7.48157 20.6984 7.49792 20.6792 7.53043Z" fill="black"/>
<path fill-rule="evenodd" clip-rule="evenodd" d="M21.043 7.37768C20.9899 7.33743 20.94 7.38577 20.9206 7.41983C20.8819 7.48814 20.911 7.58568 20.9722 7.64091C21.0334 7.69614 21.0236 7.62147 21.0043 7.58895C20.9851 7.55644 20.9818 7.4914 21.0236 7.48487C21.0655 7.4785 21.0946 7.41657 21.043 7.37768Z" fill="black"/>
<path fill-rule="evenodd" clip-rule="evenodd" d="M21.3458 7.4882C21.294 7.47289 21.2427 7.52726 21.2491 7.59229C21.2539 7.64081 21.2588 7.70274 21.307 7.73526C21.3394 7.75693 21.3619 7.77104 21.3458 7.71255C21.3296 7.65405 21.3555 7.60519 21.3843 7.58902C21.4133 7.57285 21.4004 7.50455 21.3458 7.4882Z" fill="black"/>
<path fill-rule="evenodd" clip-rule="evenodd" d="M21.7742 7.21186C21.7367 7.23836 21.7387 7.29978 21.7742 7.32249C21.8095 7.3452 21.8611 7.37771 21.8515 7.43294C21.8418 7.48816 21.8707 7.50778 21.8966 7.44601C21.9223 7.38425 21.9256 7.29324 21.8966 7.25092C21.8675 7.20859 21.8063 7.18915 21.7742 7.21186Z" fill="black"/>
<path fill-rule="evenodd" clip-rule="evenodd" d="M20.8402 3.39685C20.8626 3.44645 20.9268 3.47573 21.0137 3.47329L21.0138 3.47329C21.0414 3.47266 21.0581 3.48007 21.0783 3.51302C21.057 3.52858 21.017 3.5355 20.9664 3.53864C20.874 3.54463 20.7934 3.61551 20.7089 3.74358C20.6328 3.85861 20.6594 3.94322 20.8405 4.04515C21.0204 4.14645 21.0573 4.3229 21.0295 4.65501C21.0091 4.89632 21.0385 5.08204 21.1128 5.14825C21.2359 5.25785 21.3151 5.44723 21.3723 5.68523C21.4049 5.82155 21.5035 5.98611 21.6156 6.09426C21.642 6.11968 21.6608 6.14531 21.6759 6.17455C21.6845 6.19138 21.6908 6.20656 21.7011 6.23381C21.7364 6.32788 21.7603 6.36889 21.8328 6.43541C21.873 6.47228 21.8808 6.50294 21.856 6.5229C21.8396 6.53607 21.8101 6.54184 21.7772 6.54184L21.7594 6.54209C21.6814 6.54353 21.6312 6.53712 21.5734 6.50835C21.5649 6.5041 21.5566 6.49943 21.5484 6.49431L21.5533 6.54854C21.5554 6.57269 21.5571 6.59412 21.5585 6.6145C21.5619 6.66567 21.5629 6.70651 21.5609 6.73653C21.5602 6.7479 21.5589 6.7578 21.5565 6.77341C21.552 6.80223 21.5511 6.81012 21.552 6.82266C21.5541 6.85339 21.5723 6.88098 21.6197 6.9174C21.7438 7.01291 21.8276 7.11159 21.8411 7.1973C21.8561 7.29362 21.7957 7.33978 21.7065 7.31158C21.6518 7.29433 21.6237 7.25858 21.5913 7.1811C21.5895 7.17682 21.5848 7.16528 21.5798 7.15283C21.5738 7.13812 21.5674 7.12213 21.5645 7.11538C21.5487 7.07758 21.5344 7.06545 21.5218 7.0691C21.5109 7.07224 21.4988 7.08605 21.4871 7.10669C21.4672 7.14215 21.4555 7.23002 21.4642 7.3049L21.4643 7.3057C21.479 7.43235 21.4764 7.48584 21.4382 7.54139C21.3898 7.61232 21.2714 7.60592 21.2547 7.5279C21.2471 7.49176 21.2513 7.44401 21.2649 7.38064C21.2687 7.3632 21.273 7.34512 21.2786 7.32291L21.2935 7.26467C21.301 7.23461 21.2989 7.21777 21.2971 7.21742C21.2941 7.21685 21.283 7.23098 21.2754 7.2558C21.2537 7.32666 21.1951 7.39517 21.111 7.44233C21.0221 7.49208 20.9704 7.44147 20.9646 7.32629C20.9601 7.23452 21.0617 7.11827 21.2682 6.95179C21.3083 6.9194 21.3353 6.88649 21.3512 6.85203C21.3802 6.78963 21.376 6.74172 21.3442 6.61931C21.3376 6.59412 21.3335 6.57769 21.3302 6.56218C21.2081 6.6247 20.9527 6.61935 20.8715 6.55416C20.866 6.57982 20.854 6.61115 20.83 6.66844L20.8299 6.66873C20.8148 6.7047 20.8084 6.72075 20.8018 6.73941C20.7874 6.78014 20.7905 6.80165 20.8048 6.8075C20.8203 6.81383 20.8508 6.80599 20.8879 6.78496C20.9677 6.73966 21.0478 6.79898 21.0537 6.8912C21.0584 6.96755 20.9693 7.00598 20.8997 6.98492C20.8635 6.97408 20.8471 6.98841 20.8258 7.04206C20.8087 7.08535 20.8196 7.15642 20.8648 7.30297C20.9152 7.46653 20.8579 7.6143 20.7266 7.58485C20.6462 7.56684 20.6252 7.5031 20.6364 7.39158C20.6378 7.37777 20.6395 7.36456 20.6423 7.34394C20.6484 7.29886 20.6497 7.28859 20.6505 7.27153C20.6513 7.25583 20.6514 7.24344 20.6507 7.23449C20.6466 7.24411 20.6418 7.25855 20.6378 7.27467C20.613 7.37484 20.525 7.50926 20.4396 7.55922C20.3479 7.61278 20.2725 7.57117 20.2785 7.48584C20.2808 7.45445 20.3032 7.41441 20.3493 7.34964L20.3621 7.33182C20.4205 7.25102 20.4302 7.23679 20.4386 7.21453C20.4599 7.15927 20.4568 7.15365 20.418 7.16539C20.3744 7.17857 20.3141 7.21865 20.2579 7.27021C20.1624 7.35791 20.0612 7.39264 20.01 7.32229C19.9696 7.26661 19.9863 7.21168 20.054 7.15947C20.1135 7.11353 20.2138 7.06765 20.3583 7.01812C20.5872 6.93978 20.6048 6.86439 20.5577 6.48303C20.4995 6.49767 20.4401 6.50297 20.3849 6.48553C20.4086 6.3364 20.39 6.21654 20.3193 5.94268C20.2469 5.66253 20.2279 5.53633 20.2567 5.38693C20.2491 5.37691 20.2428 5.36707 20.2363 5.35566L20.2224 5.33071C20.2152 5.31835 20.2094 5.31161 20.2015 5.30691C20.1329 5.26516 19.9843 5.11683 19.9791 5.07986C19.9739 5.04254 19.9423 4.98837 19.9009 4.95495C19.8523 4.91566 19.8205 4.85164 19.8101 4.77761C19.8018 4.71981 19.7896 4.70125 19.7212 4.63244C19.6497 4.56028 19.6261 4.4305 19.6702 4.26722C19.6404 4.16932 19.6432 4.07505 19.671 3.7809L19.6745 3.74355C19.6713 3.74466 19.6679 3.74545 19.6634 3.7462L19.648 3.7483L19.6377 3.7318C19.6441 3.72186 19.6497 3.71216 19.6552 3.70153C19.6575 3.69699 19.6586 3.6947 19.6598 3.6924C19.6609 3.69007 19.6621 3.68772 19.6644 3.68298C19.6624 3.68701 19.6816 3.64609 19.6882 3.63283C19.6992 3.61048 19.7112 3.58835 19.7261 3.56318C19.8396 3.37187 20.0911 3.18195 20.3693 3.07758C20.633 2.97855 20.7389 2.97142 20.7917 3.10288C20.815 3.10288 20.8267 3.1045 20.8953 3.11568C20.9345 3.12207 20.9596 3.12542 20.9858 3.12716L21.0023 3.12827C21.0641 3.13245 21.0899 3.13797 21.1213 3.15847C21.135 3.16747 21.1484 3.17914 21.162 3.19413C21.219 3.2569 21.2421 3.35882 21.2175 3.44785L21.2001 3.45302C21.0737 3.34038 20.9772 3.3276 20.8402 3.39685ZM21.0654 3.51286C21.0486 3.49983 21.0361 3.4943 21.0143 3.49479L21.0143 3.49479C20.9196 3.49745 20.8472 3.46441 20.825 3.392C20.9696 3.30717 21.074 3.31747 21.2009 3.42525C21.1998 3.43092 21.1984 3.43654 21.1969 3.44211L21.2143 3.43694C21.2098 3.43293 21.2053 3.42903 21.2009 3.42525C21.2165 3.34749 21.1946 3.26197 21.1462 3.20862C21.1337 3.19492 21.1217 3.18444 21.1096 3.17648C21.0822 3.15859 21.0592 3.15367 21.0009 3.14973L20.9843 3.14862C20.9573 3.14682 20.9317 3.1434 20.8918 3.13691C20.8794 3.13488 20.8689 3.13317 20.8598 3.1317C20.8199 3.12524 20.8074 3.12321 20.7819 3.11809C20.7267 2.99628 20.6295 3.00281 20.3768 3.09772C20.1028 3.20049 19.8553 3.38745 19.7445 3.57418C19.7299 3.59887 19.7182 3.62053 19.7074 3.6424C19.7009 3.65542 19.6819 3.6961 19.6837 3.69227C19.6814 3.69709 19.6802 3.6995 19.679 3.7019C19.6778 3.7043 19.6766 3.70668 19.6742 3.71146C19.6721 3.71542 19.6701 3.71926 19.6679 3.72304C19.666 3.7238 19.6637 3.72436 19.6599 3.72497L19.6454 3.72696L19.6557 3.74345C19.6601 3.73665 19.6641 3.72995 19.6679 3.72304C19.6683 3.72289 19.6687 3.72273 19.6691 3.72256C19.6713 3.72156 19.6733 3.7204 19.6814 3.71536L19.6977 3.72552L19.6923 3.78293C19.6649 4.07337 19.6621 4.16701 19.6908 4.2668C19.6486 4.42911 19.6708 4.55106 19.7364 4.61726C19.8077 4.68907 19.8222 4.71101 19.8313 4.77458C19.841 4.84357 19.8703 4.90263 19.9143 4.9382C19.9599 4.97498 19.9943 5.03403 20.0003 5.07685C20.0043 5.10531 20.1492 5.24992 20.2126 5.28848C20.2241 5.29534 20.232 5.30462 20.2409 5.31982C20.2423 5.32226 20.246 5.32895 20.2493 5.33493C20.2517 5.3393 20.2539 5.3433 20.2549 5.34496C20.2565 5.34777 20.2581 5.35048 20.2597 5.35326C20.2643 5.36103 20.2692 5.36937 20.2758 5.38227C20.2497 5.5359 20.2684 5.66009 20.34 5.93728C20.4115 6.21405 20.4304 6.33583 20.3967 6.47653C20.4364 6.48092 20.4878 6.47696 20.5496 6.47219C20.5549 6.47178 20.5602 6.47137 20.5657 6.47095C20.6274 6.87037 20.6076 6.95554 20.3652 7.03847C20.2228 7.0873 20.1242 7.13237 20.067 7.17652C20.0076 7.22233 19.9947 7.26474 20.0274 7.30962C20.0674 7.36477 20.1564 7.33426 20.2434 7.25433C20.3019 7.20079 20.3645 7.15909 20.4118 7.1448C20.471 7.12687 20.4854 7.15261 20.4587 7.22224C20.4491 7.24721 20.4399 7.26079 20.3794 7.34445L20.3667 7.36214C20.3232 7.42326 20.3018 7.46165 20.2999 7.48737C20.2952 7.55476 20.3515 7.58583 20.4288 7.54064C20.5087 7.49388 20.5935 7.3644 20.617 7.2695C20.6252 7.23651 20.6354 7.21154 20.6456 7.20463C20.6582 7.19615 20.6676 7.20556 20.6706 7.22061C20.6727 7.23131 20.6731 7.24849 20.6719 7.27261C20.671 7.29056 20.6698 7.30098 20.6635 7.34685C20.6607 7.36724 20.6591 7.38024 20.6577 7.39374C20.6475 7.49569 20.6651 7.54903 20.7313 7.56387C20.8409 7.58844 20.8907 7.45984 20.8444 7.30932C20.7976 7.15781 20.7863 7.08383 20.8059 7.03413C20.8307 6.97143 20.8561 6.94939 20.9059 6.96432C20.9632 6.98168 21.0359 6.95036 21.0323 6.89255C21.0273 6.81477 20.9629 6.76707 20.8984 6.80368C20.8561 6.82767 20.8201 6.83695 20.7967 6.82742C20.7686 6.81596 20.7639 6.7824 20.7816 6.73222C20.7884 6.71304 20.7949 6.69676 20.8102 6.6604L20.8103 6.66011C20.8404 6.58814 20.851 6.55825 20.8535 6.53013L20.873 6.52502C20.9225 6.59758 21.2159 6.60685 21.3321 6.53651L21.3482 6.54362C21.3521 6.56362 21.3564 6.58128 21.3649 6.61388C21.398 6.74111 21.4025 6.79252 21.3707 6.8611C21.3532 6.89872 21.3242 6.93418 21.2816 6.96855C21.0814 7.13001 20.982 7.24369 20.986 7.32521C20.9912 7.42678 21.0288 7.46369 21.1005 7.42355C21.1801 7.37899 21.2349 7.31482 21.2549 7.24949C21.2654 7.21511 21.2829 7.19286 21.301 7.19629C21.3211 7.20007 21.3246 7.22851 21.3143 7.26987L21.2994 7.32821C21.2938 7.35019 21.2896 7.36803 21.2859 7.38517C21.2728 7.44577 21.2688 7.49108 21.2756 7.52342C21.2879 7.58091 21.3818 7.58599 21.4206 7.5292C21.4547 7.47959 21.4571 7.42949 21.443 7.30818L21.4429 7.30739C21.4338 7.22836 21.446 7.13607 21.4684 7.09608C21.4828 7.07074 21.4978 7.05364 21.5158 7.04844C21.5418 7.04095 21.5648 7.06047 21.5843 7.10706C21.5872 7.11396 21.5938 7.13019 21.5998 7.14499C21.6047 7.1573 21.6093 7.16863 21.6111 7.17278C21.6412 7.24497 21.6658 7.2762 21.7129 7.29107C21.7876 7.31467 21.8324 7.28046 21.8199 7.20064C21.8076 7.12208 21.7267 7.02683 21.6066 6.93447C21.5548 6.89463 21.5332 6.86187 21.5306 6.82414C21.5296 6.80934 21.5305 6.80069 21.5353 6.77007C21.5377 6.75506 21.5389 6.74569 21.5396 6.73512C21.5414 6.70627 21.5404 6.66623 21.5371 6.61594C21.5357 6.59572 21.5341 6.57443 21.532 6.55042L21.525 6.47351L21.5421 6.46396C21.5551 6.47368 21.5688 6.48202 21.5829 6.48909C21.6368 6.51593 21.6842 6.52196 21.759 6.52058L21.7772 6.52034C21.8055 6.52034 21.8311 6.51533 21.8426 6.50612C21.8543 6.49668 21.8502 6.48051 21.8183 6.45129C21.7429 6.38207 21.7175 6.33835 21.681 6.2414C21.6711 6.21488 21.665 6.20032 21.6568 6.18443C21.6428 6.15724 21.6254 6.13352 21.6008 6.10977C21.4858 5.99887 21.385 5.83073 21.3514 5.69025C21.2953 5.45637 21.2173 5.27007 21.0986 5.16434C21.0174 5.09205 20.9872 4.90093 21.0081 4.6532C21.0353 4.32902 20.9998 4.15954 20.83 4.06391C20.6386 3.95616 20.6076 3.85775 20.691 3.73169C20.7789 3.59848 20.864 3.52374 20.965 3.51718C20.9795 3.51628 20.9933 3.515 21.0058 3.51384C21.0329 3.51133 21.0543 3.50935 21.0654 3.51286Z" fill="black"/>
<path fill-rule="evenodd" clip-rule="evenodd" d="M19.4019 3.95984C19.5671 3.96567 19.6272 3.97308 19.6689 4.0018L19.6736 4.01123C19.6679 4.12153 19.6725 4.20091 19.6909 4.26681C19.6487 4.42913 19.6709 4.55107 19.7365 4.61727C19.8078 4.68908 19.8223 4.71102 19.8314 4.77459C19.8411 4.84358 19.8704 4.90264 19.9144 4.93821C19.9599 4.97499 19.9944 5.03404 20.0004 5.07687C20.0044 5.10533 20.1492 5.24993 20.2126 5.28849C20.2241 5.29535 20.232 5.30463 20.2409 5.31983C20.2424 5.32228 20.2461 5.32896 20.2494 5.33494C20.2518 5.33932 20.254 5.34331 20.2549 5.34497C20.2566 5.34778 20.2581 5.35049 20.2598 5.35326C20.2644 5.36103 20.2693 5.36938 20.2758 5.38229C20.2533 5.51489 20.2676 5.64737 20.3112 5.85033C20.1496 5.98566 19.975 6.03754 19.8516 5.99852C19.7397 5.96315 19.6957 5.86079 19.7421 5.73326C19.6106 5.82619 19.4358 5.88041 19.2884 5.8796C19.1367 5.87876 19.051 5.81809 19.085 5.71859C18.7183 5.84173 18.5143 5.77199 18.5645 5.60207C18.261 5.71527 18.0095 5.63675 18.0493 5.50194C17.7887 5.56879 17.5619 5.54519 17.5167 5.47233C17.4886 5.42672 17.5324 5.33457 17.5989 5.26474C17.4837 5.29855 17.3663 5.30228 17.2344 5.28238C17.1722 5.27291 17.1414 5.2583 17.1331 5.2334C17.1268 5.21441 17.1288 5.20866 17.1524 5.15685L17.1554 5.15022C17.1553 5.1504 17.1708 5.11451 17.1762 5.10279C17.1855 5.08226 17.1947 5.06401 17.2051 5.04583C17.2289 5.0044 17.2574 4.96625 17.2935 4.93008C16.9921 4.98648 16.735 4.99423 16.5515 4.93235L16.524 4.92349C16.4984 4.91499 16.4826 4.90757 16.4726 4.89709C16.4575 4.88132 16.4598 4.86158 16.4796 4.84162C16.5382 4.78257 16.6418 4.70667 16.752 4.65014C16.229 4.71907 15.7284 4.689 15.5709 4.51018L15.5811 4.49253C15.7279 4.52282 15.9166 4.48532 16.1206 4.40625C15.4527 4.31707 14.7124 3.88211 14.7034 3.50392L14.7232 3.49801C14.8587 3.71809 15.0395 3.82282 15.4119 3.93778C15.0895 3.72924 14.9034 3.47016 14.8872 3.2557L14.9053 3.24715C15.1687 3.5021 15.4824 3.70117 15.7705 3.76834C15.5319 3.6131 15.2495 3.26169 15.1678 3.00961L15.1851 2.99828C15.3671 3.16205 15.7894 3.39337 16.0821 3.48364C15.8156 3.25978 15.552 2.89805 15.5683 2.70807L15.5865 2.70142C15.6884 2.80424 15.9221 2.96939 16.2848 3.18229C16.5096 3.31415 16.6808 3.3747 16.9064 3.41637C16.9383 3.42227 16.9692 3.42753 17.0178 3.43549C17.1376 3.45514 17.1819 3.46269 17.2386 3.4744C17.1861 3.39837 17.1342 3.2991 17.1289 3.26644L17.141 3.25405C17.2537 3.27029 17.3614 3.32063 17.633 3.48954C17.7638 3.571 17.9238 3.61887 18.3119 3.70917L18.3298 3.71334C18.6431 3.78624 18.7823 3.82461 18.9168 3.88384C18.987 3.91476 19.069 3.9341 19.1668 3.94536C19.233 3.95298 19.2808 3.95557 19.4019 3.95984ZM19.6519 4.01633C19.652 4.01427 19.6521 4.0122 19.6522 4.01011L19.6568 4.01954C19.6552 4.01844 19.6536 4.01737 19.6519 4.01633ZM15.6107 4.51936C15.7667 4.54046 15.9605 4.49544 16.1676 4.41065L16.1647 4.39001C15.5216 4.31785 14.7923 3.90842 14.7291 3.54668C14.8752 3.76154 15.0763 3.86243 15.4842 3.98194L15.4926 3.96234C15.1484 3.75969 14.9435 3.49933 14.9118 3.28308C15.1926 3.54898 15.5268 3.75106 15.8285 3.80192L15.8353 3.78183C15.6033 3.65796 15.3038 3.30438 15.2017 3.04084C15.4116 3.21434 15.8459 3.44464 16.127 3.51888L16.1363 3.50001C15.8731 3.29333 15.5967 2.93074 15.5891 2.73391C15.7003 2.83896 15.9293 2.99856 16.274 3.20086C16.501 3.33404 16.6746 3.39542 16.9025 3.43752C16.9346 3.44345 16.9656 3.44873 17.0143 3.45672C17.152 3.47928 17.1896 3.48584 17.2612 3.50111L17.272 3.48416C17.223 3.41827 17.17 3.32194 17.1543 3.27796C17.2579 3.29627 17.366 3.34875 17.6217 3.50781C17.7554 3.59105 17.9162 3.63919 18.3071 3.73012L18.325 3.73429C18.6369 3.80686 18.7754 3.84504 18.9082 3.90353C18.9806 3.93543 19.0646 3.95524 19.1644 3.96673C19.2313 3.97444 19.2795 3.97704 19.4011 3.98134C19.5536 3.98672 19.6147 3.99366 19.6519 4.01633C19.6465 4.12572 19.6515 4.2054 19.6703 4.26723C19.6262 4.43052 19.6498 4.56029 19.7213 4.63245C19.7896 4.70126 19.8019 4.71982 19.8102 4.77762C19.8206 4.85165 19.8523 4.91567 19.901 4.95496C19.9423 4.98838 19.974 5.04256 19.9792 5.07987C19.9844 5.11684 20.133 5.26517 20.2016 5.30692C20.2095 5.31163 20.2152 5.31837 20.2225 5.33072L20.2364 5.35567C20.2429 5.36708 20.2492 5.37692 20.2567 5.38694C20.2315 5.51484 20.2462 5.64989 20.294 5.84464C20.141 5.96484 19.9736 6.01457 19.858 5.97801C19.7487 5.94344 19.7126 5.83877 19.7773 5.70536L19.7609 5.69225C19.6307 5.79675 19.4435 5.85895 19.2886 5.85809C19.1388 5.85727 19.0672 5.79955 19.1138 5.70544L19.1007 5.6905C18.7176 5.82497 18.5254 5.75272 18.5923 5.58771L18.5784 5.57367C18.2643 5.69938 18.0152 5.61484 18.0766 5.4909L18.0642 5.47574C17.8034 5.547 17.5746 5.52495 17.5349 5.46099C17.5099 5.42036 17.5708 5.31175 17.6487 5.24754L17.6382 5.22913C17.5116 5.27555 17.3841 5.28321 17.2376 5.26111C17.1828 5.25278 17.1583 5.24113 17.1535 5.22661C17.1498 5.21569 17.1519 5.20966 17.1719 5.1658L17.175 5.15893C17.2296 5.0354 17.2499 4.99996 17.3221 4.93226L17.3349 4.92059L17.3258 4.90197C17.0121 4.96397 16.7447 4.97481 16.5583 4.91196L16.5307 4.90307C16.5084 4.89567 16.4948 4.88926 16.488 4.88219C16.4818 4.87566 16.4825 4.8691 16.4948 4.8568C16.5628 4.78821 16.6946 4.69534 16.8248 4.63957L16.819 4.61905C16.3038 4.69536 15.793 4.6767 15.6107 4.51936ZM15.6107 4.51936C15.6021 4.51187 15.5941 4.50406 15.587 4.49594L15.5768 4.51359C15.5879 4.51588 15.5992 4.51781 15.6107 4.51936ZM17.1543 3.27796C17.1521 3.27188 17.1507 3.26681 17.15 3.26295L17.1379 3.27534C17.1434 3.27612 17.1488 3.27699 17.1543 3.27796ZM15.5891 2.73391C15.5888 2.72561 15.589 2.7176 15.5896 2.70992L15.5713 2.71658C15.5769 2.72218 15.5828 2.72796 15.5891 2.73391ZM15.2017 3.04084C15.1967 3.02799 15.1922 3.01535 15.1882 3.00296L15.1708 3.01429C15.1805 3.02297 15.1908 3.03183 15.2017 3.04084ZM14.9118 3.28308C14.9103 3.27332 14.9093 3.26365 14.9085 3.25407L14.8904 3.26263C14.8975 3.26949 14.9046 3.2763 14.9118 3.28308ZM14.7291 3.54668C14.7266 3.53217 14.7251 3.51774 14.7248 3.5034L14.705 3.50931C14.7129 3.52215 14.7209 3.53459 14.7291 3.54668Z" fill="black"/>
<path fill-rule="evenodd" clip-rule="evenodd" d="M20.1587 3.51917C20.116 3.62692 20.0921 3.85494 20.1049 3.94394C20.1073 3.96099 20.1069 3.9653 20.0994 4.03689C20.0857 4.16745 20.0911 4.26647 20.1343 4.39437L20.1546 4.38748C20.1126 4.26298 20.1073 4.16688 20.1207 4.03914C20.1286 3.96431 20.1289 3.96069 20.1261 3.94091C20.1139 3.85551 20.1373 3.63128 20.1786 3.52711L20.1587 3.51917ZM19.8295 4.09425C19.8236 4.0133 19.8319 3.90792 19.8539 3.83222L19.8745 3.83823C19.8533 3.91126 19.8451 4.01413 19.8508 4.09268L19.8295 4.09425ZM19.8441 4.2276C19.8266 4.30264 19.8395 4.47726 19.8635 4.57383L19.8843 4.56862C19.8611 4.47508 19.8483 4.30364 19.865 4.23252L19.8441 4.2276ZM19.9199 4.80516C19.91 4.78932 19.9025 4.7744 19.8976 4.76039L19.9178 4.75288C19.922 4.7651 19.9288 4.77853 19.9379 4.79303C19.9493 4.81118 19.964 4.8305 19.9817 4.85116C19.9964 4.86824 20.0083 4.88108 20.0312 4.90489L20.016 4.92056C19.9929 4.89647 19.9807 4.88341 19.9657 4.86594C19.9474 4.84451 19.932 4.82435 19.9199 4.80516ZM20.0033 4.35601C19.9935 4.48076 20.062 4.71753 20.1316 4.79781C20.1468 4.93061 20.2389 5.12067 20.3688 5.25167L20.384 5.2365C20.2574 5.10888 20.1675 4.92318 20.1503 4.78938C20.0821 4.708 20.0153 4.47695 20.0247 4.35771L20.0033 4.35601ZM19.9744 4.21694C19.9633 4.13811 19.9607 4.05904 19.9697 4.00881L19.9908 4.01261C19.9823 4.06013 19.9848 4.13717 19.9956 4.21394L19.9744 4.21694ZM20.3082 4.34531C20.2625 4.19176 20.2608 3.82305 20.308 3.62796L20.3289 3.63303C20.2825 3.82456 20.2841 4.18942 20.3287 4.33916L20.3082 4.34531ZM20.2499 4.40317C20.2241 4.51771 20.2268 4.65031 20.2599 4.75011L20.2803 4.74331C20.2484 4.64746 20.2458 4.51881 20.2708 4.40792L20.2499 4.40317ZM20.6389 4.22744C20.5105 4.08399 20.4327 3.8701 20.438 3.7031L20.4594 3.70378C20.4543 3.86524 20.5301 4.07374 20.6549 4.21307L20.6389 4.22744ZM20.4043 4.23901C20.3895 4.42431 20.4001 4.5945 20.4338 4.69175C20.4425 4.71684 20.4486 4.74734 20.4572 4.80321L20.4655 4.85763C20.4689 4.87906 20.472 4.89711 20.4753 4.91441C20.4915 4.99878 20.5127 5.06086 20.5464 5.10886L20.564 5.09647C20.5324 5.0515 20.512 4.99198 20.4964 4.91034C20.4931 4.89331 20.4901 4.87548 20.4867 4.85426L20.4784 4.79993C20.4696 4.74277 20.4633 4.71143 20.4541 4.68469C20.4215 4.59081 20.4111 4.42331 20.4256 4.24073L20.4043 4.23901ZM20.5769 4.54114L20.5688 4.51068L20.5895 4.50515L20.5976 4.53574C20.6087 4.57885 20.6153 4.61135 20.6184 4.64379C20.6228 4.69063 20.6186 4.73106 20.6036 4.76562L20.5839 4.75704C20.5973 4.72624 20.6011 4.68932 20.597 4.64581C20.5941 4.61474 20.5877 4.58323 20.5769 4.54114ZM20.6946 4.36963C20.7302 4.48675 20.7524 4.63004 20.7473 4.69232L20.7687 4.69409C20.774 4.62868 20.7514 4.48285 20.7151 4.36335L20.6946 4.36963ZM20.8454 5.31754C20.8012 5.23993 20.7612 5.11596 20.7521 5.0159L20.7735 5.01394C20.7823 5.11088 20.8213 5.2319 20.864 5.30688L20.8454 5.31754ZM20.5932 5.31079C20.6336 5.43276 20.7031 5.55868 20.7659 5.60832L20.7792 5.59142C20.7205 5.54501 20.6528 5.42232 20.6135 5.304L20.5932 5.31079ZM21.1875 5.65211C21.1446 5.52216 21.1165 5.45902 21.0487 5.36245L21.0662 5.35007C21.1355 5.4487 21.1644 5.51356 21.2079 5.64535L21.1875 5.65211Z" fill="black"/>
<path fill-rule="evenodd" clip-rule="evenodd" d="M20.2642 5.39114C20.2775 5.39256 20.2858 5.39309 20.3088 5.39424C20.3622 5.39691 20.381 5.40235 20.405 5.42782C20.4208 5.44461 20.4366 5.46999 20.4536 5.50693C20.5129 5.63588 20.675 5.83303 20.7697 5.89445L20.7696 5.8945C20.895 6.11527 20.9507 6.40668 20.9118 6.56309C20.9006 6.49428 20.8617 6.44133 20.8015 6.39795C20.7782 6.3811 20.7633 6.37253 20.7227 6.3509C20.669 6.39786 20.5907 6.45189 20.5512 6.46033L20.5557 6.48137C20.6003 6.47184 20.6821 6.41538 20.7256 6.36766C20.7454 6.38494 20.7584 6.39397 20.7728 6.40399L20.789 6.41542C20.845 6.4558 20.8806 6.50425 20.8907 6.56685L20.9117 6.56344L20.9103 6.56886L20.931 6.57448C20.9726 6.42017 20.9223 6.13647 20.8038 5.91228C20.9498 5.97955 21.0432 6.05537 21.0615 6.1623L21.0818 6.16488L21.0923 6.14134C21.141 6.03161 21.1595 5.9562 21.141 5.87833L21.1428 5.88054L21.1599 5.90118C21.2137 5.96591 21.2532 6.01354 21.2825 6.04954L21.2805 6.04982C21.2834 6.07031 21.2861 6.1015 21.2893 6.14906C21.2899 6.15755 21.2914 6.18214 21.2932 6.21008C21.2956 6.24805 21.2984 6.29223 21.2997 6.31062C21.3074 6.42359 21.3151 6.49886 21.3256 6.54795L21.3465 6.54343C21.3363 6.4957 21.3287 6.42108 21.321 6.30916C21.3198 6.29083 21.317 6.24679 21.3146 6.20886C21.3128 6.18084 21.3113 6.15615 21.3107 6.14761C21.3088 6.11884 21.307 6.09599 21.3053 6.07774C21.3509 6.13503 21.3628 6.15509 21.369 6.17678C21.3709 6.18329 21.3722 6.18994 21.3738 6.19778L21.3738 6.19779L21.3738 6.19779L21.3756 6.20657C21.3935 6.29207 21.4622 6.40933 21.5311 6.48466L21.5469 6.47012C21.4804 6.3974 21.4136 6.28339 21.3966 6.20215L21.3943 6.19088C21.3926 6.18238 21.3912 6.17521 21.3892 6.16821C21.3785 6.13081 21.3513 6.09811 21.1791 5.8907L21.1791 5.8907L21.1791 5.8907L21.1791 5.8907L21.1791 5.89069L21.1593 5.86678C21.1446 5.84915 21.1314 5.833 21.119 5.81741L21.1009 5.82864C21.1435 5.92158 21.1315 5.99882 21.0751 6.12728C21.0433 6.02484 20.9457 5.95241 20.8011 5.88745C20.7176 5.85 20.5354 5.63358 20.473 5.49792C20.4551 5.45902 20.4382 5.43176 20.4205 5.41303C20.3917 5.38247 20.3683 5.37569 20.3099 5.37277C20.2873 5.37164 20.2793 5.37112 20.2664 5.36975L20.2642 5.39114ZM21.3053 6.07774C21.3041 6.06549 21.3029 6.05531 21.3017 6.0468L21.2825 6.04954C21.2909 6.05985 21.2985 6.06921 21.3053 6.07774ZM20.9117 6.56344L20.9119 6.56342L20.9118 6.56309L20.9117 6.56344ZM20.8038 5.91228L20.7924 5.90708C20.7854 5.90394 20.7778 5.89969 20.7697 5.89445L20.7882 5.88385C20.7935 5.89321 20.7987 5.90269 20.8038 5.91228ZM20.4144 5.71708C20.452 5.83055 20.4818 5.96679 20.4848 6.04563L20.5062 6.0448C20.5031 5.96361 20.4729 5.82553 20.4347 5.7103L20.4144 5.71708ZM20.7392 6.2765C20.7359 6.21285 20.6959 6.04618 20.6562 5.93513L20.6763 5.92786C20.7168 6.04071 20.7571 6.2093 20.7606 6.27536L20.7392 6.2765ZM21.1136 6.23773C21.1447 6.31294 21.1643 6.43166 21.1581 6.50241L21.1794 6.50432C21.186 6.43002 21.1658 6.30782 21.1334 6.22948L21.1136 6.23773Z" fill="black"/>
</g>
</svg>
