<svg width="26" height="25" viewBox="0 0 26 25" fill="none" xmlns="http://www.w3.org/2000/svg">
<path d="M16.6667 20H18C19.1046 20 20 19.1046 20 18V9C20 7.89543 19.1046 7 18 7H3C1.89543 7 1 7.89543 1 9V18C1 19.1046 1.89543 20 3 20H8.88889" stroke="#222222" stroke-width="2" stroke-linecap="round"/>
<path d="M15 20V19C14.4477 19 14 19.4477 14 20H15ZM10 20L10.7071 19.2929C10.5196 19.1054 10.2652 19 10 19V20ZM7 19C6.44772 19 6 19.4477 6 20C6 20.5523 6.44772 21 7 21V19ZM17 21C17.5523 21 18 20.5523 18 20C18 19.4477 17.5523 19 17 19V21ZM13.2929 23.2929L12.5858 24L13.2929 23.2929ZM14 20C14 20.0013 14 20.0026 14 20.0039C14 20.0052 14 20.0065 14 20.0078C14 20.0091 14 20.0103 14 20.0116C14 20.0129 14 20.0142 14 20.0155C14 20.0168 14 20.0181 14 20.0194C14 20.0208 14 20.0221 14 20.0234C14 20.0247 14 20.026 14 20.0273C14 20.0286 14 20.0299 14 20.0312C14 20.0325 14 20.0338 14 20.0351C14 20.0365 14 20.0378 14 20.0391C14 20.0404 14 20.0417 14 20.043C14 20.0444 14 20.0457 14 20.047C14 20.0483 14 20.0496 14 20.051C14 20.0523 14 20.0536 14 20.0549C14 20.0563 14 20.0576 14 20.0589C14 20.0602 14 20.0616 14 20.0629C14 20.0642 14 20.0656 14 20.0669C14 20.0682 14 20.0696 14 20.0709C14 20.0722 14 20.0736 14 20.0749C14 20.0762 14 20.0776 14 20.0789C14 20.0803 14 20.0816 14 20.0829C14 20.0843 14 20.0856 14 20.087C14 20.0883 14 20.0897 14 20.091C14 20.0924 14 20.0937 14 20.0951C14 20.0964 14 20.0978 14 20.0991C14 20.1005 14 20.1018 14 20.1032C14 20.1045 14 20.1059 14 20.1072C14 20.1086 14 20.11 14 20.1113C14 20.1127 14 20.114 14 20.1154C14 20.1168 14 20.1181 14 20.1195C14 20.1208 14 20.1222 14 20.1236C14 20.1249 14 20.1263 14 20.1277C14 20.1291 14 20.1304 14 20.1318C14 20.1332 14 20.1345 14 20.1359C14 20.1373 14 20.1387 14 20.14C14 20.1414 14 20.1428 14 20.1442C14 20.1455 14 20.1469 14 20.1483C14 20.1497 14 20.1511 14 20.1525C14 20.1538 14 20.1552 14 20.1566C14 20.158 14 20.1594 14 20.1608C14 20.1622 14 20.1635 14 20.1649C14 20.1663 14 20.1677 14 20.1691C14 20.1705 14 20.1719 14 20.1733C14 20.1747 14 20.1761 14 20.1775C14 20.1789 14 20.1803 14 20.1817C14 20.1831 14 20.1845 14 20.1859C14 20.1873 14 20.1887 14 20.1901C14 20.1915 14 20.1929 14 20.1943C14 20.1957 14 20.1971 14 20.1985C14 20.1999 14 20.2013 14 20.2027C14 20.2041 14 20.2056 14 20.207C14 20.2084 14 20.2098 14 20.2112C14 20.2126 14 20.214 14 20.2155C14 20.2169 14 20.2183 14 20.2197C14 20.2211 14 20.2226 14 20.224C14 20.2254 14 20.2268 14 20.2282C14 20.2297 14 20.2311 14 20.2325C14 20.234 14 20.2354 14 20.2368C14 20.2382 14 20.2397 14 20.2411C14 20.2425 14 20.244 14 20.2454C14 20.2468 14 20.2483 14 20.2497C14 20.2511 14 20.2526 14 20.254C14 20.2554 14 20.2569 14 20.2583C14 20.2598 14 20.2612 14 20.2626C14 20.2641 14 20.2655 14 20.267C14 20.2684 14 20.2699 14 20.2713C14 20.2727 14 20.2742 14 20.2756C14 20.2771 14 20.2785 14 20.28C14 20.2814 14 20.2829 14 20.2843C14 20.2858 14 20.2872 14 20.2887C14 20.2902 14 20.2916 14 20.2931C14 20.2945 14 20.296 14 20.2974C14 20.2989 14 20.3004 14 20.3018C14 20.3033 14 20.3047 14 20.3062C14 20.3077 14 20.3091 14 20.3106C14 20.3121 14 20.3135 14 20.315C14 20.3165 14 20.3179 14 20.3194C14 20.3209 14 20.3223 14 20.3238C14 20.3253 14 20.3268 14 20.3282C14 20.3297 14 20.3312 14 20.3327C14 20.3341 14 20.3356 14 20.3371C14 20.3386 14 20.34 14 20.3415C14 20.343 14 20.3445 14 20.346C14 20.3474 14 20.3489 14 20.3504C14 20.3519 14 20.3534 14 20.3549C14 20.3564 14 20.3578 14 20.3593C14 20.3608 14 20.3623 14 20.3638C14 20.3653 14 20.3668 14 20.3683C14 20.3698 14 20.3713 14 20.3728C14 20.3742 14 20.3757 14 20.3772C14 20.3787 14 20.3802 14 20.3817C14 20.3832 14 20.3847 14 20.3862C14 20.3877 14 20.3892 14 20.3907C14 20.3922 14 20.3937 14 20.3952C14 20.3967 14 20.3982 14 20.3998C14 20.4013 14 20.4028 14 20.4043C14 20.4058 14 20.4073 14 20.4088C14 20.4103 14 20.4118 14 20.4133C14 20.4149 14 20.4164 14 20.4179C14 20.4194 14 20.4209 14 20.4224C14 20.4239 14 20.4255 14 20.427C14 20.4285 14 20.43 14 20.4315C14 20.4331 14 20.4346 14 20.4361C14 20.4376 14 20.4391 14 20.4407C14 20.4422 14 20.4437 14 20.4452C14 20.4468 14 20.4483 14 20.4498C14 20.4513 14 20.4529 14 20.4544C14 20.4559 14 20.4575 14 20.459C14 20.4605 14 20.4621 14 20.4636C14 20.4651 14 20.4667 14 20.4682C14 20.4697 14 20.4713 14 20.4728C14 20.4743 14 20.4759 14 20.4774C14 20.479 14 20.4805 14 20.482C14 20.4836 14 20.4851 14 20.4867C14 20.4882 14 20.4898 14 20.4913C14 20.4928 14 20.4944 14 20.4959C14 20.4975 14 20.499 14 20.5006C14 20.5021 14 20.5037 14 20.5052C14 20.5068 14 20.5083 14 20.5099C14 20.5114 14 20.513 14 20.5145C14 20.5161 14 20.5176 14 20.5192C14 20.5208 14 20.5223 14 20.5239C14 20.5254 14 20.527 14 20.5286C14 20.5301 14 20.5317 14 20.5332C14 20.5348 14 20.5364 14 20.5379C14 20.5395 14 20.541 14 20.5426C14 20.5442 14 20.5457 14 20.5473C14 20.5489 14 20.5504 14 20.552C14 20.5536 14 20.5552 14 20.5567C14 20.5583 14 20.5599 14 20.5614C14 20.563 14 20.5646 14 20.5662C14 20.5677 14 20.5693 14 20.5709C14 20.5725 14 20.574 14 20.5756C14 20.5772 14 20.5788 14 20.5803C14 20.5819 14 20.5835 14 20.5851C14 20.5867 14 20.5882 14 20.5898C14 20.5914 14 20.593 14 20.5946C14 20.5962 14 20.5977 14 20.5993C14 20.6009 14 20.6025 14 20.6041C14 20.6057 14 20.6073 14 20.6089C14 20.6105 14 20.612 14 20.6136C14 20.6152 14 20.6168 14 20.6184C14 20.62 14 20.6216 14 20.6232C14 20.6248 14 20.6264 14 20.628C14 20.6296 14 20.6312 14 20.6328C14 20.6344 14 20.636 14 20.6376C14 20.6392 14 20.6408 14 20.6424C14 20.644 14 20.6456 14 20.6472C14 20.6488 14 20.6504 14 20.652C14 20.6536 14 20.6552 14 20.6568C14 20.6584 14 20.66 14 20.6616C14 20.6632 14 20.6648 14 20.6665C14 20.6681 14 20.6697 14 20.6713C14 20.6729 14 20.6745 14 20.6761C14 20.6777 14 20.6794 14 20.681C14 20.6826 14 20.6842 14 20.6858C14 20.6874 14 20.6891 14 20.6907C14 20.6923 14 20.6939 14 20.6955C14 20.6971 14 20.6988 14 20.7004C14 20.702 14 20.7036 14 20.7053C14 20.7069 14 20.7085 14 20.7101C14 20.7117 14 20.7134 14 20.715C14 20.7166 14 20.7183 14 20.7199C14 20.7215 14 20.7231 14 20.7248C14 20.7264 14 20.728 14 20.7297C14 20.7313 14 20.7329 14 20.7346C14 20.7362 14 20.7378 14 20.7395C14 20.7411 14 20.7427 14 20.7444C14 20.746 14 20.7476 14 20.7493C14 20.7509 14 20.7525 14 20.7542C14 20.7558 14 20.7575 14 20.7591C14 20.7607 14 20.7624 14 20.764C14 20.7657 14 20.7673 14 20.7689C14 20.7706 14 20.7722 14 20.7739C14 20.7755 14 20.7772 14 20.7788C14 20.7805 14 20.7821 14 20.7838C14 20.7854 14 20.7871 14 20.7887C14 20.7904 14 20.792 14 20.7937C14 20.7953 14 20.797 14 20.7986C14 20.8003 14 20.8019 14 20.8036C14 20.8052 14 20.8069 14 20.8085C14 20.8102 14 20.8118 14 20.8135C14 20.8152 14 20.8168 14 20.8185C14 20.8201 14 20.8218 14 20.8234C14 20.8251 14 20.8268 14 20.8284C14 20.8301 14 20.8317 14 20.8334C14 20.8351 14 20.8367 14 20.8384C14 20.8401 14 20.8417 14 20.8434C14 20.8451 14 20.8467 14 20.8484C14 20.8501 14 20.8517 14 20.8534C14 20.8551 14 20.8567 14 20.8584C14 20.8601 14 20.8617 14 20.8634C14 20.8651 14 20.8668 14 20.8684C14 20.8701 14 20.8718 14 20.8734C14 20.8751 14 20.8768 14 20.8785C14 20.8801 14 20.8818 14 20.8835C14 20.8852 14 20.8869 14 20.8885C14 20.8902 14 20.8919 14 20.8936C14 20.8952 14 20.8969 14 20.8986C14 20.9003 14 20.902 14 20.9037C14 20.9053 14 20.907 14 20.9087C14 20.9104 14 20.9121 14 20.9138C14 20.9154 14 20.9171 14 20.9188C14 20.9205 14 20.9222 14 20.9239C14 20.9256 14 20.9272 14 20.9289C14 20.9306 14 20.9323 14 20.934C14 20.9357 14 20.9374 14 20.9391C14 20.9408 14 20.9425 14 20.9442C14 20.9458 14 20.9475 14 20.9492C14 20.9509 14 20.9526 14 20.9543C14 20.956 14 20.9577 14 20.9594C14 20.9611 14 20.9628 14 20.9645C14 20.9662 14 20.9679 14 20.9696C14 20.9713 14 20.973 14 20.9747C14 20.9764 14 20.9781 14 20.9798C14 20.9815 14 20.9832 14 20.9849C14 20.9866 14 20.9883 14 20.99C14 20.9917 14 20.9934 14 20.9951C14 20.9968 14 20.9985 14 21.0003C14 21.002 14 21.0037 14 21.0054C14 21.0071 14 21.0088 14 21.0105C14 21.0122 14 21.0139 14 21.0156C14 21.0173 14 21.0191 14 21.0208C14 21.0225 14 21.0242 14 21.0259C14 21.0276 14 21.0293 14 21.031C14 21.0328 14 21.0345 14 21.0362C14 21.0379 14 21.0396 14 21.0413C14 21.0431 14 21.0448 14 21.0465C14 21.0482 14 21.0499 14 21.0516C14 21.0534 14 21.0551 14 21.0568C14 21.0585 14 21.0602 14 21.062C14 21.0637 14 21.0654 14 21.0671C14 21.0689 14 21.0706 14 21.0723C14 21.074 14 21.0758 14 21.0775C14 21.0792 14 21.0809 14 21.0827C14 21.0844 14 21.0861 14 21.0878C14 21.0896 14 21.0913 14 21.093C14 21.0947 14 21.0965 14 21.0982C14 21.0999 14 21.1017 14 21.1034C14 21.1051 14 21.1069 14 21.1086C14 21.1103 14 21.1121 14 21.1138C14 21.1155 14 21.1173 14 21.119C14 21.1207 14 21.1225 14 21.1242C14 21.1259 14 21.1277 14 21.1294C14 21.1311 14 21.1329 14 21.1346C14 21.1363 14 21.1381 14 21.1398C14 21.1416 14 21.1433 14 21.145C14 21.1468 14 21.1485 14 21.1503C14 21.152 14 21.1537 14 21.1555C14 21.1572 14 21.159 14 21.1607C14 21.1625 14 21.1642 14 21.1659C14 21.1677 14 21.1694 14 21.1712C14 21.1729 14 21.1747 14 21.1764C14 21.1782 14 21.1799 14 21.1816C14 21.1834 14 21.1851 14 21.1869C14 21.1886 14 21.1904 14 21.1921C14 21.1939 14 21.1956 14 21.1974C14 21.1991 14 21.2009 14 21.2026C14 21.2044 14 21.2061 14 21.2079C14 21.2096 14 21.2114 14 21.2131C14 21.2149 14 21.2167 14 21.2184C14 21.2202 14 21.2219 14 21.2237C14 21.2254 14 21.2272 14 21.2289C14 21.2307 14 21.2325 14 21.2342C14 21.236 14 21.2377 14 21.2395C14 21.2412 14 21.243 14 21.2448C14 21.2465 14 21.2483 14 21.25C14 21.2518 14 21.2536 14 21.2553C14 21.2571 14 21.2588 14 21.2606C14 21.2624 14 21.2641 14 21.2659C14 21.2676 14 21.2694 14 21.2712C14 21.2729 14 21.2747 14 21.2765C14 21.2782 14 21.28 14 21.2818C14 21.2835 14 21.2853 14 21.2871C14 21.2888 14 21.2906 14 21.2924C14 21.2941 14 21.2959 14 21.2977C14 21.2994 14 21.3012 14 21.303C14 21.3047 14 21.3065 14 21.3083C14 21.3101 14 21.3118 14 21.3136C14 21.3154 14 21.3171 14 21.3189C14 21.3207 14 21.3225 14 21.3242C14 21.326 14 21.3278 14 21.3295C14 21.3313 14 21.3331 14 21.3349C14 21.3366 14 21.3384 14 21.3402C14 21.342 14 21.3437 14 21.3455C14 21.3473 14 21.3491 14 21.3509C14 21.3526 14 21.3544 14 21.3562C14 21.358 14 21.3597 14 21.3615C14 21.3633 14 21.3651 14 21.3669C14 21.3686 14 21.3704 14 21.3722C14 21.374 14 21.3758 14 21.3775C14 21.3793 14 21.3811 14 21.3829C14 21.3847 14 21.3864 14 21.3882C14 21.39 14 21.3918 14 21.3936C14 21.3954 14 21.3971 14 21.3989C14 21.4007 14 21.4025 14 21.4043C14 21.4061 14 21.4079 14 21.4096C14 21.4114 14 21.4132 14 21.415C14 21.4168 14 21.4186 14 21.4204C14 21.4222 14 21.4239 14 21.4257C14 21.4275 14 21.4293 14 21.4311C14 21.4329 14 21.4347 14 21.4365C14 21.4383 14 21.44 14 21.4418C14 21.4436 14 21.4454 14 21.4472C14 21.449 14 21.4508 14 21.4526C14 21.4544 14 21.4562 14 21.458C14 21.4598 14 21.4615 14 21.4633C14 21.4651 14 21.4669 14 21.4687C14 21.4705 14 21.4723 14 21.4741C14 21.4759 14 21.4777 14 21.4795C14 21.4813 14 21.4831 14 21.4849C14 21.4867 14 21.4885 14 21.4903C14 21.4921 14 21.4939 14 21.4957C14 21.4975 14 21.4993 14 21.5011C14 21.5029 14 21.5047 14 21.5065C14 21.5083 14 21.5101 14 21.5119C14 21.5137 14 21.5155 14 21.5173C14 21.5191 14 21.5209 14 21.5227C14 21.5245 14 21.5263 14 21.5281C14 21.5299 14 21.5317 14 21.5335C14 21.5353 14 21.5371 14 21.5389C14 21.5407 14 21.5425 14 21.5443C14 21.5461 14 21.5479 14 21.5497C14 21.5515 14 21.5533 14 21.5551C14 21.5569 14 21.5587 14 21.5605C14 21.5623 14 21.5641 14 21.5659C14 21.5678 14 21.5696 14 21.5714C14 21.5732 14 21.575 14 21.5768C14 21.5786 14 21.5804 14 21.5822C14 21.584 14 21.5858 14 21.5876C14 21.5894 14 21.5913 14 21.5931C14 21.5949 14 21.5967 14 21.5985C14 21.6003 14 21.6021 14 21.6039C14 21.6057 14 21.6075 14 21.6094C14 21.6112 14 21.613 14 21.6148C14 21.6166 14 21.6184 14 21.6202C14 21.622 14 21.6238 14 21.6257C14 21.6275 14 21.6293 14 21.6311C14 21.6329 14 21.6347 14 21.6365C14 21.6383 14 21.6402 14 21.642C14 21.6438 14 21.6456 14 21.6474C14 21.6492 14 21.651 14 21.6529C14 21.6547 14 21.6565 14 21.6583C14 21.6601 14 21.6619 14 21.6638C14 21.6656 14 21.6674 14 21.6692C14 21.671 14 21.6728 14 21.6747C14 21.6765 14 21.6783 14 21.6801C14 21.6819 14 21.6837 14 21.6856C14 21.6874 14 21.6892 14 21.691C14 21.6928 14 21.6947 14 21.6965C14 21.6983 14 21.7001 14 21.7019C14 21.7038 14 21.7056 14 21.7074C14 21.7092 14 21.711 14 21.7129C14 21.7147 14 21.7165 14 21.7183C14 21.7201 14 21.722 14 21.7238C14 21.7256 14 21.7274 14 21.7292C14 21.7311 14 21.7329 14 21.7347C14 21.7365 14 21.7384 14 21.7402C14 21.742 14 21.7438 14 21.7456C14 21.7475 14 21.7493 14 21.7511C14 21.7529 14 21.7548 14 21.7566C14 21.7584 14 21.7602 14 21.7621C14 21.7639 14 21.7657 14 21.7675C14 21.7694 14 21.7712 14 21.773C14 21.7748 14 21.7767 14 21.7785C14 21.7803 14 21.7821 14 21.784C14 21.7858 14 21.7876 14 21.7894C14 21.7913 14 21.7931 14 21.7949C14 21.7967 14 21.7986 14 21.8004C14 21.8022 14 21.804 14 21.8059C14 21.8077 14 21.8095 14 21.8114C14 21.8132 14 21.815 14 21.8168C14 21.8187 14 21.8205 14 21.8223C14 21.8241 14 21.826 14 21.8278C14 21.8296 14 21.8315 14 21.8333C14 21.8351 14 21.8369 14 21.8388C14 21.8406 14 21.8424 14 21.8443C14 21.8461 14 21.8479 14 21.8498C14 21.8516 14 21.8534 14 21.8552C14 21.8571 14 21.8589 14 21.8607C14 21.8626 14 21.8644 14 21.8662C14 21.8681 14 21.8699 14 21.8717C14 21.8735 14 21.8754 14 21.8772C14 21.879 14 21.8809 14 21.8827C14 21.8845 14 21.8864 14 21.8882C14 21.89 14 21.8919 14 21.8937C14 21.8955 14 21.8974 14 21.8992C14 21.901 14 21.9029 14 21.9047C14 21.9065 14 21.9084 14 21.9102C14 21.912 14 21.9138 14 21.9157C14 21.9175 14 21.9193 14 21.9212C14 21.923 14 21.9248 14 21.9267C14 21.9285 14 21.9303 14 21.9322C14 21.934 14 21.9358 14 21.9377C14 21.9395 14 21.9413 14 21.9432C14 21.945 14 21.9468 14 21.9487C14 21.9505 14 21.9524 14 21.9542C14 21.956 14 21.9579 14 21.9597C14 21.9615 14 21.9634 14 21.9652C14 21.967 14 21.9689 14 21.9707C14 21.9725 14 21.9744 14 21.9762C14 21.978 14 21.9799 14 21.9817C14 21.9835 14 21.9854 14 21.9872C14 21.989 14 21.9909 14 21.9927C14 21.9946 14 21.9964 14 21.9982C14 22.0001 14 22.0019 14 22.0037C14 22.0056 14 22.0074 14 22.0092C14 22.0111 14 22.0129 14 22.0147C14 22.0166 14 22.0184 14 22.0203C14 22.0221 14 22.0239 14 22.0258C14 22.0276 14 22.0294 14 22.0313C14 22.0331 14 22.0349 14 22.0368C14 22.0386 14 22.0404 14 22.0423C14 22.0441 14 22.046 14 22.0478C14 22.0496 14 22.0515 14 22.0533C14 22.0551 14 22.057 14 22.0588C14 22.0607 14 22.0625 14 22.0643C14 22.0662 14 22.068 14 22.0698C14 22.0717 14 22.0735 14 22.0753C14 22.0772 14 22.079 14 22.0809C14 22.0827 14 22.0845 14 22.0864C14 22.0882 14 22.09 14 22.0919C14 22.0937 14 22.0956 14 22.0974C14 22.0992 14 22.1011 14 22.1029C14 22.1047 14 22.1066 14 22.1084C14 22.1102 14 22.1121 14 22.1139C14 22.1158 14 22.1176 14 22.1194C14 22.1213 14 22.1231 14 22.1249C14 22.1268 14 22.1286 14 22.1305C14 22.1323 14 22.1341 14 22.136C14 22.1378 14 22.1396 14 22.1415C14 22.1433 14 22.1451 14 22.147C14 22.1488 14 22.1507 14 22.1525C14 22.1543 14 22.1562 14 22.158C14 22.1598 14 22.1617 14 22.1635C14 22.1654 14 22.1672 14 22.169C14 22.1709 14 22.1727 14 22.1745C14 22.1764 14 22.1782 14 22.18C14 22.1819 14 22.1837 14 22.1856C14 22.1874 14 22.1892 14 22.1911C14 22.1929 14 22.1947 14 22.1966C14 22.1984 14 22.2002 14 22.2021C14 22.2039 14 22.2058 14 22.2076C14 22.2094 14 22.2113 14 22.2131C14 22.2149 14 22.2168 14 22.2186C14 22.2204 14 22.2223 14 22.2241C14 22.226 14 22.2278 14 22.2296C14 22.2315 14 22.2333 14 22.2351C14 22.237 14 22.2388 14 22.2406C14 22.2425 14 22.2443 14 22.2461C14 22.248 14 22.2498 14 22.2517C14 22.2535 14 22.2553 14 22.2572C14 22.259 14 22.2608 14 22.2627C14 22.2645 14 22.2663 14 22.2682C14 22.27 14 22.2718 14 22.2737C14 22.2755 14 22.2773 14 22.2792C14 22.281 14 22.2828 14 22.2847C14 22.2865 14 22.2884 14 22.2902C14 22.292 14 22.2939 14 22.2957C14 22.2975 14 22.2994 14 22.3012C14 22.303 14 22.3049 14 22.3067C14 22.3085 14 22.3104 14 22.3122C14 22.314 14 22.3159 14 22.3177C14 22.3195 14 22.3214 14 22.3232C14 22.325 14 22.3269 14 22.3287C14 22.3305 14 22.3324 14 22.3342C14 22.336 14 22.3379 14 22.3397C14 22.3415 14 22.3433 14 22.3452C14 22.347 14 22.3488 14 22.3507C14 22.3525 14 22.3543 14 22.3562C14 22.358 14 22.3598 14 22.3617C14 22.3635 14 22.3653 14 22.3672C14 22.369 14 22.3708 14 22.3727C14 22.3745 14 22.3763 14 22.3781C14 22.38 14 22.3818 14 22.3836C14 22.3855 14 22.3873 14 22.3891C14 22.391 14 22.3928 14 22.3946C14 22.3964 14 22.3983 14 22.4001C14 22.4019 14 22.4038 14 22.4056C14 22.4074 14 22.4092 14 22.4111C14 22.4129 14 22.4147 14 22.4166C14 22.4184 14 22.4202 14 22.422C14 22.4239 14 22.4257 14 22.4275C14 22.4294 14 22.4312 14 22.433C14 22.4348 14 22.4367 14 22.4385C14 22.4403 14 22.4422 14 22.444C14 22.4458 14 22.4476 14 22.4495C14 22.4513 14 22.4531 14 22.4549C14 22.4568 14 22.4586 14 22.4604C14 22.4622 14 22.4641 14 22.4659C14 22.4677 14 22.4695 14 22.4714C14 22.4732 14 22.475 14 22.4768C14 22.4787 14 22.4805 14 22.4823C14 22.4841 14 22.486 14 22.4878C14 22.4896 14 22.4914 14 22.4933C14 22.4951 14 22.4969 14 22.4987C14 22.5005 14 22.5024 14 22.5042C14 22.506 14 22.5078 14 22.5097C14 22.5115 14 22.5133 14 22.5151C14 22.5169 14 22.5188 14 22.5206C14 22.5224 14 22.5242 14 22.5261C14 22.5279 14 22.5297 14 22.5315C14 22.5333 14 22.5352 14 22.537C14 22.5388 14 22.5406 14 22.5424C14 22.5443 14 22.5461 14 22.5479C14 22.5497 14 22.5515 14 22.5533C14 22.5552 14 22.557 14 22.5588C14 22.5606 14 22.5624 14 22.5643C14 22.5661 14 22.5679 14 22.5697C14 22.5715 14 22.5733 14 22.5752C14 22.577 14 22.5788 14 22.5806C14 22.5824 14 22.5842 14 22.5861H16C16 22.5842 16 22.5824 16 22.5806C16 22.5788 16 22.577 16 22.5752C16 22.5733 16 22.5715 16 22.5697C16 22.5679 16 22.5661 16 22.5643C16 22.5624 16 22.5606 16 22.5588C16 22.557 16 22.5552 16 22.5533C16 22.5515 16 22.5497 16 22.5479C16 22.5461 16 22.5443 16 22.5424C16 22.5406 16 22.5388 16 22.537C16 22.5352 16 22.5333 16 22.5315C16 22.5297 16 22.5279 16 22.5261C16 22.5242 16 22.5224 16 22.5206C16 22.5188 16 22.5169 16 22.5151C16 22.5133 16 22.5115 16 22.5097C16 22.5078 16 22.506 16 22.5042C16 22.5024 16 22.5005 16 22.4987C16 22.4969 16 22.4951 16 22.4933C16 22.4914 16 22.4896 16 22.4878C16 22.486 16 22.4841 16 22.4823C16 22.4805 16 22.4787 16 22.4768C16 22.475 16 22.4732 16 22.4714C16 22.4695 16 22.4677 16 22.4659C16 22.4641 16 22.4622 16 22.4604C16 22.4586 16 22.4568 16 22.4549C16 22.4531 16 22.4513 16 22.4495C16 22.4476 16 22.4458 16 22.444C16 22.4422 16 22.4403 16 22.4385C16 22.4367 16 22.4348 16 22.433C16 22.4312 16 22.4294 16 22.4275C16 22.4257 16 22.4239 16 22.422C16 22.4202 16 22.4184 16 22.4166C16 22.4147 16 22.4129 16 22.4111C16 22.4092 16 22.4074 16 22.4056C16 22.4038 16 22.4019 16 22.4001C16 22.3983 16 22.3964 16 22.3946C16 22.3928 16 22.391 16 22.3891C16 22.3873 16 22.3855 16 22.3836C16 22.3818 16 22.38 16 22.3781C16 22.3763 16 22.3745 16 22.3727C16 22.3708 16 22.369 16 22.3672C16 22.3653 16 22.3635 16 22.3617C16 22.3598 16 22.358 16 22.3562C16 22.3543 16 22.3525 16 22.3507C16 22.3488 16 22.347 16 22.3452C16 22.3433 16 22.3415 16 22.3397C16 22.3379 16 22.336 16 22.3342C16 22.3324 16 22.3305 16 22.3287C16 22.3269 16 22.325 16 22.3232C16 22.3214 16 22.3195 16 22.3177C16 22.3159 16 22.314 16 22.3122C16 22.3104 16 22.3085 16 22.3067C16 22.3049 16 22.303 16 22.3012C16 22.2994 16 22.2975 16 22.2957C16 22.2939 16 22.292 16 22.2902C16 22.2884 16 22.2865 16 22.2847C16 22.2828 16 22.281 16 22.2792C16 22.2773 16 22.2755 16 22.2737C16 22.2718 16 22.27 16 22.2682C16 22.2663 16 22.2645 16 22.2627C16 22.2608 16 22.259 16 22.2572C16 22.2553 16 22.2535 16 22.2517C16 22.2498 16 22.248 16 22.2461C16 22.2443 16 22.2425 16 22.2406C16 22.2388 16 22.237 16 22.2351C16 22.2333 16 22.2315 16 22.2296C16 22.2278 16 22.226 16 22.2241C16 22.2223 16 22.2204 16 22.2186C16 22.2168 16 22.2149 16 22.2131C16 22.2113 16 22.2094 16 22.2076C16 22.2058 16 22.2039 16 22.2021C16 22.2002 16 22.1984 16 22.1966C16 22.1947 16 22.1929 16 22.1911C16 22.1892 16 22.1874 16 22.1856C16 22.1837 16 22.1819 16 22.18C16 22.1782 16 22.1764 16 22.1745C16 22.1727 16 22.1709 16 22.169C16 22.1672 16 22.1654 16 22.1635C16 22.1617 16 22.1598 16 22.158C16 22.1562 16 22.1543 16 22.1525C16 22.1507 16 22.1488 16 22.147C16 22.1451 16 22.1433 16 22.1415C16 22.1396 16 22.1378 16 22.136C16 22.1341 16 22.1323 16 22.1305C16 22.1286 16 22.1268 16 22.1249C16 22.1231 16 22.1213 16 22.1194C16 22.1176 16 22.1158 16 22.1139C16 22.1121 16 22.1102 16 22.1084C16 22.1066 16 22.1047 16 22.1029C16 22.1011 16 22.0992 16 22.0974C16 22.0956 16 22.0937 16 22.0919C16 22.09 16 22.0882 16 22.0864C16 22.0845 16 22.0827 16 22.0809C16 22.079 16 22.0772 16 22.0753C16 22.0735 16 22.0717 16 22.0698C16 22.068 16 22.0662 16 22.0643C16 22.0625 16 22.0607 16 22.0588C16 22.057 16 22.0551 16 22.0533C16 22.0515 16 22.0496 16 22.0478C16 22.046 16 22.0441 16 22.0423C16 22.0404 16 22.0386 16 22.0368C16 22.0349 16 22.0331 16 22.0313C16 22.0294 16 22.0276 16 22.0258C16 22.0239 16 22.0221 16 22.0203C16 22.0184 16 22.0166 16 22.0147C16 22.0129 16 22.0111 16 22.0092C16 22.0074 16 22.0056 16 22.0037C16 22.0019 16 22.0001 16 21.9982C16 21.9964 16 21.9946 16 21.9927C16 21.9909 16 21.989 16 21.9872C16 21.9854 16 21.9835 16 21.9817C16 21.9799 16 21.978 16 21.9762C16 21.9744 16 21.9725 16 21.9707C16 21.9689 16 21.967 16 21.9652C16 21.9634 16 21.9615 16 21.9597C16 21.9579 16 21.956 16 21.9542C16 21.9524 16 21.9505 16 21.9487C16 21.9468 16 21.945 16 21.9432C16 21.9413 16 21.9395 16 21.9377C16 21.9358 16 21.934 16 21.9322C16 21.9303 16 21.9285 16 21.9267C16 21.9248 16 21.923 16 21.9212C16 21.9193 16 21.9175 16 21.9157C16 21.9138 16 21.912 16 21.9102C16 21.9084 16 21.9065 16 21.9047C16 21.9029 16 21.901 16 21.8992C16 21.8974 16 21.8955 16 21.8937C16 21.8919 16 21.89 16 21.8882C16 21.8864 16 21.8845 16 21.8827C16 21.8809 16 21.879 16 21.8772C16 21.8754 16 21.8735 16 21.8717C16 21.8699 16 21.8681 16 21.8662C16 21.8644 16 21.8626 16 21.8607C16 21.8589 16 21.8571 16 21.8552C16 21.8534 16 21.8516 16 21.8498C16 21.8479 16 21.8461 16 21.8443C16 21.8424 16 21.8406 16 21.8388C16 21.8369 16 21.8351 16 21.8333C16 21.8315 16 21.8296 16 21.8278C16 21.826 16 21.8241 16 21.8223C16 21.8205 16 21.8187 16 21.8168C16 21.815 16 21.8132 16 21.8114C16 21.8095 16 21.8077 16 21.8059C16 21.804 16 21.8022 16 21.8004C16 21.7986 16 21.7967 16 21.7949C16 21.7931 16 21.7913 16 21.7894C16 21.7876 16 21.7858 16 21.784C16 21.7821 16 21.7803 16 21.7785C16 21.7767 16 21.7748 16 21.773C16 21.7712 16 21.7694 16 21.7675C16 21.7657 16 21.7639 16 21.7621C16 21.7602 16 21.7584 16 21.7566C16 21.7548 16 21.7529 16 21.7511C16 21.7493 16 21.7475 16 21.7456C16 21.7438 16 21.742 16 21.7402C16 21.7384 16 21.7365 16 21.7347C16 21.7329 16 21.7311 16 21.7292C16 21.7274 16 21.7256 16 21.7238C16 21.722 16 21.7201 16 21.7183C16 21.7165 16 21.7147 16 21.7129C16 21.711 16 21.7092 16 21.7074C16 21.7056 16 21.7038 16 21.7019C16 21.7001 16 21.6983 16 21.6965C16 21.6947 16 21.6928 16 21.691C16 21.6892 16 21.6874 16 21.6856C16 21.6837 16 21.6819 16 21.6801C16 21.6783 16 21.6765 16 21.6747C16 21.6728 16 21.671 16 21.6692C16 21.6674 16 21.6656 16 21.6638C16 21.6619 16 21.6601 16 21.6583C16 21.6565 16 21.6547 16 21.6529C16 21.651 16 21.6492 16 21.6474C16 21.6456 16 21.6438 16 21.642C16 21.6402 16 21.6383 16 21.6365C16 21.6347 16 21.6329 16 21.6311C16 21.6293 16 21.6275 16 21.6257C16 21.6238 16 21.622 16 21.6202C16 21.6184 16 21.6166 16 21.6148C16 21.613 16 21.6112 16 21.6094C16 21.6075 16 21.6057 16 21.6039C16 21.6021 16 21.6003 16 21.5985C16 21.5967 16 21.5949 16 21.5931C16 21.5913 16 21.5894 16 21.5876C16 21.5858 16 21.584 16 21.5822C16 21.5804 16 21.5786 16 21.5768C16 21.575 16 21.5732 16 21.5714C16 21.5696 16 21.5678 16 21.5659C16 21.5641 16 21.5623 16 21.5605C16 21.5587 16 21.5569 16 21.5551C16 21.5533 16 21.5515 16 21.5497C16 21.5479 16 21.5461 16 21.5443C16 21.5425 16 21.5407 16 21.5389C16 21.5371 16 21.5353 16 21.5335C16 21.5317 16 21.5299 16 21.5281C16 21.5263 16 21.5245 16 21.5227C16 21.5209 16 21.5191 16 21.5173C16 21.5155 16 21.5137 16 21.5119C16 21.5101 16 21.5083 16 21.5065C16 21.5047 16 21.5029 16 21.5011C16 21.4993 16 21.4975 16 21.4957C16 21.4939 16 21.4921 16 21.4903C16 21.4885 16 21.4867 16 21.4849C16 21.4831 16 21.4813 16 21.4795C16 21.4777 16 21.4759 16 21.4741C16 21.4723 16 21.4705 16 21.4687C16 21.4669 16 21.4651 16 21.4633C16 21.4615 16 21.4598 16 21.458C16 21.4562 16 21.4544 16 21.4526C16 21.4508 16 21.449 16 21.4472C16 21.4454 16 21.4436 16 21.4418C16 21.44 16 21.4383 16 21.4365C16 21.4347 16 21.4329 16 21.4311C16 21.4293 16 21.4275 16 21.4257C16 21.4239 16 21.4222 16 21.4204C16 21.4186 16 21.4168 16 21.415C16 21.4132 16 21.4114 16 21.4096C16 21.4079 16 21.4061 16 21.4043C16 21.4025 16 21.4007 16 21.3989C16 21.3971 16 21.3954 16 21.3936C16 21.3918 16 21.39 16 21.3882C16 21.3864 16 21.3847 16 21.3829C16 21.3811 16 21.3793 16 21.3775C16 21.3758 16 21.374 16 21.3722C16 21.3704 16 21.3686 16 21.3669C16 21.3651 16 21.3633 16 21.3615C16 21.3597 16 21.358 16 21.3562C16 21.3544 16 21.3526 16 21.3509C16 21.3491 16 21.3473 16 21.3455C16 21.3437 16 21.342 16 21.3402C16 21.3384 16 21.3366 16 21.3349C16 21.3331 16 21.3313 16 21.3295C16 21.3278 16 21.326 16 21.3242C16 21.3225 16 21.3207 16 21.3189C16 21.3171 16 21.3154 16 21.3136C16 21.3118 16 21.3101 16 21.3083C16 21.3065 16 21.3047 16 21.303C16 21.3012 16 21.2994 16 21.2977C16 21.2959 16 21.2941 16 21.2924C16 21.2906 16 21.2888 16 21.2871C16 21.2853 16 21.2835 16 21.2818C16 21.28 16 21.2782 16 21.2765C16 21.2747 16 21.2729 16 21.2712C16 21.2694 16 21.2676 16 21.2659C16 21.2641 16 21.2624 16 21.2606C16 21.2588 16 21.2571 16 21.2553C16 21.2536 16 21.2518 16 21.25C16 21.2483 16 21.2465 16 21.2448C16 21.243 16 21.2412 16 21.2395C16 21.2377 16 21.236 16 21.2342C16 21.2325 16 21.2307 16 21.2289C16 21.2272 16 21.2254 16 21.2237C16 21.2219 16 21.2202 16 21.2184C16 21.2167 16 21.2149 16 21.2131C16 21.2114 16 21.2096 16 21.2079C16 21.2061 16 21.2044 16 21.2026C16 21.2009 16 21.1991 16 21.1974C16 21.1956 16 21.1939 16 21.1921C16 21.1904 16 21.1886 16 21.1869C16 21.1851 16 21.1834 16 21.1816C16 21.1799 16 21.1782 16 21.1764C16 21.1747 16 21.1729 16 21.1712C16 21.1694 16 21.1677 16 21.1659C16 21.1642 16 21.1625 16 21.1607C16 21.159 16 21.1572 16 21.1555C16 21.1537 16 21.152 16 21.1503C16 21.1485 16 21.1468 16 21.145C16 21.1433 16 21.1416 16 21.1398C16 21.1381 16 21.1363 16 21.1346C16 21.1329 16 21.1311 16 21.1294C16 21.1277 16 21.1259 16 21.1242C16 21.1225 16 21.1207 16 21.119C16 21.1173 16 21.1155 16 21.1138C16 21.1121 16 21.1103 16 21.1086C16 21.1069 16 21.1051 16 21.1034C16 21.1017 16 21.0999 16 21.0982C16 21.0965 16 21.0947 16 21.093C16 21.0913 16 21.0896 16 21.0878C16 21.0861 16 21.0844 16 21.0827C16 21.0809 16 21.0792 16 21.0775C16 21.0758 16 21.074 16 21.0723C16 21.0706 16 21.0689 16 21.0671C16 21.0654 16 21.0637 16 21.062C16 21.0602 16 21.0585 16 21.0568C16 21.0551 16 21.0534 16 21.0516C16 21.0499 16 21.0482 16 21.0465C16 21.0448 16 21.0431 16 21.0413C16 21.0396 16 21.0379 16 21.0362C16 21.0345 16 21.0328 16 21.031C16 21.0293 16 21.0276 16 21.0259C16 21.0242 16 21.0225 16 21.0208C16 21.0191 16 21.0173 16 21.0156C16 21.0139 16 21.0122 16 21.0105C16 21.0088 16 21.0071 16 21.0054C16 21.0037 16 21.002 16 21.0003C16 20.9985 16 20.9968 16 20.9951C16 20.9934 16 20.9917 16 20.99C16 20.9883 16 20.9866 16 20.9849C16 20.9832 16 20.9815 16 20.9798C16 20.9781 16 20.9764 16 20.9747C16 20.973 16 20.9713 16 20.9696C16 20.9679 16 20.9662 16 20.9645C16 20.9628 16 20.9611 16 20.9594C16 20.9577 16 20.956 16 20.9543C16 20.9526 16 20.9509 16 20.9492C16 20.9475 16 20.9458 16 20.9442C16 20.9425 16 20.9408 16 20.9391C16 20.9374 16 20.9357 16 20.934C16 20.9323 16 20.9306 16 20.9289C16 20.9272 16 20.9256 16 20.9239C16 20.9222 16 20.9205 16 20.9188C16 20.9171 16 20.9154 16 20.9138C16 20.9121 16 20.9104 16 20.9087C16 20.907 16 20.9053 16 20.9037C16 20.902 16 20.9003 16 20.8986C16 20.8969 16 20.8952 16 20.8936C16 20.8919 16 20.8902 16 20.8885C16 20.8869 16 20.8852 16 20.8835C16 20.8818 16 20.8801 16 20.8785C16 20.8768 16 20.8751 16 20.8734C16 20.8718 16 20.8701 16 20.8684C16 20.8668 16 20.8651 16 20.8634C16 20.8617 16 20.8601 16 20.8584C16 20.8567 16 20.8551 16 20.8534C16 20.8517 16 20.8501 16 20.8484C16 20.8467 16 20.8451 16 20.8434C16 20.8417 16 20.8401 16 20.8384C16 20.8367 16 20.8351 16 20.8334C16 20.8317 16 20.8301 16 20.8284C16 20.8268 16 20.8251 16 20.8234C16 20.8218 16 20.8201 16 20.8185C16 20.8168 16 20.8152 16 20.8135C16 20.8118 16 20.8102 16 20.8085C16 20.8069 16 20.8052 16 20.8036C16 20.8019 16 20.8003 16 20.7986C16 20.797 16 20.7953 16 20.7937C16 20.792 16 20.7904 16 20.7887C16 20.7871 16 20.7854 16 20.7838C16 20.7821 16 20.7805 16 20.7788C16 20.7772 16 20.7755 16 20.7739C16 20.7722 16 20.7706 16 20.7689C16 20.7673 16 20.7657 16 20.764C16 20.7624 16 20.7607 16 20.7591C16 20.7575 16 20.7558 16 20.7542C16 20.7525 16 20.7509 16 20.7493C16 20.7476 16 20.746 16 20.7444C16 20.7427 16 20.7411 16 20.7395C16 20.7378 16 20.7362 16 20.7346C16 20.7329 16 20.7313 16 20.7297C16 20.728 16 20.7264 16 20.7248C16 20.7231 16 20.7215 16 20.7199C16 20.7183 16 20.7166 16 20.715C16 20.7134 16 20.7117 16 20.7101C16 20.7085 16 20.7069 16 20.7053C16 20.7036 16 20.702 16 20.7004C16 20.6988 16 20.6971 16 20.6955C16 20.6939 16 20.6923 16 20.6907C16 20.6891 16 20.6874 16 20.6858C16 20.6842 16 20.6826 16 20.681C16 20.6794 16 20.6777 16 20.6761C16 20.6745 16 20.6729 16 20.6713C16 20.6697 16 20.6681 16 20.6665C16 20.6648 16 20.6632 16 20.6616C16 20.66 16 20.6584 16 20.6568C16 20.6552 16 20.6536 16 20.652C16 20.6504 16 20.6488 16 20.6472C16 20.6456 16 20.644 16 20.6424C16 20.6408 16 20.6392 16 20.6376C16 20.636 16 20.6344 16 20.6328C16 20.6312 16 20.6296 16 20.628C16 20.6264 16 20.6248 16 20.6232C16 20.6216 16 20.62 16 20.6184C16 20.6168 16 20.6152 16 20.6136C16 20.612 16 20.6105 16 20.6089C16 20.6073 16 20.6057 16 20.6041C16 20.6025 16 20.6009 16 20.5993C16 20.5977 16 20.5962 16 20.5946C16 20.593 16 20.5914 16 20.5898C16 20.5882 16 20.5867 16 20.5851C16 20.5835 16 20.5819 16 20.5803C16 20.5788 16 20.5772 16 20.5756C16 20.574 16 20.5725 16 20.5709C16 20.5693 16 20.5677 16 20.5662C16 20.5646 16 20.563 16 20.5614C16 20.5599 16 20.5583 16 20.5567C16 20.5552 16 20.5536 16 20.552C16 20.5504 16 20.5489 16 20.5473C16 20.5457 16 20.5442 16 20.5426C16 20.541 16 20.5395 16 20.5379C16 20.5364 16 20.5348 16 20.5332C16 20.5317 16 20.5301 16 20.5286C16 20.527 16 20.5254 16 20.5239C16 20.5223 16 20.5208 16 20.5192C16 20.5176 16 20.5161 16 20.5145C16 20.513 16 20.5114 16 20.5099C16 20.5083 16 20.5068 16 20.5052C16 20.5037 16 20.5021 16 20.5006C16 20.499 16 20.4975 16 20.4959C16 20.4944 16 20.4928 16 20.4913C16 20.4898 16 20.4882 16 20.4867C16 20.4851 16 20.4836 16 20.482C16 20.4805 16 20.479 16 20.4774C16 20.4759 16 20.4743 16 20.4728C16 20.4713 16 20.4697 16 20.4682C16 20.4667 16 20.4651 16 20.4636C16 20.4621 16 20.4605 16 20.459C16 20.4575 16 20.4559 16 20.4544C16 20.4529 16 20.4513 16 20.4498C16 20.4483 16 20.4468 16 20.4452C16 20.4437 16 20.4422 16 20.4407C16 20.4391 16 20.4376 16 20.4361C16 20.4346 16 20.4331 16 20.4315C16 20.43 16 20.4285 16 20.427C16 20.4255 16 20.4239 16 20.4224C16 20.4209 16 20.4194 16 20.4179C16 20.4164 16 20.4149 16 20.4133C16 20.4118 16 20.4103 16 20.4088C16 20.4073 16 20.4058 16 20.4043C16 20.4028 16 20.4013 16 20.3998C16 20.3982 16 20.3967 16 20.3952C16 20.3937 16 20.3922 16 20.3907C16 20.3892 16 20.3877 16 20.3862C16 20.3847 16 20.3832 16 20.3817C16 20.3802 16 20.3787 16 20.3772C16 20.3757 16 20.3742 16 20.3728C16 20.3713 16 20.3698 16 20.3683C16 20.3668 16 20.3653 16 20.3638C16 20.3623 16 20.3608 16 20.3593C16 20.3578 16 20.3564 16 20.3549C16 20.3534 16 20.3519 16 20.3504C16 20.3489 16 20.3474 16 20.346C16 20.3445 16 20.343 16 20.3415C16 20.34 16 20.3386 16 20.3371C16 20.3356 16 20.3341 16 20.3327C16 20.3312 16 20.3297 16 20.3282C16 20.3268 16 20.3253 16 20.3238C16 20.3223 16 20.3209 16 20.3194C16 20.3179 16 20.3165 16 20.315C16 20.3135 16 20.3121 16 20.3106C16 20.3091 16 20.3077 16 20.3062C16 20.3047 16 20.3033 16 20.3018C16 20.3004 16 20.2989 16 20.2974C16 20.296 16 20.2945 16 20.2931C16 20.2916 16 20.2902 16 20.2887C16 20.2872 16 20.2858 16 20.2843C16 20.2829 16 20.2814 16 20.28C16 20.2785 16 20.2771 16 20.2756C16 20.2742 16 20.2727 16 20.2713C16 20.2699 16 20.2684 16 20.267C16 20.2655 16 20.2641 16 20.2626C16 20.2612 16 20.2598 16 20.2583C16 20.2569 16 20.2554 16 20.254C16 20.2526 16 20.2511 16 20.2497C16 20.2483 16 20.2468 16 20.2454C16 20.244 16 20.2425 16 20.2411C16 20.2397 16 20.2382 16 20.2368C16 20.2354 16 20.234 16 20.2325C16 20.2311 16 20.2297 16 20.2282C16 20.2268 16 20.2254 16 20.224C16 20.2226 16 20.2211 16 20.2197C16 20.2183 16 20.2169 16 20.2155C16 20.214 16 20.2126 16 20.2112C16 20.2098 16 20.2084 16 20.207C16 20.2056 16 20.2041 16 20.2027C16 20.2013 16 20.1999 16 20.1985C16 20.1971 16 20.1957 16 20.1943C16 20.1929 16 20.1915 16 20.1901C16 20.1887 16 20.1873 16 20.1859C16 20.1845 16 20.1831 16 20.1817C16 20.1803 16 20.1789 16 20.1775C16 20.1761 16 20.1747 16 20.1733C16 20.1719 16 20.1705 16 20.1691C16 20.1677 16 20.1663 16 20.1649C16 20.1635 16 20.1622 16 20.1608C16 20.1594 16 20.158 16 20.1566C16 20.1552 16 20.1538 16 20.1525C16 20.1511 16 20.1497 16 20.1483C16 20.1469 16 20.1455 16 20.1442C16 20.1428 16 20.1414 16 20.14C16 20.1387 16 20.1373 16 20.1359C16 20.1345 16 20.1332 16 20.1318C16 20.1304 16 20.1291 16 20.1277C16 20.1263 16 20.1249 16 20.1236C16 20.1222 16 20.1208 16 20.1195C16 20.1181 16 20.1168 16 20.1154C16 20.114 16 20.1127 16 20.1113C16 20.11 16 20.1086 16 20.1072C16 20.1059 16 20.1045 16 20.1032C16 20.1018 16 20.1005 16 20.0991C16 20.0978 16 20.0964 16 20.0951C16 20.0937 16 20.0924 16 20.091C16 20.0897 16 20.0883 16 20.087C16 20.0856 16 20.0843 16 20.0829C16 20.0816 16 20.0803 16 20.0789C16 20.0776 16 20.0762 16 20.0749C16 20.0736 16 20.0722 16 20.0709C16 20.0696 16 20.0682 16 20.0669C16 20.0656 16 20.0642 16 20.0629C16 20.0616 16 20.0602 16 20.0589C16 20.0576 16 20.0563 16 20.0549C16 20.0536 16 20.0523 16 20.051C16 20.0496 16 20.0483 16 20.047C16 20.0457 16 20.0444 16 20.043C16 20.0417 16 20.0404 16 20.0391C16 20.0378 16 20.0365 16 20.0351C16 20.0338 16 20.0325 16 20.0312C16 20.0299 16 20.0286 16 20.0273C16 20.026 16 20.0247 16 20.0234C16 20.0221 16 20.0208 16 20.0194C16 20.0181 16 20.0168 16 20.0155C16 20.0142 16 20.0129 16 20.0116C16 20.0103 16 20.0091 16 20.0078C16 20.0065 16 20.0052 16 20.0039C16 20.0026 16 20.0013 16 20H14ZM14 22.5858L10.7071 19.2929L9.29289 20.7071L12.5858 24L14 22.5858ZM10 19H7V21H10V19ZM15 21H17V19H15V21ZM14 22.5861V22.5858L12.5858 24C13.8453 25.2595 16 24.3684 16 22.5861H14Z" fill="#222222"/>
<path d="M6 5V4C6 2.89543 6.89543 2 8 2H23C24.1046 2 25 2.89543 25 4V13C25 14.1046 24.1046 15 23 15H22" stroke="#222222" stroke-width="2"/>
</svg>
