<svg width="32" height="36" viewBox="0 0 32 36" fill="none" xmlns="http://www.w3.org/2000/svg">
<path fill-rule="evenodd" clip-rule="evenodd" d="M22.4468 24.3823C22.7278 24.6344 23 25.0607 23 25.9999C23 26.5522 23.4477 26.9999 24 26.9999C24.5523 26.9999 25 26.5522 25 25.9999C25 24.6059 24.5638 23.5946 23.7823 22.8936C23.0595 22.2452 22.1407 21.963 21.4358 21.766C21.3195 21.7335 21.2093 21.7032 21.1047 21.6745C20.4886 21.5052 20.0678 21.3896 19.7472 21.1901C19.592 21.0934 19.5042 20.9993 19.4486 20.9003C19.3927 20.8009 19.3333 20.6326 19.3333 20.3333H17.3333C17.3333 20.9089 17.451 21.4281 17.705 21.8801C17.9593 22.3325 18.3142 22.6538 18.6902 22.8879C19.2824 23.2566 20.0356 23.4593 20.6262 23.6183C20.7213 23.6439 20.8122 23.6684 20.8975 23.6922C21.6093 23.8911 22.1071 24.0776 22.4468 24.3823Z" fill="#C0C0C0"/>
<path fill-rule="evenodd" clip-rule="evenodd" d="M9.55318 24.3823C9.27216 24.6344 9 25.0607 9 25.9999C9 26.5522 8.55228 26.9999 8 26.9999C7.44772 26.9999 7 26.5522 7 25.9999C7 24.6059 7.43618 23.5946 8.21767 22.8936C8.94048 22.2452 9.85928 21.963 10.5642 21.766C10.6805 21.7335 10.7907 21.7032 10.8953 21.6745C11.5114 21.5052 11.9322 21.3896 12.2528 21.1901C12.408 21.0934 12.4958 20.9993 12.5514 20.9003C12.6073 20.8009 12.6667 20.6326 12.6667 20.3333H14.6667C14.6667 20.9089 14.549 21.4281 14.295 21.8801C14.0407 22.3325 13.6858 22.6538 13.3098 22.8879C12.7176 23.2566 11.9644 23.4593 11.3738 23.6183C11.2787 23.6439 11.1878 23.6684 11.1025 23.6922C10.3907 23.8911 9.89288 24.0776 9.55318 24.3823Z" fill="#C0C0C0"/>
<path fill-rule="evenodd" clip-rule="evenodd" d="M19.8332 15.6667L19.8332 13.9167C19.8332 12.9479 19.3923 12.292 18.6685 11.8008C17.8774 11.264 16.8231 11 15.9998 11C15.1766 11 14.1223 11.264 13.3312 11.8008C12.6073 12.292 12.1665 12.9479 12.1665 13.9167V15.6664C12.1665 17.1808 12.7956 18.453 13.6573 19.3588C14.5738 20.3223 15.5417 20.6667 15.9998 20.6667C16.458 20.6667 17.4259 20.3223 18.3424 19.3589C19.2041 18.453 19.8332 17.1811 19.8332 15.6667ZM21.8332 15.6667C21.8332 19.8549 18.3332 22.6667 15.9998 22.6667C13.6665 22.6667 10.1665 19.8549 10.1665 15.6667V13.9167C10.1665 10.4167 13.6665 9 15.9998 9C18.3332 9 21.8332 10.4167 21.8332 13.9167L21.8332 15.6667Z" fill="#C0C0C0"/>
<path fill-rule="evenodd" clip-rule="evenodd" d="M1 7.00052C1 4.79161 2.79063 3 5 3H10.1667C10.719 3 11.1667 3.44772 11.1667 4C11.1667 4.55228 10.719 5 10.1667 5H5C3.89566 5 3 5.89573 3 7.00052V12.1667C3 12.719 2.55228 13.1667 2 13.1667C1.44772 13.1667 1 12.719 1 12.1667V7.00052ZM20.8333 4C20.8333 3.44772 21.281 3 21.8333 3H27C29.2091 3 31 4.79086 31 7V12.1667C31 12.719 30.5523 13.1667 30 13.1667C29.4477 13.1667 29 12.719 29 12.1667V7C29 5.89543 28.1046 5 27 5H21.8333C21.281 5 20.8333 4.55228 20.8333 4ZM2 22.8333C2.55228 22.8333 3 23.281 3 23.8333V29C3 30.1046 3.89543 31 5 31H10.1667C10.719 31 11.1667 31.4477 11.1667 32C11.1667 32.5523 10.719 33 10.1667 33H5C2.79086 33 1 31.2091 1 29V23.8333C1 23.281 1.44772 22.8333 2 22.8333ZM30 22.8333C30.5523 22.8333 31 23.281 31 23.8333V29C31 31.2091 29.2091 33 27 33H21.8333C21.281 33 20.8333 32.5523 20.8333 32C20.8333 31.4477 21.281 31 21.8333 31H27C28.1046 31 29 30.1046 29 29V23.8333C29 23.281 29.4477 22.8333 30 22.8333Z" fill="#C0C0C0"/>
</svg>
