<svg width="32" height="36" viewBox="0 0 32 36" fill="none" xmlns="http://www.w3.org/2000/svg">
<path d="M26.3244 4.446C26.1822 4.446 26.0489 4.41 25.9156 4.347C22.5122 2.565 19.553 1.8 16.0163 1.8C12.4884 1.8 9.16492 2.655 6.11692 4.338C5.68149 4.572 5.14831 4.419 4.90838 3.978C4.67734 3.537 4.82841 2.997 5.26384 2.754C8.57843 0.927 12.1952 0 16.0163 0C19.8018 0 23.1075 0.846 26.7332 2.745C27.1686 2.97 27.3374 3.519 27.1153 3.96C26.9553 4.266 26.6443 4.446 26.3244 4.446ZM0.891772 13.896C0.714046 13.896 0.53632 13.842 0.376367 13.734C-0.0235172 13.446 -0.121267 12.888 0.163095 12.483C1.92258 9.963 4.17082 7.983 6.83671 6.588C12.4262 3.663 19.5708 3.654 25.1692 6.57C27.8262 7.956 30.0655 9.918 31.8339 12.42C32.1183 12.825 32.0294 13.383 31.6295 13.671C31.2296 13.959 30.6698 13.869 30.3854 13.464C28.7859 11.196 26.7598 9.414 24.3605 8.172C19.2598 5.517 12.7461 5.526 7.65425 8.19C5.24606 9.45 3.2111 11.241 1.62045 13.527C1.44272 13.77 1.16725 13.896 0.891772 13.896ZM12.0085 35.613C11.7775 35.613 11.5553 35.523 11.3776 35.343C9.84028 33.768 9.00497 32.769 7.80532 30.6C6.57901 28.386 5.93031 25.677 5.93031 22.779C5.93031 17.433 10.4446 13.077 15.9985 13.077C21.5524 13.077 26.0667 17.424 26.0667 22.779C26.0667 23.274 25.6668 23.679 25.1781 23.679C24.6893 23.679 24.2894 23.274 24.2894 22.779C24.2894 18.423 20.5749 14.877 15.9985 14.877C11.4309 14.877 7.70757 18.423 7.70757 22.779C7.70757 25.371 8.27629 27.765 9.35154 29.718C10.4979 31.788 11.2621 32.679 12.6306 34.074C12.9771 34.425 12.9771 35.001 12.6217 35.343C12.4617 35.532 12.2307 35.613 12.0085 35.613ZM24.7426 32.283C22.6277 32.283 20.7704 31.743 19.2331 30.69C16.5939 28.872 15.0121 25.92 15.0121 22.788C15.0121 22.293 15.412 21.888 15.9007 21.888C16.3895 21.888 16.7894 22.293 16.7894 22.788C16.7894 25.317 18.0779 27.711 20.2373 29.196C21.4902 30.06 22.9654 30.483 24.7426 30.483C25.1692 30.483 25.889 30.438 26.5999 30.312C27.0797 30.222 27.5418 30.555 27.6307 31.041C27.7195 31.527 27.3907 31.995 26.9109 32.085C25.8712 32.274 24.9914 32.283 24.7426 32.283ZM21.1614 36C21.0815 36 21.0015 35.991 20.9304 35.964C18.0957 35.181 16.2473 34.119 14.3279 32.184C11.8486 29.682 10.4801 26.343 10.4801 22.788C10.4801 19.863 12.9327 17.487 15.9541 17.487C18.9754 17.487 21.428 19.863 21.428 22.788C21.428 24.714 23.0898 26.289 25.1247 26.289C27.1597 26.289 28.8214 24.723 28.8214 22.788C28.8214 16.002 23.0453 10.485 15.9452 10.485C10.8889 10.485 6.27687 13.329 4.19748 17.739C3.50435 19.197 3.15778 20.898 3.15778 22.788C3.15778 24.192 3.28219 26.406 4.33966 29.277C4.5085 29.745 4.27746 30.258 3.81537 30.438C3.35328 30.609 2.84676 30.375 2.66903 29.907C1.79818 27.54 1.37163 25.218 1.37163 22.788C1.37163 20.628 1.7804 18.666 2.58906 16.965C4.9617 11.943 10.2046 8.694 15.9363 8.694C24.0139 8.694 30.5898 15.021 30.5898 22.797C30.5898 25.722 28.1283 28.098 25.1158 28.098C22.1034 28.098 19.6419 25.722 19.6419 22.797C19.6419 20.871 17.9801 19.296 15.9452 19.296C13.9102 19.296 12.2485 20.862 12.2485 22.797C12.2485 25.866 13.4304 28.755 15.572 30.915C17.2515 32.607 18.8865 33.543 21.3925 34.236C21.8635 34.371 22.1478 34.866 22.0145 35.343C21.9079 35.739 21.5524 36 21.1614 36Z" fill="#C0C0C0"/>
<mask id="mask0" mask-type="alpha" maskUnits="userSpaceOnUse" x="0" y="0" width="32" height="36">
<path d="M26.3244 4.446C26.1822 4.446 26.0489 4.41 25.9156 4.347C22.5122 2.565 19.553 1.8 16.0163 1.8C12.4884 1.8 9.16492 2.655 6.11692 4.338C5.68149 4.572 5.14831 4.419 4.90838 3.978C4.67734 3.537 4.82841 2.997 5.26384 2.754C8.57843 0.927 12.1952 0 16.0163 0C19.8018 0 23.1075 0.846 26.7332 2.745C27.1686 2.97 27.3374 3.519 27.1153 3.96C26.9553 4.266 26.6443 4.446 26.3244 4.446ZM0.891772 13.896C0.714046 13.896 0.53632 13.842 0.376367 13.734C-0.0235172 13.446 -0.121267 12.888 0.163095 12.483C1.92258 9.963 4.17082 7.983 6.83671 6.588C12.4262 3.663 19.5708 3.654 25.1692 6.57C27.8262 7.956 30.0655 9.918 31.8339 12.42C32.1183 12.825 32.0294 13.383 31.6295 13.671C31.2296 13.959 30.6698 13.869 30.3854 13.464C28.7859 11.196 26.7598 9.414 24.3605 8.172C19.2598 5.517 12.7461 5.526 7.65425 8.19C5.24606 9.45 3.2111 11.241 1.62045 13.527C1.44272 13.77 1.16725 13.896 0.891772 13.896ZM12.0085 35.613C11.7775 35.613 11.5553 35.523 11.3776 35.343C9.84028 33.768 9.00497 32.769 7.80532 30.6C6.57901 28.386 5.93031 25.677 5.93031 22.779C5.93031 17.433 10.4446 13.077 15.9985 13.077C21.5524 13.077 26.0667 17.424 26.0667 22.779C26.0667 23.274 25.6668 23.679 25.1781 23.679C24.6893 23.679 24.2894 23.274 24.2894 22.779C24.2894 18.423 20.5749 14.877 15.9985 14.877C11.4309 14.877 7.70757 18.423 7.70757 22.779C7.70757 25.371 8.27629 27.765 9.35154 29.718C10.4979 31.788 11.2621 32.679 12.6306 34.074C12.9771 34.425 12.9772 35.001 12.6217 35.343C12.4617 35.532 12.2307 35.613 12.0085 35.613ZM24.7426 32.283C22.6277 32.283 20.7704 31.743 19.2331 30.69C16.5939 28.872 15.0121 25.92 15.0121 22.788C15.0121 22.293 15.412 21.888 15.9007 21.888C16.3895 21.888 16.7894 22.293 16.7894 22.788C16.7894 25.317 18.0779 27.711 20.2373 29.196C21.4902 30.06 22.9654 30.483 24.7426 30.483C25.1692 30.483 25.889 30.438 26.5999 30.312C27.0797 30.222 27.5418 30.555 27.6307 31.041C27.7195 31.527 27.3907 31.995 26.9109 32.085C25.8712 32.274 24.9914 32.283 24.7426 32.283ZM21.1614 36C21.0815 36 21.0015 35.991 20.9304 35.964C18.0957 35.181 16.2473 34.119 14.3279 32.184C11.8486 29.682 10.4801 26.343 10.4801 22.788C10.4801 19.863 12.9327 17.487 15.9541 17.487C18.9754 17.487 21.428 19.863 21.428 22.788C21.428 24.714 23.0898 26.289 25.1247 26.289C27.1597 26.289 28.8214 24.723 28.8214 22.788C28.8214 16.002 23.0453 10.485 15.9452 10.485C10.8889 10.485 6.27687 13.329 4.19748 17.739C3.50435 19.197 3.15778 20.898 3.15778 22.788C3.15778 24.192 3.28219 26.406 4.33966 29.277C4.5085 29.745 4.27746 30.258 3.81537 30.438C3.35328 30.609 2.84676 30.375 2.66903 29.907C1.79818 27.54 1.37163 25.218 1.37163 22.788C1.37163 20.628 1.7804 18.666 2.58906 16.965C4.9617 11.943 10.2046 8.694 15.9363 8.694C24.0139 8.694 30.5898 15.021 30.5898 22.797C30.5898 25.722 28.1283 28.098 25.1158 28.098C22.1034 28.098 19.6419 25.722 19.6419 22.797C19.6419 20.871 17.9801 19.296 15.9452 19.296C13.9102 19.296 12.2485 20.862 12.2485 22.797C12.2485 25.866 13.4304 28.755 15.572 30.915C17.2515 32.607 18.8865 33.543 21.3925 34.236C21.8635 34.371 22.1478 34.866 22.0145 35.343C21.9079 35.739 21.5524 36 21.1614 36Z" fill="#30373D"/>
</mask>
<g mask="url(#mask0)">
<path d="M8.80003 12.8C8.80003 13.6836 5.6001 16 4.00007 21.6C3.2001 26 5.20006 30.6 4.00007 31.1999C0.800062 32.7999 -0.399902 23.2778 -0.399902 22.8C-0.399902 22.3221 0.867929 16.6931 1.2001 16.4C1.48215 16.151 6.79425 11.2 7.20003 11.2C8.08368 11.2 8.80003 11.9163 8.80003 12.8Z" fill="#01257F"/>
<path d="M8.8001 21.9999C8.8001 22.4057 9.2001 27.5999 10.4001 29.9999C11.2001 33.1999 14.0001 33.5999 13.2001 36.3999C9.2001 36.7999 7.08215 32.2488 6.8001 31.9999C5.6001 28.7999 5.6001 22.4778 5.6001 21.9999C5.6001 21.1162 6.31644 20.3999 7.2001 20.3999C8.08375 20.3999 8.8001 21.1162 8.8001 21.9999Z" fill="#01257F"/>
<path d="M17.6002 31.6C18.5914 32.0956 22.2582 33.7264 22.8002 35.2C22.8002 37.2 20.3364 36.4 20.0002 36.4C12.4002 32.8 11.2002 28.0837 11.2002 27.2C11.2002 26.3163 11.5165 26 12.4002 26C13.2839 26 15.6002 30.6 17.6002 31.6Z" fill="#01257F"/>
<path d="M24.4001 29.6C26.0001 29.6 28.4001 28.8 28.8001 31.2C28.4001 33.6 23.278 32.4 22.8001 32.4C21.9164 32.4 17.6001 30.4837 17.6001 29.6C17.6001 28.7163 18.3164 28 19.2001 28C20.0838 28 21.2001 29.2 24.4001 29.6Z" fill="#01257F"/>
<path d="M31.5999 14C29.9999 14.4 23.5999 9.6 22.7999 8.8C21.9999 8.4 20.4778 7.2 19.9999 7.2C19.1162 7.2 18.3999 6.48366 18.3999 5.6C18.3999 4.71634 19.1162 4 19.9999 4C20.4778 4 27.7067 6.32616 27.9999 6.65833C28.2488 6.94038 34.3999 12.4 31.5999 14Z" fill="#01257F"/>
<path d="M27.9999 3.59993C27.9999 3.77791 27.7866 5.16962 26.7999 5.19995C25.4587 5.24118 22.1805 3.10969 19.9999 2.79995C15.82 2.20623 12.4636 3.19993 11.9999 3.19993C11.1162 3.19993 10.3999 2.48358 10.3999 1.59993C10.3999 0.71627 11.1162 -7.4625e-05 11.9999 -7.4625e-05C12.4901 -7.4625e-05 17.7602 -0.895305 21.9999 -5.6088e-05C25.403 0.71852 27.9999 3.20647 27.9999 3.59993Z" fill="#01257F"/>
<path fill-rule="evenodd" clip-rule="evenodd" d="M19.7766 11.4684C20.4389 11.4928 20.9957 10.9758 21.0201 10.3135C21.0446 9.65122 20.5276 9.09449 19.8653 9.07C19.7785 9.0668 19.4924 9.01591 19.0911 8.94455C17.9031 8.73325 15.7056 8.34241 14.6836 8.47821C14.3325 8.52487 14.0419 8.56969 13.8042 8.63619C13.6384 8.53866 13.4467 8.4797 13.241 8.47209C12.5787 8.44761 12.0219 8.96466 11.9975 9.62695C11.973 10.2892 12.49 10.846 13.1523 10.8705C13.1655 10.8709 13.1786 10.8712 13.1916 10.8713C13.3894 11.1687 13.6423 11.1739 14.0185 11.1817C14.2451 11.1864 14.5165 11.1921 14.8476 11.2631C15.9703 11.504 18.2836 11.4804 19.3051 11.47C19.5422 11.4676 19.7097 11.4659 19.7766 11.4684Z" fill="#01257F"/>
</g>
</svg>
