<svg width="40" height="40" viewBox="0 0 40 40" fill="none" xmlns="http://www.w3.org/2000/svg">
<circle opacity="0.3" cx="20" cy="20" r="20" fill="#01257F"/>
<path fill-rule="evenodd" clip-rule="evenodd" d="M24.7753 24.7276C24.9834 24.9143 25.185 25.2301 25.185 25.9258C25.185 26.3349 25.5167 26.6666 25.9258 26.6666C26.3349 26.6666 26.6665 26.3349 26.6665 25.9258C26.6665 24.8932 26.3434 24.1441 25.7645 23.6248C25.2291 23.1445 24.5485 22.9355 24.0263 22.7896C23.9402 22.7655 23.8586 22.7431 23.7811 22.7218C23.3247 22.5964 23.013 22.5108 22.7756 22.3629C22.6605 22.2913 22.5955 22.2217 22.5543 22.1483C22.5129 22.0747 22.4689 21.95 22.4689 21.7283H20.9875C20.9875 22.1547 21.0746 22.5393 21.2628 22.8741C21.4511 23.2092 21.7141 23.4472 21.9926 23.6206C22.4312 23.8937 22.9892 24.0439 23.4267 24.1616C23.4971 24.1806 23.5644 24.1987 23.6276 24.2164C24.1548 24.3637 24.5236 24.5019 24.7753 24.7276Z" fill="white"/>
<path fill-rule="evenodd" clip-rule="evenodd" d="M15.2242 24.7276C15.0161 24.9143 14.8145 25.2301 14.8145 25.9258C14.8145 26.3349 14.4828 26.6666 14.0737 26.6666C13.6646 26.6666 13.333 26.3349 13.333 25.9258C13.333 24.8932 13.6561 24.1441 14.235 23.6248C14.7704 23.1445 15.451 22.9355 15.9732 22.7896C16.0593 22.7655 16.1409 22.7431 16.2184 22.7218C16.6748 22.5964 16.9865 22.5108 17.224 22.3629C17.339 22.2913 17.404 22.2217 17.4452 22.1483C17.4866 22.0747 17.5306 21.95 17.5306 21.7283H19.0121C19.0121 22.1547 18.9249 22.5393 18.7367 22.8741C18.5484 23.2092 18.2854 23.4472 18.0069 23.6206C17.5683 23.8937 17.0104 24.0439 16.5728 24.1616C16.5024 24.1806 16.4351 24.1987 16.3719 24.2164C15.8447 24.3637 15.4759 24.5019 15.2242 24.7276Z" fill="white"/>
<path fill-rule="evenodd" clip-rule="evenodd" d="M22.8392 18.2715L22.8392 16.9753C22.8392 16.2576 22.5127 15.7718 21.9765 15.4079C21.3905 15.0103 20.6095 14.8147 19.9997 14.8147C19.3899 14.8147 18.6089 15.0103 18.0229 15.4079C17.4867 15.7718 17.1602 16.2576 17.1602 16.9752V18.2713C17.1602 19.3931 17.6262 20.3355 18.2645 21.0065C18.9433 21.7202 19.6604 21.9753 19.9997 21.9753C20.339 21.9753 21.056 21.7202 21.7349 21.0065C22.3732 20.3355 22.8392 19.3933 22.8392 18.2715ZM24.3207 18.2716C24.3207 21.3739 21.7281 23.4568 19.9997 23.4568C18.2713 23.4568 15.6787 21.3739 15.6787 18.2716V16.9752C15.6787 14.3826 18.2713 13.3333 19.9997 13.3333C21.7281 13.3333 24.3207 14.3827 24.3207 16.9753L24.3207 18.2716Z" fill="white"/>
<path opacity="0.5" fill-rule="evenodd" clip-rule="evenodd" d="M8.88867 11.8521C8.88867 10.2159 10.2151 8.88879 11.8516 8.88879H15.6788C16.0879 8.88879 16.4195 9.22043 16.4195 9.62953C16.4195 10.0386 16.0879 10.3703 15.6788 10.3703H11.8516C11.0336 10.3703 10.3702 11.0338 10.3702 11.8521V15.6789C10.3702 16.088 10.0385 16.4197 9.62941 16.4197C9.22031 16.4197 8.88867 16.088 8.88867 15.6789V11.8521ZM23.58 9.62953C23.58 9.22043 23.9117 8.88879 24.3208 8.88879H28.1479C29.7843 8.88879 31.1109 10.2154 31.1109 11.8518V15.6789C31.1109 16.088 30.7793 16.4197 30.3702 16.4197C29.9611 16.4197 29.6294 16.088 29.6294 15.6789V11.8518C29.6294 11.0336 28.9661 10.3703 28.1479 10.3703H24.3208C23.9117 10.3703 23.58 10.0386 23.58 9.62953ZM9.62941 23.5802C10.0385 23.5802 10.3702 23.9118 10.3702 24.3209V28.1481C10.3702 28.9663 11.0334 29.6295 11.8516 29.6295H15.6788C16.0879 29.6295 16.4195 29.9612 16.4195 30.3703C16.4195 30.7794 16.0879 31.111 15.6788 31.111H11.8516C10.2152 31.111 8.88867 29.7844 8.88867 28.1481V24.3209C8.88867 23.9118 9.22031 23.5802 9.62941 23.5802ZM30.3702 23.5802C30.7793 23.5802 31.1109 23.9118 31.1109 24.3209V28.1481C31.1109 29.7845 29.7843 31.111 28.1479 31.111H24.3208C23.9117 31.111 23.58 30.7794 23.58 30.3703C23.58 29.9612 23.9117 29.6295 24.3208 29.6295H28.1479C28.9661 29.6295 29.6294 28.9663 29.6294 28.1481V24.3209C29.6294 23.9118 29.9611 23.5802 30.3702 23.5802Z" fill="white"/>
</svg>
