<svg width="40" height="40" viewBox="0 0 40 40" fill="none" xmlns="http://www.w3.org/2000/svg">
<circle opacity="0.3" cx="20" cy="20" r="20" fill="#01257F"/>
<path fill-rule="evenodd" clip-rule="evenodd" d="M13.2823 19.6387C13.2019 19.0923 12.762 18.642 12.2097 18.642H11.4936C10.9413 18.642 10.4881 19.0911 10.5454 19.6404C10.9976 23.9725 14.3593 27.4393 18.6418 28.0519V32.5802C18.6418 33.1325 19.0895 33.5802 19.6418 33.5802H20.3578C20.9101 33.5802 21.3578 33.1325 21.3578 32.5802V28.0519C25.6403 27.4393 29.002 23.9725 29.4542 19.6404C29.5115 19.0911 29.0583 18.642 28.506 18.642H27.7899C27.2376 18.642 26.7977 19.0923 26.7173 19.6387C26.2352 22.9162 23.4113 25.4321 19.9998 25.4321C16.5883 25.4321 13.7644 22.9162 13.2823 19.6387Z" fill="white"/>
<rect opacity="0.5" x="15.9258" y="6.4198" width="8.14815" height="16.2963" rx="3.5" fill="white"/>
</svg>
