<svg width="40" height="40" viewBox="0 0 40 40" fill="none" xmlns="http://www.w3.org/2000/svg">
<circle opacity="0.3" cx="20" cy="20" r="20" fill="#01257F"/>
<path fill-rule="evenodd" clip-rule="evenodd" d="M24 12H16C13.7909 12 12 13.7909 12 16V24C12 26.2091 13.7909 28 16 28H24C26.2091 28 28 26.2091 28 24V16C28 13.7909 26.2091 12 24 12ZM14.6665 15.9998C14.6665 15.2635 15.2635 14.6665 15.9998 14.6665H23.9998C24.7362 14.6665 25.3332 15.2635 25.3332 15.9998V23.9998C25.3332 24.7362 24.7362 25.3332 23.9998 25.3332H15.9998C15.2635 25.3332 14.6665 24.7362 14.6665 23.9998V15.9998Z" fill="white"/>
<path d="M16 28H24V31.8333C24 32.6618 23.3284 33.3333 22.5 33.3333H17.5C16.6716 33.3333 16 32.6618 16 31.8333V28Z" fill="white"/>
<path d="M16 8.16663C16 7.3382 16.6716 6.66663 17.5 6.66663H22.5C23.3284 6.66663 24 7.3382 24 8.16663V12H16V8.16663Z" fill="white"/>
<g opacity="0.5">
<path d="M9.27206 15.6531C9.60115 15.974 9.70472 16.4501 9.57582 16.8861C9.28354 17.8748 9.12694 18.9196 9.12694 20C9.12694 21.0804 9.28354 22.1252 9.57582 23.1139C9.70472 23.5499 9.60115 24.026 9.27206 24.3469C8.67924 24.9249 7.67918 24.7434 7.43283 23.962C7.03792 22.7094 6.82535 21.3789 6.82535 20C6.82535 18.6211 7.03791 17.2906 7.43283 16.038C7.67918 15.2566 8.67924 15.0751 9.27206 15.6531Z" fill="white"/>
<path d="M5.71536 12.185C6.07743 12.5381 6.15923 13.0774 5.94819 13.5323C5.03315 15.5047 4.52376 17.6943 4.52376 20C4.52376 22.3056 5.03315 24.4952 5.94819 26.4676C6.15923 26.9225 6.07743 27.4618 5.71536 27.8149C5.16723 28.3493 4.24701 28.2282 3.92097 27.5425C2.83067 25.2492 2.22217 22.6939 2.22217 20C2.22217 17.306 2.83067 14.7507 3.92098 12.4574C4.24701 11.7717 5.16723 11.6506 5.71536 12.185Z" fill="white"/>
</g>
<g opacity="0.5">
<path d="M30.7276 15.6531C30.3985 15.974 30.295 16.4501 30.4239 16.8861C30.7161 17.8748 30.8728 18.9196 30.8728 20C30.8728 21.0804 30.7161 22.1252 30.4239 23.1139C30.295 23.5499 30.3985 24.026 30.7276 24.3469C31.3205 24.9249 32.3205 24.7434 32.5669 23.962C32.9618 22.7094 33.1743 21.3789 33.1743 20C33.1743 18.6211 32.9618 17.2906 32.5669 16.038C32.3205 15.2566 31.3205 15.0751 30.7276 15.6531Z" fill="white"/>
<path d="M34.2843 12.185C33.9223 12.5381 33.8405 13.0774 34.0515 13.5323C34.9665 15.5047 35.4759 17.6943 35.4759 20C35.4759 22.3056 34.9665 24.4952 34.0515 26.4676C33.8405 26.9225 33.9223 27.4618 34.2843 27.8149C34.8325 28.3493 35.7527 28.2282 36.0787 27.5425C37.169 25.2492 37.7775 22.6939 37.7775 20C37.7775 17.306 37.169 14.7507 36.0787 12.4574C35.7527 11.7717 34.8325 11.6506 34.2843 12.185Z" fill="white"/>
</g>
</svg>
