<svg width="40" height="40" viewBox="0 0 40 40" fill="none" xmlns="http://www.w3.org/2000/svg">
<circle opacity="0.3" cx="20" cy="20" r="20" fill="#01257F"/>
<path opacity="0.5" fill-rule="evenodd" clip-rule="evenodd" d="M12.1235 8.88892C11.019 8.88892 10.1235 9.78435 10.1235 10.8889V31.5803C10.1235 32.6848 11.019 33.5803 12.1235 33.5803H23.7848C23.3393 32.7535 23.0865 31.8075 23.0865 30.8025C23.0865 27.5638 25.712 24.9383 28.9507 24.9383C29.2658 24.9383 29.575 24.9632 29.8766 25.011V10.8889C29.8766 9.78435 28.9812 8.88892 27.8766 8.88892H12.1235Z" fill="white"/>
<path fill-rule="evenodd" clip-rule="evenodd" d="M28.102 32.9629C27.8898 32.9629 27.6776 32.8806 27.5078 32.716L25.8103 31.0699C25.4708 30.7407 25.4708 30.2469 25.8103 29.9177C26.1498 29.5884 26.7015 29.5884 26.9986 29.9177L28.102 30.9876L30.9029 28.2716C31.2424 27.9424 31.7517 27.9424 32.0912 28.2716C32.4307 28.6008 32.4307 29.0946 32.0912 29.4238L28.6961 32.716C28.5263 32.8806 28.3142 32.9629 28.102 32.9629Z" fill="white"/>
<rect x="16.2964" y="11.9753" width="7.40741" height="1.23457" rx="0.617284" fill="white"/>
<rect x="12.5923" y="15.6791" width="14.8148" height="1.23457" rx="0.617285" fill="white"/>
<rect x="12.5923" y="18.7654" width="14.8148" height="1.23457" rx="0.617284" fill="white"/>
<rect x="12.5923" y="21.8518" width="14.8148" height="1.23457" rx="0.617284" fill="white"/>
<rect x="12.5923" y="24.9382" width="8.64198" height="1.23457" rx="0.617283" fill="white"/>
</svg>
