<svg width="26" height="26" viewBox="0 0 26 26" fill="none" xmlns="http://www.w3.org/2000/svg">
<circle cx="13" cy="13" r="11" stroke="#222222" stroke-width="2"/>
<path d="M8.6665 12.0001C8.11422 12.0001 7.6665 12.4478 7.6665 13.0001C7.6665 13.5523 8.11422 14.0001 8.6665 14.0001V12.0001ZM17.3332 14.0001C17.8855 14.0001 18.3332 13.5523 18.3332 13.0001C18.3332 12.4478 17.8855 12.0001 17.3332 12.0001V14.0001ZM13.9998 8.66675C13.9998 8.11446 13.5521 7.66675 12.9998 7.66675C12.4475 7.66675 11.9998 8.11446 11.9998 8.66675L13.9998 8.66675ZM11.9998 17.3334C11.9998 17.8857 12.4475 18.3334 12.9998 18.3334C13.5521 18.3334 13.9998 17.8857 13.9998 17.3334H11.9998ZM8.6665 14.0001H17.3332V12.0001H8.6665V14.0001ZM11.9998 8.66675L11.9998 17.3334H13.9998L13.9998 8.66675L11.9998 8.66675Z" fill="#222222"/>
</svg>
