<svg width="26" height="26" viewBox="0 0 26 26" fill="none" xmlns="http://www.w3.org/2000/svg">
<path d="M16.3256 4.08325H10.8711C9.76652 4.08325 8.87109 4.97868 8.87109 6.08325V19.4166C8.87109 20.5212 9.76652 21.4166 10.8711 21.4166H16.3256C17.4302 21.4166 18.3256 20.5212 18.3256 19.4166V6.08325C18.3256 4.97868 17.4302 4.08325 16.3256 4.08325Z" stroke="#222222" stroke-width="2" stroke-linecap="round"/>
<mask id="path-2-inside-1" fill="white">
<ellipse cx="13.5984" cy="18.2652" rx="0.787879" ry="0.78788"/>
</mask>
<ellipse cx="13.5984" cy="18.2652" rx="0.787879" ry="0.78788" fill="#222222"/>
<path d="M13.3863 18.2652C13.3863 18.148 13.4813 18.0531 13.5984 18.0531V20.0531C14.5858 20.0531 15.3863 19.2526 15.3863 18.2652H13.3863ZM13.5984 18.0531C13.7156 18.0531 13.8105 18.148 13.8105 18.2652H11.8105C11.8105 19.2526 12.611 20.0531 13.5984 20.0531V18.0531ZM13.8105 18.2652C13.8105 18.3823 13.7156 18.4773 13.5984 18.4773V16.4773C12.611 16.4773 11.8105 17.2778 11.8105 18.2652H13.8105ZM13.5984 18.4773C13.4813 18.4773 13.3863 18.3823 13.3863 18.2652H15.3863C15.3863 17.2778 14.5858 16.4773 13.5984 16.4773V18.4773Z" fill="#222222" mask="url(#path-2-inside-1)"/>
</svg>
