<svg width="26" height="26" viewBox="0 0 26 26" fill="none" xmlns="http://www.w3.org/2000/svg">
<path d="M6.50016 9.66675C7.05245 9.66675 7.50016 9.21903 7.50016 8.66675C7.50016 8.11446 7.05245 7.66675 6.50016 7.66675V9.66675ZM18.3335 19.5001C18.3335 18.9478 17.8858 18.5001 17.3335 18.5001C16.7812 18.5001 16.3335 18.9478 16.3335 19.5001H18.3335ZM15.3335 20.6667H6.3335V22.6667H15.3335V20.6667ZM5.3335 19.6667V10.6667H3.3335V19.6667H5.3335ZM6.3335 9.66675H6.50016V7.66675H6.3335V9.66675ZM16.3335 19.5001V19.6667H18.3335V19.5001H16.3335ZM6.3335 20.6667C5.78121 20.6667 5.3335 20.219 5.3335 19.6667H3.3335C3.3335 21.3236 4.67664 22.6667 6.3335 22.6667V20.6667ZM15.3335 22.6667C16.9904 22.6667 18.3335 21.3236 18.3335 19.6667H16.3335C16.3335 20.219 15.8858 20.6667 15.3335 20.6667V22.6667ZM5.3335 10.6667C5.3335 10.1145 5.78121 9.66675 6.3335 9.66675V7.66675C4.67664 7.66675 3.3335 9.00989 3.3335 10.6667H5.3335Z" fill="#222222"/>
<rect x="8.5835" y="4.25" width="13.1667" height="13.1667" rx="1" stroke="#222222" stroke-width="2"/>
</svg>
