<svg width="26" height="26" viewBox="0 0 26 26" fill="none" xmlns="http://www.w3.org/2000/svg">
<path d="M10.1034 18.7931H2C1.44771 18.7931 1 18.3454 1 17.7931V5C1 4.44772 1.44772 4 2 4H24C24.5523 4 25 4.44772 25 5V9.68965" stroke="#222222" stroke-width="2" stroke-linecap="round"/>
<path d="M13.1033 12.0691L12.569 12.9144C12.8993 13.1232 13.321 13.1204 13.6486 12.9073L13.1033 12.0691ZM2.67198 4.29288C2.20513 3.9978 1.58747 4.13705 1.29239 4.6039C0.997313 5.07075 1.13656 5.68841 1.60341 5.98349L2.67198 4.29288ZM24.3037 5.97644C24.7666 5.6753 24.8978 5.05587 24.5966 4.59291C24.2955 4.12996 23.6761 3.99878 23.2131 4.29992L24.3037 5.97644ZM1.60341 5.98349L12.569 12.9144L13.6376 11.2238L2.67198 4.29288L1.60341 5.98349ZM13.6486 12.9073L24.3037 5.97644L23.2131 4.29992L12.558 11.2308L13.6486 12.9073Z" fill="#222222"/>
<path d="M22.1828 15.9921C22.1828 13.3332 20.0274 11.1777 17.3685 11.1777C14.7096 11.1777 12.5542 13.3332 12.5542 15.9921C12.5542 18.6509 14.7096 20.8064 17.3685 20.8064C18.2454 20.8064 19.0676 20.5719 19.7757 20.1623" stroke="#222222" stroke-width="2" stroke-linecap="round"/>
<path d="M18.9722 15.9922C18.9722 18.3993 22.1817 18.3993 22.1817 15.9922" stroke="#222222" stroke-width="2"/>
<path d="M18.9737 15.9922C18.9737 16.1308 18.9562 16.2652 18.9232 16.3934C18.896 16.4987 18.8585 16.5999 18.8117 16.6956C18.551 17.2294 18.0029 17.597 17.3689 17.597C16.4826 17.597 15.7642 16.8785 15.7642 15.9922C15.7642 15.1059 16.4826 14.3875 17.3689 14.3875C18.2552 14.3875 18.9737 15.1059 18.9737 15.9922Z" stroke="#222222" stroke-width="2" stroke-linecap="round"/>
</svg>
