<svg width="26" height="26" viewBox="0 0 26 26" fill="none" xmlns="http://www.w3.org/2000/svg">
<path d="M22.4164 11.5495C22.6323 11.821 22.6323 12.179 22.4164 12.4505C21.5774 13.5057 20.1141 15.1659 18.2634 16.5544C16.4024 17.9506 14.2461 19 12 19C9.75394 19 7.59762 17.9506 5.73659 16.5544C3.88585 15.1659 2.42261 13.5057 1.58361 12.4505C1.36773 12.179 1.36773 11.821 1.58361 11.5495C2.42261 10.4943 3.88585 8.83413 5.73659 7.44563C7.59762 6.0494 9.75394 5 12 5C14.2461 5 16.4024 6.0494 18.2634 7.44563C20.1141 8.83413 21.5774 10.4943 22.4164 11.5495Z" stroke="#222222" stroke-width="2"/>
<circle cx="12" cy="12" r="3" stroke="#222222" stroke-width="2"/>
<path d="M4.22197 19.778L10 14L19.7783 4.22168" stroke="black" stroke-width="2" stroke-linecap="round"/>
</svg>
