<svg width="26" height="26" viewBox="0 0 26 26" fill="none" xmlns="http://www.w3.org/2000/svg">
<path d="M6.44842 3.00002H20.2469C21.2184 3.00002 22.0124 3.83916 22.0124 4.86466V5.75645C22.0124 7.01758 20.3057 7.01214 20.3057 5.76454V5.27753C20.3048 4.96644 20.0532 4.71521 19.7421 4.71433H5.91375C5.60266 4.71521 5.35041 4.96644 5.34997 5.27753V5.75557C5.34997 7.00788 3.72288 6.99993 3.72288 5.78292V4.8673C3.72288 3.83916 4.51642 3.00002 5.48558 3.00002H6.44842ZM12.7776 23.8031H21.7265C23.7691 23.8031 23.7901 21.6302 23.5823 20.5588C23.468 19.8384 22.2439 19.8451 22.1095 20.5588V21.3962C22.1081 21.7793 21.7971 22.0906 21.4136 22.0906H4.25504C3.87203 22.0897 3.56225 21.7795 3.56034 21.3962V20.5588C3.42988 19.8451 2.20052 19.8384 2.08667 20.5588C1.87839 21.6318 1.89825 23.8031 3.94262 23.8031H12.7776Z" fill="#222222"/>
<path d="M18.3948 12.778H19.8219V12.7623C20.4827 12.6586 20.9705 12.0901 20.9725 11.4213C20.9686 10.6735 20.3609 10.069 19.6127 10.0681H16.7352V17.1629H20.3802C21.153 17.1611 21.7787 16.5347 21.7808 15.7625C21.7794 14.9917 21.1574 14.366 20.3867 14.3608H19.8216H18.3945C17.9613 14.3608 17.6098 14.0092 17.6098 13.576C17.6098 13.1419 17.9613 12.7914 18.3945 12.7914V12.778H18.3948ZM21.7486 13.4729C22.7152 13.9052 23.3452 14.8579 23.3636 15.9167C23.3636 17.4194 22.0555 18.6488 20.4484 18.6488H15.9506C15.5425 18.6602 15.2015 18.341 15.1865 17.9335V9.38604C15.1878 8.97213 15.5235 8.63736 15.9374 8.63647H19.6804C21.2586 8.64427 22.5362 9.92025 22.5446 11.4984C22.5456 12.2367 22.2598 12.9457 21.7486 13.4774V13.4729Z" fill="#222222"/>
<path d="M14.4774 17.7884C14.5297 18.2839 14.1703 18.7287 13.6743 18.7804C13.1787 18.8332 12.734 18.4738 12.6818 17.9774L11.9428 11.1766L9.32687 17.8243L9.31892 17.843V17.8569V17.8719V17.8799V17.8931L9.31275 17.9055C9.26524 17.9951 9.20331 18.0749 9.12947 18.1436L9.11638 18.1558C9.06887 18.1979 9.01651 18.2358 8.96076 18.2666L8.94355 18.2763L8.92782 18.2841H8.92164H8.91105H8.9006H8.89134H8.87942H8.8706H8.86133H8.85339H8.84545H8.83353H8.82691C8.74307 18.3131 8.65467 18.3298 8.56554 18.3334H8.50009C8.39904 18.3298 8.29887 18.3088 8.20444 18.2717H8.19296H8.18105H8.16914H8.15987H8.14928H8.13928L8.12207 18.2639L8.10765 18.2558H8.09971C8.05088 18.2286 8.00528 18.197 7.96262 18.161L7.93232 18.1345L7.91041 18.1127L7.88805 18.0898L7.86172 18.0599C7.82568 18.0168 7.79406 17.9711 7.76641 17.9228V17.9149L7.75846 17.9008L7.75052 17.885V17.8746V17.864V17.8543V17.8431V17.8316V17.8193L5.135 11.1646L4.39603 17.9661C4.34676 18.4915 3.88108 18.8773 3.35553 18.828C2.82999 18.7796 2.44373 18.3139 2.49301 17.7885L3.36377 9.77166C3.44025 9.08903 3.97095 8.54406 4.65241 8.45096H4.70212C4.77773 8.44287 4.85362 8.44125 4.92967 8.44478C5.02116 8.44831 5.11206 8.46052 5.20163 8.48082C5.67879 8.59143 6.07034 8.93075 6.24787 9.38775L8.48552 15.0423L10.7196 9.37791C10.8967 8.92179 11.2887 8.58274 11.7659 8.47184C11.8555 8.45169 11.9465 8.43933 12.0378 8.43507C12.1139 8.43168 12.1898 8.43418 12.2654 8.44198H12.3138C12.9939 8.53435 13.5246 9.07652 13.602 9.75842L14.4774 17.7884Z" fill="#222222"/>
</svg>
