<svg width="26" height="26" viewBox="0 0 26 26" fill="none" xmlns="http://www.w3.org/2000/svg">
<path d="M20.7384 19.171C21.0456 18.7121 20.9226 18.091 20.4637 17.7837C20.0047 17.4765 19.3836 17.5995 19.0764 18.0585L20.7384 19.171ZM6.92134 18.0585C6.61413 17.5995 5.99303 17.4765 5.53407 17.7837C5.07512 18.091 4.95211 18.7121 5.25932 19.171L6.92134 18.0585ZM19.0764 18.0585C17.7638 20.0194 15.5315 21.307 12.9989 21.307V23.307C16.2268 23.307 19.0704 21.6629 20.7384 19.171L19.0764 18.0585ZM12.9989 21.307C10.4662 21.307 8.23392 20.0194 6.92134 18.0585L5.25932 19.171C6.92732 21.6629 9.77089 23.307 12.9989 23.307V21.307Z" fill="#222222"/>
<path d="M12.9995 24.1533L12.9995 23.2302" stroke="#222222" stroke-width="2" stroke-linecap="round"/>
<path d="M8.38525 9.38454C8.38525 6.83561 10.4516 4.76929 13.0005 4.76929V4.76929C15.5494 4.76929 17.6158 6.83561 17.6158 9.38454V13.9998C17.6158 16.5487 15.5494 18.6151 13.0005 18.6151V18.6151C10.4516 18.6151 8.38525 16.5487 8.38525 13.9998V9.38454Z" stroke="#222222" stroke-width="2"/>
<path d="M20.3082 9.38425C20.3082 9.93654 20.7559 10.3843 21.3082 10.3843C21.8605 10.3843 22.3082 9.93654 22.3082 9.38425H20.3082ZM19.938 3.17903C19.5697 2.76751 18.9375 2.73249 18.526 3.10081C18.1144 3.46914 18.0794 4.10133 18.4477 4.51286L19.938 3.17903ZM18.4477 4.51286C19.6054 5.80635 20.3082 7.51204 20.3082 9.38425H22.3082C22.3082 7.00108 21.4112 4.82503 19.938 3.17903L18.4477 4.51286Z" fill="#222222"/>
<path d="M23.9995 9.38441C23.9995 9.93669 24.4472 10.3844 24.9995 10.3844C25.5518 10.3844 25.9995 9.93669 25.9995 9.38441H23.9995ZM23.2468 1.3841C22.9067 0.948997 22.2782 0.872023 21.8431 1.21217C21.408 1.55233 21.331 2.1808 21.6712 2.6159L23.2468 1.3841ZM21.6712 2.6159C23.1304 4.48248 23.9995 6.83055 23.9995 9.38441H25.9995C25.9995 6.36847 24.9712 3.5899 23.2468 1.3841L21.6712 2.6159Z" fill="#222222"/>
<path d="M5.69081 9.38425C5.69081 9.93654 5.2431 10.3843 4.69081 10.3843C4.13853 10.3843 3.69081 9.93654 3.69081 9.38425H5.69081ZM6.06102 3.17903C6.42934 2.76751 7.06154 2.73249 7.47307 3.10081C7.88459 3.46914 7.91961 4.10133 7.55129 4.51286L6.06102 3.17903ZM7.55129 4.51286C6.39358 5.80635 5.69081 7.51204 5.69081 9.38425H3.69081C3.69081 7.00108 4.58781 4.82503 6.06102 3.17903L7.55129 4.51286Z" fill="#222222"/>
<path d="M1.99951 9.38441C1.99951 9.93669 1.5518 10.3844 0.999511 10.3844C0.447226 10.3844 -0.000489235 9.93669 -0.000489235 9.38441H1.99951ZM2.75221 1.3841C3.09237 0.948997 3.72083 0.872023 4.15594 1.21217C4.59104 1.55233 4.66802 2.1808 4.32786 2.6159L2.75221 1.3841ZM4.32786 2.6159C2.86862 4.48248 1.99951 6.83055 1.99951 9.38441H-0.000489235C-0.000489235 6.36847 1.02778 3.5899 2.75221 1.3841L4.32786 2.6159Z" fill="#222222"/>
</svg>
