<svg width="26" height="26" viewBox="0 0 26 26" fill="none" xmlns="http://www.w3.org/2000/svg">
<path d="M3.25 5.5C2.69772 5.5 2.25 5.94772 2.25 6.5C2.25 7.05228 2.69772 7.5 3.25 7.5V5.5ZM22.75 7.5C23.3023 7.5 23.75 7.05228 23.75 6.5C23.75 5.94772 23.3023 5.5 22.75 5.5V7.5ZM3.25 7.5H22.75V5.5H3.25V7.5Z" fill="#222222"/>
<path d="M3.25 12C2.69772 12 2.25 12.4477 2.25 13C2.25 13.5523 2.69772 14 3.25 14V12ZM22.75 14C23.3023 14 23.75 13.5523 23.75 13C23.75 12.4477 23.3023 12 22.75 12V14ZM3.25 14H22.75V12H3.25V14Z" fill="#222222"/>
<path d="M3.25 18.5C2.69772 18.5 2.25 18.9477 2.25 19.5C2.25 20.0523 2.69772 20.5 3.25 20.5V18.5ZM22.75 20.5C23.3023 20.5 23.75 20.0523 23.75 19.5C23.75 18.9477 23.3023 18.5 22.75 18.5V20.5ZM3.25 20.5H22.75V18.5H3.25V20.5Z" fill="#222222"/>
</svg>
