<svg width="26" height="26" viewBox="0 0 26 26" fill="none" xmlns="http://www.w3.org/2000/svg">
<path d="M14.8767 22.75C14.502 23.3976 13.8018 23.8333 12.9999 23.8333C12.1979 23.8333 11.4977 23.3976 11.123 22.75" stroke="#222222" stroke-width="2" stroke-linecap="round" stroke-linejoin="round"/>
<path d="M6.41667 8.66659C6.41667 5.03071 9.36413 2.08325 13 2.08325C16.6359 2.08325 19.5833 5.03071 19.5833 8.66659V11.0469C19.5833 12.5178 20.0187 13.9558 20.8346 15.1796L21.3593 15.9667C21.6141 16.3488 21.75 16.7978 21.75 17.257C21.75 18.5418 20.7085 19.5833 19.4238 19.5833H6.57623C5.29149 19.5833 4.25 18.5418 4.25 17.257C4.25 16.7978 4.38594 16.3488 4.64069 15.9667L3.80864 15.412L4.64069 15.9667L5.16538 15.1796C5.98128 13.9558 6.41667 12.5178 6.41667 11.0469V8.66659Z" stroke="#222222" stroke-width="2"/>
</svg>
