<svg width="26" height="26" viewBox="0 0 26 26" fill="none" xmlns="http://www.w3.org/2000/svg">
<path d="M5.70711 8.29289C5.31658 7.90237 4.68342 7.90237 4.29289 8.29289C3.90237 8.68342 3.90237 9.31658 4.29289 9.70711L5.70711 8.29289ZM13 17L12.2929 17.7071C12.4804 17.8946 12.7348 18 13 18C13.2652 18 13.5196 17.8946 13.7071 17.7071L13 17ZM21.7071 9.70711C22.0976 9.31658 22.0976 8.68342 21.7071 8.29289C21.3166 7.90237 20.6834 7.90237 20.2929 8.29289L21.7071 9.70711ZM4.29289 9.70711L12.2929 17.7071L13.7071 16.2929L5.70711 8.29289L4.29289 9.70711ZM13.7071 17.7071L21.7071 9.70711L20.2929 8.29289L12.2929 16.2929L13.7071 17.7071Z" fill="#222222"/>
</svg>
