<svg width="24" height="24" viewBox="0 0 24 24" fill="none" xmlns="http://www.w3.org/2000/svg">
<path d="M14.2928 2.29289L14.9999 1.58577L14.2928 2.29289ZM18.7071 6.70711L19.4142 5.99999L18.7071 6.70711ZM6 23H18V21H6V23ZM6 3H13.5857V1H6V3ZM19.4142 5.99999L14.9999 1.58577L13.5857 3L18 7.41422L19.4142 5.99999ZM4 3V13H6V3H4ZM20 13V7.41422H18V13H20ZM20 21V16H18V21H20ZM4 16V21H6V16H4ZM13.5857 3L14.9999 1.58577C14.6248 1.21071 14.1161 1 13.5857 1V3ZM18 7.41422H20C20 6.88378 19.7893 6.37507 19.4142 5.99999L18 7.41422ZM18 23C19.1046 23 20 22.1046 20 21H18V23ZM6 21H4C4 22.1046 4.89543 23 6 23V21ZM6 1C4.89543 1 4 1.89543 4 3H6V1Z" fill="#222222"/>
<path d="M2 13H22" stroke="#222222" stroke-width="2" stroke-linecap="round" stroke-linejoin="round"/>
<path d="M14 2V7H19" stroke="#222222" stroke-width="2" stroke-linejoin="round"/>
</svg>
