<svg width="26" height="26" viewBox="0 0 26 26" fill="none" xmlns="http://www.w3.org/2000/svg">
<path d="M24.4531 12.5518C24.6582 12.8236 24.6582 13.1764 24.4531 13.4482C23.5833 14.6007 21.9915 16.5148 19.9516 18.132C17.8986 19.7595 15.5011 21 13 21C10.4989 21 8.10139 19.7595 6.04844 18.132C4.00846 16.5148 2.41668 14.6007 1.54693 13.4482C1.34182 13.1764 1.34182 12.8236 1.54693 12.5518C2.41668 11.3993 4.00846 9.48519 6.04844 7.86797C8.10139 6.24046 10.4989 5 13 5C15.5011 5 17.8986 6.24046 19.9516 7.86797C21.9915 9.48519 23.5833 11.3993 24.4531 12.5518Z" stroke="#222222" stroke-width="2"/>
<circle cx="13" cy="13" r="4" stroke="#222222" stroke-width="2"/>
</svg>
