<svg width="26" height="26" viewBox="0 0 26 26" fill="none" xmlns="http://www.w3.org/2000/svg">
<path d="M23.8335 19.5H9.75016" stroke="#222222" stroke-width="2" stroke-linecap="round" stroke-linejoin="round"/>
<path d="M7.95989 24.5406C8.35041 24.9311 8.98357 24.9311 9.3741 24.5406C9.76462 24.1501 9.76462 23.5169 9.3741 23.1264L7.95989 24.5406ZM4.33366 19.5002L3.62655 18.7931C3.23603 19.1836 3.23603 19.8167 3.62655 20.2073L4.33366 19.5002ZM9.3741 15.8739C9.76462 15.4834 9.76462 14.8502 9.3741 14.4597C8.98357 14.0692 8.35041 14.0692 7.95988 14.4597L9.3741 15.8739ZM9.3741 23.1264L5.04076 18.7931L3.62655 20.2073L7.95989 24.5406L9.3741 23.1264ZM5.04076 20.2073L9.3741 15.8739L7.95988 14.4597L3.62655 18.7931L5.04076 20.2073Z" fill="#222222"/>
<path d="M2.1665 5.5C1.61422 5.5 1.1665 5.94772 1.1665 6.5C1.1665 7.05228 1.61422 7.5 2.1665 7.5V5.5ZM16.2498 7.5C16.8021 7.5 17.2498 7.05228 17.2498 6.5C17.2498 5.94772 16.8021 5.5 16.2498 5.5V7.5ZM2.1665 7.5H16.2498V5.5H2.1665V7.5Z" fill="#222222"/>
<path d="M18.0401 1.45964C17.6496 1.06912 17.0164 1.06912 16.6259 1.45964C16.2354 1.85017 16.2354 2.48333 16.6259 2.87385L18.0401 1.45964ZM21.6663 6.50008L22.3734 7.20719C22.764 6.81666 22.764 6.1835 22.3734 5.79297L21.6663 6.50008ZM16.6259 10.1263C16.2354 10.5168 16.2354 11.15 16.6259 11.5405C17.0164 11.931 17.6496 11.931 18.0401 11.5405L16.6259 10.1263ZM16.6259 2.87385L20.9592 7.20719L22.3734 5.79297L18.0401 1.45964L16.6259 2.87385ZM20.9592 5.79297L16.6259 10.1263L18.0401 11.5405L22.3734 7.20719L20.9592 5.79297Z" fill="#222222"/>
</svg>
