<svg width="26" height="26" viewBox="0 0 26 26" fill="none" xmlns="http://www.w3.org/2000/svg">
<path d="M7.50074 6.53838C7.50074 5.98691 7.05269 5.52267 6.5 5.50148C5.94731 5.48028 5.49926 5.91015 5.49926 6.46162L7.50074 6.53838ZM5.49926 20.545C5.49926 21.0964 5.94731 21.5607 6.5 21.5819C7.05269 21.6031 7.50074 21.1732 7.50074 20.6217L5.49926 20.545ZM5.49926 6.46162L5.49926 20.545L7.50074 20.6217L7.50074 6.53838L5.49926 6.46162Z" fill="#222222"/>
<path d="M11.5406 18.0404C11.9311 17.6498 11.9311 17.0167 11.5406 16.6261C11.1501 16.2356 10.5169 16.2356 10.1264 16.6261L11.5406 18.0404ZM6.50016 21.6666L5.79306 22.3737C6.18358 22.7642 6.81675 22.7642 7.20727 22.3737L6.50016 21.6666ZM2.87394 16.6261C2.48341 16.2356 1.85025 16.2356 1.45972 16.6261C1.0692 17.0167 1.0692 17.6498 1.45972 18.0404L2.87394 16.6261ZM10.1264 16.6261L5.79306 20.9595L7.20727 22.3737L11.5406 18.0404L10.1264 16.6261ZM7.20727 20.9595L2.87394 16.6261L1.45972 18.0404L5.79306 22.3737L7.20727 20.9595Z" fill="#222222"/>
<path d="M18.5 19.5C18.5 20.0523 18.9477 20.5 19.5 20.5C20.0523 20.5 20.5 20.0523 20.5 19.5L18.5 19.5ZM20.5 5.41667C20.5 4.86438 20.0523 4.41667 19.5 4.41667C18.9477 4.41667 18.5 4.86438 18.5 5.41667L20.5 5.41667ZM20.5 19.5L20.5 5.41667L18.5 5.41667L18.5 19.5L20.5 19.5Z" fill="#222222"/>
<path d="M24.5406 7.95964C24.9311 8.35017 24.9311 8.98333 24.5406 9.37385C24.1501 9.76438 23.5169 9.76438 23.1264 9.37385L24.5406 7.95964ZM19.5002 4.33342L18.7931 3.62631C19.1836 3.23578 19.8167 3.23578 20.2073 3.62631L19.5002 4.33342ZM15.8739 9.37386C15.4834 9.76438 14.8502 9.76438 14.4597 9.37386C14.0692 8.98333 14.0692 8.35017 14.4597 7.95964L15.8739 9.37386ZM23.1264 9.37385L18.7931 5.04052L20.2073 3.62631L24.5406 7.95964L23.1264 9.37385ZM20.2073 5.04052L15.8739 9.37386L14.4597 7.95964L18.7931 3.62631L20.2073 5.04052Z" fill="#222222"/>
</svg>
