<svg width="29" height="34" viewBox="0 0 29 34" fill="none" xmlns="http://www.w3.org/2000/svg">
<g filter="url(#filter0_d)">
<path d="M19.0958 14.2707C20.4101 13.2881 21.1745 11.7983 21.1745 9.95929C21.1745 6.28232 19.0346 4 14.7844 4H5.93307C5.35099 4 5 4.4082 5 4.86984V25.0513C5 25.624 5.23373 25.9958 5.93307 25.9998C6.03124 26.0003 6.18443 25.9998 6.21351 25.9998H15.3348C19.4316 25.9998 22 23.4639 22 19.5328C22 17.0288 20.8997 15.2533 19.0958 14.2707ZM17.261 10.2129C17.261 11.6712 16.1602 12.6539 14.7844 12.6539H9.4782C9.43951 12.656 9.46491 12.6547 9.42569 12.6539C9.16762 12.6495 9.03628 12.4954 9.03628 12.1695V11.9989L9.0368 11.9952L9.03351 8.38211C9.03351 8.38211 9.03522 8.3743 9.03325 8.33977V8.29688C9.03325 7.98021 9.17051 7.80413 9.42569 7.80413H14.7844C16.3133 7.80413 17.261 8.75469 17.261 10.2129ZM14.7844 22.1641H9.42569C9.17209 22.1673 9.04759 21.9779 9.03628 21.7289V21.5582L9.0368 21.5548L9.03628 17.0788V17.0579C9.03628 17.0579 9.03851 17.0551 9.03628 17.0205V16.9729C9.03628 16.6833 9.19104 16.4898 9.42569 16.4898H14.6925C16.7411 16.4898 17.8725 17.5358 17.8725 19.3747C17.8725 21.5298 16.3434 22.1641 14.7844 22.1641Z" fill="white"/>
</g>
<defs>
<filter id="filter0_d" x="0" y="0" width="29" height="34" filterUnits="userSpaceOnUse" color-interpolation-filters="sRGB">
<feFlood flood-opacity="0" result="BackgroundImageFix"/>
<feColorMatrix in="SourceAlpha" type="matrix" values="0 0 0 0 0 0 0 0 0 0 0 0 0 0 0 0 0 0 127 0"/>
<feOffset dx="1" dy="2"/>
<feGaussianBlur stdDeviation="3"/>
<feColorMatrix type="matrix" values="0 0 0 0 0 0 0 0 0 0 0 0 0 0 0 0 0 0 0.1 0"/>
<feBlend mode="normal" in2="BackgroundImageFix" result="effect1_dropShadow"/>
<feBlend mode="normal" in="SourceGraphic" in2="effect1_dropShadow" result="shape"/>
</filter>
</defs>
</svg>
