<svg width="26" height="26" viewBox="0 0 26 26" fill="none" xmlns="http://www.w3.org/2000/svg">
<circle cx="13.5" cy="13" r="4" stroke="black" stroke-width="2"/>
<path d="M15.9126 2.64475C15.8842 2.38856 15.6673 2.20617 15.4133 2.16216C14.7981 2.05556 14.1653 2 13.5195 2C12.8045 2 12.1054 2.06813 11.4284 2.19823C11.1981 2.24248 11.0046 2.41168 10.9787 2.64475V2.64475L10.6936 5.20833C10.6936 5.21499 10.6894 5.22092 10.6831 5.22315C9.72523 5.56293 8.8487 6.07441 8.09062 6.72055C8.08453 6.72574 8.07583 6.72655 8.0689 6.72255L5.70459 5.68744V5.68744C5.51717 5.60539 5.30421 5.67519 5.17074 5.83024C4.26528 6.88207 3.55548 8.10692 3.09777 9.44837C3.03476 9.63305 3.08037 9.84164 3.23759 9.95721V9.95721L5.31685 11.4857C5.32304 11.4893 5.32631 11.4963 5.32502 11.5034C5.23601 11.9887 5.18951 12.4889 5.18951 13C5.18951 13.5111 5.23601 14.0113 5.32502 14.4966C5.32631 14.5037 5.32304 14.5108 5.31685 14.5143L3.23759 16.0428V16.0428C3.08038 16.1584 3.03476 16.367 3.09777 16.5516C3.55548 17.8931 4.26529 19.1179 5.17076 20.1698C5.30423 20.3248 5.51718 20.3946 5.70459 20.3126V20.3126L8.0689 19.2775C8.07583 19.2735 8.08454 19.2743 8.09064 19.2795C8.84872 19.9256 9.72523 20.4371 10.6831 20.7768C10.6894 20.7791 10.6936 20.785 10.6936 20.7917L10.9787 23.3553V23.3553C11.0046 23.5883 11.1981 23.7575 11.4284 23.8018C12.1054 23.9319 12.8045 24 13.5195 24C14.1653 24 14.7981 23.9444 15.4133 23.8378C15.6673 23.7938 15.8842 23.6114 15.9126 23.3553V23.3553L16.1977 20.7917C16.1977 20.785 16.2019 20.7791 16.2082 20.7768C17.1661 20.4371 18.0426 19.9256 18.8007 19.2794C18.8068 19.2743 18.8155 19.2735 18.8224 19.2775L21.1867 20.3126V20.3126C21.449 20.4274 21.744 20.3174 21.9289 20.0988C22.7433 19.1365 23.3952 18.0326 23.8424 16.8292C23.947 16.5476 23.8957 16.2207 23.6537 16.0428V16.0428L21.5745 14.5143C21.5683 14.5107 21.565 14.5037 21.5663 14.4966C21.6553 14.0113 21.7018 13.5111 21.7018 13C21.7018 12.4889 21.6553 11.9887 21.5663 11.5034C21.565 11.4963 21.5683 11.4892 21.5745 11.4857L23.6537 9.9572V9.9572C23.8957 9.7793 23.947 9.45234 23.8424 9.1708C23.3952 7.96742 22.7432 6.86346 21.9289 5.90116C21.7439 5.68263 21.449 5.57261 21.1867 5.68742V5.68742L18.8224 6.72253C18.8155 6.72654 18.8068 6.72573 18.8007 6.72054C18.0426 6.0744 17.1661 5.56293 16.2082 5.22315C16.2019 5.22092 16.1977 5.21499 16.1977 5.20833L15.9126 2.64475V2.64475Z" stroke="black" stroke-width="2"/>
</svg>
